G04 #@! TF.GenerationSoftware,KiCad,Pcbnew,(5.1.4)-1*
G04 #@! TF.CreationDate,2020-04-30T20:00:02-04:00*
G04 #@! TF.ProjectId,juliet-pcb,6a756c69-6574-42d7-9063-622e6b696361,rev?*
G04 #@! TF.SameCoordinates,Original*
G04 #@! TF.FileFunction,Legend,Top*
G04 #@! TF.FilePolarity,Positive*
%FSLAX46Y46*%
G04 Gerber Fmt 4.6, Leading zero omitted, Abs format (unit mm)*
G04 Created by KiCad (PCBNEW (5.1.4)-1) date 2020-04-30 20:00:02*
%MOMM*%
%LPD*%
G04 APERTURE LIST*
%ADD10C,0.100000*%
%ADD11C,0.381000*%
%ADD12C,0.010000*%
%ADD13C,0.120000*%
%ADD14C,0.150000*%
G04 APERTURE END LIST*
D10*
X55283326Y-118698911D02*
X55426183Y-118746530D01*
X55664278Y-118746530D01*
X55759516Y-118698911D01*
X55807135Y-118651292D01*
X55854754Y-118556054D01*
X55854754Y-118460816D01*
X55807135Y-118365578D01*
X55759516Y-118317959D01*
X55664278Y-118270340D01*
X55473802Y-118222721D01*
X55378564Y-118175102D01*
X55330945Y-118127483D01*
X55283326Y-118032245D01*
X55283326Y-117937007D01*
X55330945Y-117841769D01*
X55378564Y-117794150D01*
X55473802Y-117746530D01*
X55711897Y-117746530D01*
X55854754Y-117794150D01*
X56283326Y-118746530D02*
X56283326Y-117746530D01*
X56664278Y-117746530D01*
X56759516Y-117794150D01*
X56807135Y-117841769D01*
X56854754Y-117937007D01*
X56854754Y-118079864D01*
X56807135Y-118175102D01*
X56759516Y-118222721D01*
X56664278Y-118270340D01*
X56283326Y-118270340D01*
X57759516Y-118746530D02*
X57283326Y-118746530D01*
X57283326Y-117746530D01*
X58092850Y-118746530D02*
X58092850Y-117746530D01*
X58426183Y-117746530D02*
X58997611Y-117746530D01*
X58711897Y-118746530D02*
X58711897Y-117746530D01*
X33629826Y-118698911D02*
X33772683Y-118746530D01*
X34010778Y-118746530D01*
X34106016Y-118698911D01*
X34153635Y-118651292D01*
X34201254Y-118556054D01*
X34201254Y-118460816D01*
X34153635Y-118365578D01*
X34106016Y-118317959D01*
X34010778Y-118270340D01*
X33820302Y-118222721D01*
X33725064Y-118175102D01*
X33677445Y-118127483D01*
X33629826Y-118032245D01*
X33629826Y-117937007D01*
X33677445Y-117841769D01*
X33725064Y-117794150D01*
X33820302Y-117746530D01*
X34058397Y-117746530D01*
X34201254Y-117794150D01*
X34629826Y-118746530D02*
X34629826Y-117746530D01*
X35010778Y-117746530D01*
X35106016Y-117794150D01*
X35153635Y-117841769D01*
X35201254Y-117937007D01*
X35201254Y-118079864D01*
X35153635Y-118175102D01*
X35106016Y-118222721D01*
X35010778Y-118270340D01*
X34629826Y-118270340D01*
X36106016Y-118746530D02*
X35629826Y-118746530D01*
X35629826Y-117746530D01*
X36439350Y-118746530D02*
X36439350Y-117746530D01*
X36772683Y-117746530D02*
X37344111Y-117746530D01*
X37058397Y-118746530D02*
X37058397Y-117746530D01*
X41556430Y-118698911D02*
X41699288Y-118746530D01*
X41937383Y-118746530D01*
X42032621Y-118698911D01*
X42080240Y-118651292D01*
X42127859Y-118556054D01*
X42127859Y-118460816D01*
X42080240Y-118365578D01*
X42032621Y-118317959D01*
X41937383Y-118270340D01*
X41746907Y-118222721D01*
X41651669Y-118175102D01*
X41604050Y-118127483D01*
X41556430Y-118032245D01*
X41556430Y-117937007D01*
X41604050Y-117841769D01*
X41651669Y-117794150D01*
X41746907Y-117746530D01*
X41985002Y-117746530D01*
X42127859Y-117794150D01*
X42413573Y-117746530D02*
X42985002Y-117746530D01*
X42699288Y-118746530D02*
X42699288Y-117746530D01*
X43270716Y-118460816D02*
X43746907Y-118460816D01*
X43175478Y-118746530D02*
X43508811Y-117746530D01*
X43842145Y-118746530D01*
X44175478Y-118746530D02*
X44175478Y-117746530D01*
X44746907Y-118746530D01*
X44746907Y-117746530D01*
X45223097Y-118746530D02*
X45223097Y-117746530D01*
X45461192Y-117746530D01*
X45604050Y-117794150D01*
X45699288Y-117889388D01*
X45746907Y-117984626D01*
X45794526Y-118175102D01*
X45794526Y-118317959D01*
X45746907Y-118508435D01*
X45699288Y-118603673D01*
X45604050Y-118698911D01*
X45461192Y-118746530D01*
X45223097Y-118746530D01*
X46175478Y-118460816D02*
X46651669Y-118460816D01*
X46080240Y-118746530D02*
X46413573Y-117746530D01*
X46746907Y-118746530D01*
X47651669Y-118746530D02*
X47318335Y-118270340D01*
X47080240Y-118746530D02*
X47080240Y-117746530D01*
X47461192Y-117746530D01*
X47556430Y-117794150D01*
X47604050Y-117841769D01*
X47651669Y-117937007D01*
X47651669Y-118079864D01*
X47604050Y-118175102D01*
X47556430Y-118222721D01*
X47461192Y-118270340D01*
X47080240Y-118270340D01*
X48080240Y-118746530D02*
X48080240Y-117746530D01*
X48318335Y-117746530D01*
X48461192Y-117794150D01*
X48556430Y-117889388D01*
X48604050Y-117984626D01*
X48651669Y-118175102D01*
X48651669Y-118317959D01*
X48604050Y-118508435D01*
X48556430Y-118603673D01*
X48461192Y-118698911D01*
X48318335Y-118746530D01*
X48080240Y-118746530D01*
X56854754Y-117240524D02*
X56283326Y-117240524D01*
X56569040Y-117240524D02*
X56569040Y-116240524D01*
X56473802Y-116383382D01*
X56378564Y-116478620D01*
X56283326Y-116526239D01*
X57283326Y-116240524D02*
X57283326Y-117050048D01*
X57330945Y-117145286D01*
X57378564Y-117192905D01*
X57473802Y-117240524D01*
X57664278Y-117240524D01*
X57759516Y-117192905D01*
X57807135Y-117145286D01*
X57854754Y-117050048D01*
X57854754Y-116240524D01*
X43104050Y-116335763D02*
X43151669Y-116288144D01*
X43246907Y-116240524D01*
X43485002Y-116240524D01*
X43580240Y-116288144D01*
X43627859Y-116335763D01*
X43675478Y-116431001D01*
X43675478Y-116526239D01*
X43627859Y-116669096D01*
X43056430Y-117240524D01*
X43675478Y-117240524D01*
X44104050Y-117145286D02*
X44151669Y-117192905D01*
X44104050Y-117240524D01*
X44056430Y-117192905D01*
X44104050Y-117145286D01*
X44104050Y-117240524D01*
X44532621Y-116335763D02*
X44580240Y-116288144D01*
X44675478Y-116240524D01*
X44913573Y-116240524D01*
X45008811Y-116288144D01*
X45056430Y-116335763D01*
X45104050Y-116431001D01*
X45104050Y-116526239D01*
X45056430Y-116669096D01*
X44485002Y-117240524D01*
X45104050Y-117240524D01*
X46008811Y-116240524D02*
X45532621Y-116240524D01*
X45485002Y-116716715D01*
X45532621Y-116669096D01*
X45627859Y-116621477D01*
X45865954Y-116621477D01*
X45961192Y-116669096D01*
X46008811Y-116716715D01*
X46056430Y-116811953D01*
X46056430Y-117050048D01*
X46008811Y-117145286D01*
X45961192Y-117192905D01*
X45865954Y-117240524D01*
X45627859Y-117240524D01*
X45532621Y-117192905D01*
X45485002Y-117145286D01*
X46485002Y-116240524D02*
X46485002Y-117050048D01*
X46532621Y-117145286D01*
X46580240Y-117192905D01*
X46675478Y-117240524D01*
X46865954Y-117240524D01*
X46961192Y-117192905D01*
X47008811Y-117145286D01*
X47056430Y-117050048D01*
X47056430Y-116240524D01*
X34010778Y-117240524D02*
X33439350Y-117240524D01*
X33725064Y-117240524D02*
X33725064Y-116240524D01*
X33629826Y-116383382D01*
X33534588Y-116478620D01*
X33439350Y-116526239D01*
X34439350Y-117145286D02*
X34486969Y-117192905D01*
X34439350Y-117240524D01*
X34391730Y-117192905D01*
X34439350Y-117145286D01*
X34439350Y-117240524D01*
X34867921Y-116335763D02*
X34915540Y-116288144D01*
X35010778Y-116240524D01*
X35248873Y-116240524D01*
X35344111Y-116288144D01*
X35391730Y-116335763D01*
X35439350Y-116431001D01*
X35439350Y-116526239D01*
X35391730Y-116669096D01*
X34820302Y-117240524D01*
X35439350Y-117240524D01*
X36344111Y-116240524D02*
X35867921Y-116240524D01*
X35820302Y-116716715D01*
X35867921Y-116669096D01*
X35963159Y-116621477D01*
X36201254Y-116621477D01*
X36296492Y-116669096D01*
X36344111Y-116716715D01*
X36391730Y-116811953D01*
X36391730Y-117050048D01*
X36344111Y-117145286D01*
X36296492Y-117192905D01*
X36201254Y-117240524D01*
X35963159Y-117240524D01*
X35867921Y-117192905D01*
X35820302Y-117145286D01*
X36820302Y-116240524D02*
X36820302Y-117050048D01*
X36867921Y-117145286D01*
X36915540Y-117192905D01*
X37010778Y-117240524D01*
X37201254Y-117240524D01*
X37296492Y-117192905D01*
X37344111Y-117145286D01*
X37391730Y-117050048D01*
X37391730Y-116240524D01*
X37987730Y-98353511D02*
X38130588Y-98401130D01*
X38368683Y-98401130D01*
X38463921Y-98353511D01*
X38511540Y-98305892D01*
X38559159Y-98210654D01*
X38559159Y-98115416D01*
X38511540Y-98020178D01*
X38463921Y-97972559D01*
X38368683Y-97924940D01*
X38178207Y-97877321D01*
X38082969Y-97829702D01*
X38035350Y-97782083D01*
X37987730Y-97686845D01*
X37987730Y-97591607D01*
X38035350Y-97496369D01*
X38082969Y-97448750D01*
X38178207Y-97401130D01*
X38416302Y-97401130D01*
X38559159Y-97448750D01*
X38844873Y-97401130D02*
X39416302Y-97401130D01*
X39130588Y-98401130D02*
X39130588Y-97401130D01*
X39702016Y-98115416D02*
X40178207Y-98115416D01*
X39606778Y-98401130D02*
X39940111Y-97401130D01*
X40273445Y-98401130D01*
X40606778Y-98401130D02*
X40606778Y-97401130D01*
X41178207Y-98401130D01*
X41178207Y-97401130D01*
X41654397Y-98401130D02*
X41654397Y-97401130D01*
X41892492Y-97401130D01*
X42035350Y-97448750D01*
X42130588Y-97543988D01*
X42178207Y-97639226D01*
X42225826Y-97829702D01*
X42225826Y-97972559D01*
X42178207Y-98163035D01*
X42130588Y-98258273D01*
X42035350Y-98353511D01*
X41892492Y-98401130D01*
X41654397Y-98401130D01*
X42606778Y-98115416D02*
X43082969Y-98115416D01*
X42511540Y-98401130D02*
X42844873Y-97401130D01*
X43178207Y-98401130D01*
X44082969Y-98401130D02*
X43749635Y-97924940D01*
X43511540Y-98401130D02*
X43511540Y-97401130D01*
X43892492Y-97401130D01*
X43987730Y-97448750D01*
X44035350Y-97496369D01*
X44082969Y-97591607D01*
X44082969Y-97734464D01*
X44035350Y-97829702D01*
X43987730Y-97877321D01*
X43892492Y-97924940D01*
X43511540Y-97924940D01*
X44511540Y-98401130D02*
X44511540Y-97401130D01*
X44749635Y-97401130D01*
X44892492Y-97448750D01*
X44987730Y-97543988D01*
X45035350Y-97639226D01*
X45082969Y-97829702D01*
X45082969Y-97972559D01*
X45035350Y-98163035D01*
X44987730Y-98258273D01*
X44892492Y-98353511D01*
X44749635Y-98401130D01*
X44511540Y-98401130D01*
X30488321Y-98353511D02*
X30631178Y-98401130D01*
X30869273Y-98401130D01*
X30964511Y-98353511D01*
X31012130Y-98305892D01*
X31059750Y-98210654D01*
X31059750Y-98115416D01*
X31012130Y-98020178D01*
X30964511Y-97972559D01*
X30869273Y-97924940D01*
X30678797Y-97877321D01*
X30583559Y-97829702D01*
X30535940Y-97782083D01*
X30488321Y-97686845D01*
X30488321Y-97591607D01*
X30535940Y-97496369D01*
X30583559Y-97448750D01*
X30678797Y-97401130D01*
X30916892Y-97401130D01*
X31059750Y-97448750D01*
X31345464Y-97401130D02*
X31916892Y-97401130D01*
X31631178Y-98401130D02*
X31631178Y-97401130D01*
X32250226Y-97877321D02*
X32583559Y-97877321D01*
X32726416Y-98401130D02*
X32250226Y-98401130D01*
X32250226Y-97401130D01*
X32726416Y-97401130D01*
X33154988Y-98401130D02*
X33154988Y-97401130D01*
X33535940Y-97401130D01*
X33631178Y-97448750D01*
X33678797Y-97496369D01*
X33726416Y-97591607D01*
X33726416Y-97734464D01*
X33678797Y-97829702D01*
X33631178Y-97877321D01*
X33535940Y-97924940D01*
X33154988Y-97924940D01*
X34154988Y-98401130D02*
X34154988Y-97401130D01*
X34535940Y-97401130D01*
X34631178Y-97448750D01*
X34678797Y-97496369D01*
X34726416Y-97591607D01*
X34726416Y-97734464D01*
X34678797Y-97829702D01*
X34631178Y-97877321D01*
X34535940Y-97924940D01*
X34154988Y-97924940D01*
X35154988Y-97877321D02*
X35488321Y-97877321D01*
X35631178Y-98401130D02*
X35154988Y-98401130D01*
X35154988Y-97401130D01*
X35631178Y-97401130D01*
X36059750Y-98401130D02*
X36059750Y-97401130D01*
X36297845Y-97401130D01*
X36440702Y-97448750D01*
X36535940Y-97543988D01*
X36583559Y-97639226D01*
X36631178Y-97829702D01*
X36631178Y-97972559D01*
X36583559Y-98163035D01*
X36535940Y-98258273D01*
X36440702Y-98353511D01*
X36297845Y-98401130D01*
X36059750Y-98401130D01*
X258102278Y-136392124D02*
X257530850Y-136392124D01*
X257816564Y-136392124D02*
X257816564Y-135392124D01*
X257721326Y-135534982D01*
X257626088Y-135630220D01*
X257530850Y-135677839D01*
X258530850Y-136296886D02*
X258578469Y-136344505D01*
X258530850Y-136392124D01*
X258483230Y-136344505D01*
X258530850Y-136296886D01*
X258530850Y-136392124D01*
X258959421Y-135487363D02*
X259007040Y-135439744D01*
X259102278Y-135392124D01*
X259340373Y-135392124D01*
X259435611Y-135439744D01*
X259483230Y-135487363D01*
X259530850Y-135582601D01*
X259530850Y-135677839D01*
X259483230Y-135820696D01*
X258911802Y-136392124D01*
X259530850Y-136392124D01*
X260435611Y-135392124D02*
X259959421Y-135392124D01*
X259911802Y-135868315D01*
X259959421Y-135820696D01*
X260054659Y-135773077D01*
X260292754Y-135773077D01*
X260387992Y-135820696D01*
X260435611Y-135868315D01*
X260483230Y-135963553D01*
X260483230Y-136201648D01*
X260435611Y-136296886D01*
X260387992Y-136344505D01*
X260292754Y-136392124D01*
X260054659Y-136392124D01*
X259959421Y-136344505D01*
X259911802Y-136296886D01*
X260911802Y-135392124D02*
X260911802Y-136201648D01*
X260959421Y-136296886D01*
X261007040Y-136344505D01*
X261102278Y-136392124D01*
X261292754Y-136392124D01*
X261387992Y-136344505D01*
X261435611Y-136296886D01*
X261483230Y-136201648D01*
X261483230Y-135392124D01*
X215049278Y-136392124D02*
X214477850Y-136392124D01*
X214763564Y-136392124D02*
X214763564Y-135392124D01*
X214668326Y-135534982D01*
X214573088Y-135630220D01*
X214477850Y-135677839D01*
X215477850Y-136296886D02*
X215525469Y-136344505D01*
X215477850Y-136392124D01*
X215430230Y-136344505D01*
X215477850Y-136296886D01*
X215477850Y-136392124D01*
X215906421Y-135487363D02*
X215954040Y-135439744D01*
X216049278Y-135392124D01*
X216287373Y-135392124D01*
X216382611Y-135439744D01*
X216430230Y-135487363D01*
X216477850Y-135582601D01*
X216477850Y-135677839D01*
X216430230Y-135820696D01*
X215858802Y-136392124D01*
X216477850Y-136392124D01*
X217382611Y-135392124D02*
X216906421Y-135392124D01*
X216858802Y-135868315D01*
X216906421Y-135820696D01*
X217001659Y-135773077D01*
X217239754Y-135773077D01*
X217334992Y-135820696D01*
X217382611Y-135868315D01*
X217430230Y-135963553D01*
X217430230Y-136201648D01*
X217382611Y-136296886D01*
X217334992Y-136344505D01*
X217239754Y-136392124D01*
X217001659Y-136392124D01*
X216906421Y-136344505D01*
X216858802Y-136296886D01*
X217858802Y-135392124D02*
X217858802Y-136201648D01*
X217906421Y-136296886D01*
X217954040Y-136344505D01*
X218049278Y-136392124D01*
X218239754Y-136392124D01*
X218334992Y-136344505D01*
X218382611Y-136296886D01*
X218430230Y-136201648D01*
X218430230Y-135392124D01*
X237791654Y-136392124D02*
X237220226Y-136392124D01*
X237505940Y-136392124D02*
X237505940Y-135392124D01*
X237410702Y-135534982D01*
X237315464Y-135630220D01*
X237220226Y-135677839D01*
X238220226Y-135392124D02*
X238220226Y-136201648D01*
X238267845Y-136296886D01*
X238315464Y-136344505D01*
X238410702Y-136392124D01*
X238601178Y-136392124D01*
X238696416Y-136344505D01*
X238744035Y-136296886D01*
X238791654Y-136201648D01*
X238791654Y-135392124D01*
X56600754Y-136392124D02*
X56029326Y-136392124D01*
X56315040Y-136392124D02*
X56315040Y-135392124D01*
X56219802Y-135534982D01*
X56124564Y-135630220D01*
X56029326Y-135677839D01*
X57029326Y-135392124D02*
X57029326Y-136201648D01*
X57076945Y-136296886D01*
X57124564Y-136344505D01*
X57219802Y-136392124D01*
X57410278Y-136392124D01*
X57505516Y-136344505D01*
X57553135Y-136296886D01*
X57600754Y-136201648D01*
X57600754Y-135392124D01*
X34239378Y-136392124D02*
X33667950Y-136392124D01*
X33953664Y-136392124D02*
X33953664Y-135392124D01*
X33858426Y-135534982D01*
X33763188Y-135630220D01*
X33667950Y-135677839D01*
X34667950Y-136296886D02*
X34715569Y-136344505D01*
X34667950Y-136392124D01*
X34620330Y-136344505D01*
X34667950Y-136296886D01*
X34667950Y-136392124D01*
X35096521Y-135487363D02*
X35144140Y-135439744D01*
X35239378Y-135392124D01*
X35477473Y-135392124D01*
X35572711Y-135439744D01*
X35620330Y-135487363D01*
X35667950Y-135582601D01*
X35667950Y-135677839D01*
X35620330Y-135820696D01*
X35048902Y-136392124D01*
X35667950Y-136392124D01*
X36572711Y-135392124D02*
X36096521Y-135392124D01*
X36048902Y-135868315D01*
X36096521Y-135820696D01*
X36191759Y-135773077D01*
X36429854Y-135773077D01*
X36525092Y-135820696D01*
X36572711Y-135868315D01*
X36620330Y-135963553D01*
X36620330Y-136201648D01*
X36572711Y-136296886D01*
X36525092Y-136344505D01*
X36429854Y-136392124D01*
X36191759Y-136392124D01*
X36096521Y-136344505D01*
X36048902Y-136296886D01*
X37048902Y-135392124D02*
X37048902Y-136201648D01*
X37096521Y-136296886D01*
X37144140Y-136344505D01*
X37239378Y-136392124D01*
X37429854Y-136392124D01*
X37525092Y-136344505D01*
X37572711Y-136296886D01*
X37620330Y-136201648D01*
X37620330Y-135392124D01*
X176492150Y-135621769D02*
X176539769Y-135574150D01*
X176635007Y-135526530D01*
X176873102Y-135526530D01*
X176968340Y-135574150D01*
X177015959Y-135621769D01*
X177063578Y-135717007D01*
X177063578Y-135812245D01*
X177015959Y-135955102D01*
X176444530Y-136526530D01*
X177063578Y-136526530D01*
X177492150Y-136431292D02*
X177539769Y-136478911D01*
X177492150Y-136526530D01*
X177444530Y-136478911D01*
X177492150Y-136431292D01*
X177492150Y-136526530D01*
X177873102Y-135526530D02*
X178539769Y-135526530D01*
X178111197Y-136526530D01*
X179396911Y-135526530D02*
X178920721Y-135526530D01*
X178873102Y-136002721D01*
X178920721Y-135955102D01*
X179015959Y-135907483D01*
X179254054Y-135907483D01*
X179349292Y-135955102D01*
X179396911Y-136002721D01*
X179444530Y-136097959D01*
X179444530Y-136336054D01*
X179396911Y-136431292D01*
X179349292Y-136478911D01*
X179254054Y-136526530D01*
X179015959Y-136526530D01*
X178920721Y-136478911D01*
X178873102Y-136431292D01*
X179873102Y-135526530D02*
X179873102Y-136336054D01*
X179920721Y-136431292D01*
X179968340Y-136478911D01*
X180063578Y-136526530D01*
X180254054Y-136526530D01*
X180349292Y-136478911D01*
X180396911Y-136431292D01*
X180444530Y-136336054D01*
X180444530Y-135526530D01*
X109855250Y-135672569D02*
X109902869Y-135624950D01*
X109998107Y-135577330D01*
X110236202Y-135577330D01*
X110331440Y-135624950D01*
X110379059Y-135672569D01*
X110426678Y-135767807D01*
X110426678Y-135863045D01*
X110379059Y-136005902D01*
X109807630Y-136577330D01*
X110426678Y-136577330D01*
X110855250Y-136482092D02*
X110902869Y-136529711D01*
X110855250Y-136577330D01*
X110807630Y-136529711D01*
X110855250Y-136482092D01*
X110855250Y-136577330D01*
X111283821Y-135672569D02*
X111331440Y-135624950D01*
X111426678Y-135577330D01*
X111664773Y-135577330D01*
X111760011Y-135624950D01*
X111807630Y-135672569D01*
X111855250Y-135767807D01*
X111855250Y-135863045D01*
X111807630Y-136005902D01*
X111236202Y-136577330D01*
X111855250Y-136577330D01*
X112760011Y-135577330D02*
X112283821Y-135577330D01*
X112236202Y-136053521D01*
X112283821Y-136005902D01*
X112379059Y-135958283D01*
X112617154Y-135958283D01*
X112712392Y-136005902D01*
X112760011Y-136053521D01*
X112807630Y-136148759D01*
X112807630Y-136386854D01*
X112760011Y-136482092D01*
X112712392Y-136529711D01*
X112617154Y-136577330D01*
X112379059Y-136577330D01*
X112283821Y-136529711D01*
X112236202Y-136482092D01*
X113236202Y-135577330D02*
X113236202Y-136386854D01*
X113283821Y-136482092D01*
X113331440Y-136529711D01*
X113426678Y-136577330D01*
X113617154Y-136577330D01*
X113712392Y-136529711D01*
X113760011Y-136482092D01*
X113807630Y-136386854D01*
X113807630Y-135577330D01*
X141766954Y-136392124D02*
X141195526Y-136392124D01*
X141481240Y-136392124D02*
X141481240Y-135392124D01*
X141386002Y-135534982D01*
X141290764Y-135630220D01*
X141195526Y-135677839D01*
X142195526Y-135392124D02*
X142195526Y-136201648D01*
X142243145Y-136296886D01*
X142290764Y-136344505D01*
X142386002Y-136392124D01*
X142576478Y-136392124D01*
X142671716Y-136344505D01*
X142719335Y-136296886D01*
X142766954Y-136201648D01*
X142766954Y-135392124D01*
X78429028Y-136392124D02*
X77857600Y-136392124D01*
X78143314Y-136392124D02*
X78143314Y-135392124D01*
X78048076Y-135534982D01*
X77952838Y-135630220D01*
X77857600Y-135677839D01*
X78857600Y-136296886D02*
X78905219Y-136344505D01*
X78857600Y-136392124D01*
X78809980Y-136344505D01*
X78857600Y-136296886D01*
X78857600Y-136392124D01*
X79286171Y-135487363D02*
X79333790Y-135439744D01*
X79429028Y-135392124D01*
X79667123Y-135392124D01*
X79762361Y-135439744D01*
X79809980Y-135487363D01*
X79857600Y-135582601D01*
X79857600Y-135677839D01*
X79809980Y-135820696D01*
X79238552Y-136392124D01*
X79857600Y-136392124D01*
X80762361Y-135392124D02*
X80286171Y-135392124D01*
X80238552Y-135868315D01*
X80286171Y-135820696D01*
X80381409Y-135773077D01*
X80619504Y-135773077D01*
X80714742Y-135820696D01*
X80762361Y-135868315D01*
X80809980Y-135963553D01*
X80809980Y-136201648D01*
X80762361Y-136296886D01*
X80714742Y-136344505D01*
X80619504Y-136392124D01*
X80381409Y-136392124D01*
X80286171Y-136344505D01*
X80238552Y-136296886D01*
X81238552Y-135392124D02*
X81238552Y-136201648D01*
X81286171Y-136296886D01*
X81333790Y-136344505D01*
X81429028Y-136392124D01*
X81619504Y-136392124D01*
X81714742Y-136344505D01*
X81762361Y-136296886D01*
X81809980Y-136201648D01*
X81809980Y-135392124D01*
X74863354Y-136392124D02*
X74291926Y-136392124D01*
X74577640Y-136392124D02*
X74577640Y-135392124D01*
X74482402Y-135534982D01*
X74387164Y-135630220D01*
X74291926Y-135677839D01*
X75291926Y-135392124D02*
X75291926Y-136201648D01*
X75339545Y-136296886D01*
X75387164Y-136344505D01*
X75482402Y-136392124D01*
X75672878Y-136392124D01*
X75768116Y-136344505D01*
X75815735Y-136296886D01*
X75863354Y-136201648D01*
X75863354Y-135392124D01*
D11*
X153746200Y-58801000D02*
X153746200Y-61341000D01*
X151206200Y-58801000D02*
X153746200Y-58801000D01*
D12*
G36*
X238028102Y-52632159D02*
G01*
X236318614Y-52631602D01*
X234653633Y-52630744D01*
X233052216Y-52629587D01*
X231533419Y-52628129D01*
X230116299Y-52626371D01*
X229730239Y-52625810D01*
X219064573Y-52609750D01*
X220715610Y-49733315D01*
X221032229Y-49182550D01*
X221329490Y-48667097D01*
X221601487Y-48197084D01*
X221842315Y-47782636D01*
X222046070Y-47433879D01*
X222206846Y-47160940D01*
X222318737Y-46973945D01*
X222375838Y-46883020D01*
X222382014Y-46875815D01*
X222415887Y-46933223D01*
X222506040Y-47089017D01*
X222645668Y-47331358D01*
X222827967Y-47648408D01*
X223046131Y-48028330D01*
X223293355Y-48459286D01*
X223562834Y-48929437D01*
X223652238Y-49085500D01*
X223927436Y-49565694D01*
X224182620Y-50010485D01*
X224410977Y-50408030D01*
X224605689Y-50746487D01*
X224759943Y-51014010D01*
X224866921Y-51198758D01*
X224919810Y-51288885D01*
X224924190Y-51295800D01*
X224933103Y-51291826D01*
X224954414Y-51264569D01*
X224992923Y-51205830D01*
X225053434Y-51107412D01*
X225140747Y-50961120D01*
X225259666Y-50758754D01*
X225414992Y-50492119D01*
X225611528Y-50153016D01*
X225854074Y-49733249D01*
X226147435Y-49224621D01*
X226496410Y-48618935D01*
X226731728Y-48210319D01*
X227509913Y-46858887D01*
X228778214Y-49067569D01*
X229055225Y-49549642D01*
X229312287Y-49996368D01*
X229542592Y-50395962D01*
X229739332Y-50736642D01*
X229895701Y-51006624D01*
X230004890Y-51194127D01*
X230060093Y-51287367D01*
X230065400Y-51295551D01*
X230100014Y-51246684D01*
X230190828Y-51099108D01*
X230331039Y-50864390D01*
X230513846Y-50554093D01*
X230732449Y-50179782D01*
X230980045Y-49753021D01*
X231249833Y-49285376D01*
X231344513Y-49120676D01*
X231621157Y-48640815D01*
X231878908Y-48197183D01*
X232110815Y-47801491D01*
X232309922Y-47465452D01*
X232469276Y-47200775D01*
X232581923Y-47019172D01*
X232640909Y-46932354D01*
X232647391Y-46926500D01*
X232687438Y-46979704D01*
X232783078Y-47131286D01*
X232927165Y-47369202D01*
X233112557Y-47681408D01*
X233332107Y-48055861D01*
X233578671Y-48480517D01*
X233845104Y-48943332D01*
X233881086Y-49006125D01*
X234151871Y-49478402D01*
X234405099Y-49919045D01*
X234633310Y-50315149D01*
X234829042Y-50653808D01*
X234984835Y-50922116D01*
X235093229Y-51107166D01*
X235146763Y-51196054D01*
X235148684Y-51198967D01*
X235174628Y-51216122D01*
X235213916Y-51198780D01*
X235272379Y-51137863D01*
X235355847Y-51024291D01*
X235470151Y-50848984D01*
X235621122Y-50602863D01*
X235814589Y-50276849D01*
X236056385Y-49861862D01*
X236352340Y-49348823D01*
X236484193Y-49119342D01*
X236760646Y-48639611D01*
X237018200Y-48196116D01*
X237249903Y-47800575D01*
X237448802Y-47464703D01*
X237607943Y-47200216D01*
X237720375Y-47018831D01*
X237779144Y-46932264D01*
X237785530Y-46926500D01*
X237825332Y-46979733D01*
X237921010Y-47131618D01*
X238065616Y-47370433D01*
X238252202Y-47684458D01*
X238473819Y-48061974D01*
X238723518Y-48491257D01*
X238994353Y-48960589D01*
X239085547Y-49119409D01*
X239361248Y-49597130D01*
X239618175Y-50036529D01*
X239849417Y-50426219D01*
X240048060Y-50754808D01*
X240207195Y-51010907D01*
X240319908Y-51183126D01*
X240379287Y-51260076D01*
X240386081Y-51262534D01*
X240426167Y-51198043D01*
X240522117Y-51035457D01*
X240666864Y-50786992D01*
X240853338Y-50464862D01*
X241074474Y-50081285D01*
X241323202Y-49648475D01*
X241592456Y-49178650D01*
X241654836Y-49069625D01*
X241927170Y-48595334D01*
X242180606Y-48157454D01*
X242408122Y-47767853D01*
X242602699Y-47438400D01*
X242757315Y-47180963D01*
X242864950Y-47007409D01*
X242918583Y-46929607D01*
X242922622Y-46926500D01*
X242962349Y-46979718D01*
X243058005Y-47131561D01*
X243202640Y-47370313D01*
X243389304Y-47684258D01*
X243611048Y-48061680D01*
X243860919Y-48490864D01*
X244131969Y-48960093D01*
X244223508Y-49119342D01*
X244542168Y-49673103D01*
X244804387Y-50125274D01*
X245016003Y-50484945D01*
X245182857Y-50761208D01*
X245310787Y-50963152D01*
X245405633Y-51099867D01*
X245473235Y-51180444D01*
X245519431Y-51213973D01*
X245550062Y-51209545D01*
X245559410Y-51198967D01*
X245607585Y-51119657D01*
X245711335Y-50943001D01*
X245863194Y-50681902D01*
X246055696Y-50349263D01*
X246281375Y-49957988D01*
X246532765Y-49520979D01*
X246802402Y-49051140D01*
X246828203Y-49006125D01*
X247096829Y-48539255D01*
X247346456Y-48108958D01*
X247569944Y-47727273D01*
X247760153Y-47406240D01*
X247909941Y-47157900D01*
X248012170Y-46994291D01*
X248059699Y-46927454D01*
X248061505Y-46926500D01*
X248101133Y-46979713D01*
X248196718Y-47131542D01*
X248341313Y-47370278D01*
X248527970Y-47684212D01*
X248749742Y-48061632D01*
X248999683Y-48490829D01*
X249270845Y-48960092D01*
X249363188Y-49120676D01*
X249638920Y-49599490D01*
X249894751Y-50041314D01*
X250123880Y-50434584D01*
X250319504Y-50767735D01*
X250474823Y-51029203D01*
X250583035Y-51207423D01*
X250637339Y-51290831D01*
X250642301Y-51295551D01*
X250676994Y-51238097D01*
X250768058Y-51082253D01*
X250908688Y-50839799D01*
X251092076Y-50522515D01*
X251311419Y-50142183D01*
X251559908Y-49710582D01*
X251830739Y-49239493D01*
X251929993Y-49066688D01*
X253198800Y-46857126D01*
X253976717Y-48209438D01*
X254361510Y-48878183D01*
X254687863Y-49444904D01*
X254960539Y-49917734D01*
X255184297Y-50304807D01*
X255363900Y-50614255D01*
X255504110Y-50854213D01*
X255609686Y-51032813D01*
X255685391Y-51158189D01*
X255735987Y-51238474D01*
X255766233Y-51281802D01*
X255780893Y-51296306D01*
X255783511Y-51295800D01*
X255817766Y-51238251D01*
X255908279Y-51082315D01*
X256048235Y-50839836D01*
X256230818Y-50522657D01*
X256449212Y-50142622D01*
X256696602Y-49711574D01*
X256966173Y-49241357D01*
X257055463Y-49085500D01*
X257330602Y-48605351D01*
X257585653Y-48160626D01*
X257813812Y-47763163D01*
X258008273Y-47424802D01*
X258162231Y-47157379D01*
X258268882Y-46972734D01*
X258321420Y-46882703D01*
X258325687Y-46875815D01*
X258359249Y-46925529D01*
X258449959Y-47075358D01*
X258591913Y-47315176D01*
X258779205Y-47634857D01*
X259005931Y-48024275D01*
X259266184Y-48473304D01*
X259554060Y-48971817D01*
X259863654Y-49509690D01*
X259992091Y-49733315D01*
X261643128Y-52609750D01*
X251019516Y-52625810D01*
X249639997Y-52627655D01*
X248152534Y-52629198D01*
X246576184Y-52630442D01*
X244930003Y-52631386D01*
X243233049Y-52632029D01*
X241504376Y-52632373D01*
X239763042Y-52632416D01*
X238028102Y-52632159D01*
X238028102Y-52632159D01*
G37*
X238028102Y-52632159D02*
X236318614Y-52631602D01*
X234653633Y-52630744D01*
X233052216Y-52629587D01*
X231533419Y-52628129D01*
X230116299Y-52626371D01*
X229730239Y-52625810D01*
X219064573Y-52609750D01*
X220715610Y-49733315D01*
X221032229Y-49182550D01*
X221329490Y-48667097D01*
X221601487Y-48197084D01*
X221842315Y-47782636D01*
X222046070Y-47433879D01*
X222206846Y-47160940D01*
X222318737Y-46973945D01*
X222375838Y-46883020D01*
X222382014Y-46875815D01*
X222415887Y-46933223D01*
X222506040Y-47089017D01*
X222645668Y-47331358D01*
X222827967Y-47648408D01*
X223046131Y-48028330D01*
X223293355Y-48459286D01*
X223562834Y-48929437D01*
X223652238Y-49085500D01*
X223927436Y-49565694D01*
X224182620Y-50010485D01*
X224410977Y-50408030D01*
X224605689Y-50746487D01*
X224759943Y-51014010D01*
X224866921Y-51198758D01*
X224919810Y-51288885D01*
X224924190Y-51295800D01*
X224933103Y-51291826D01*
X224954414Y-51264569D01*
X224992923Y-51205830D01*
X225053434Y-51107412D01*
X225140747Y-50961120D01*
X225259666Y-50758754D01*
X225414992Y-50492119D01*
X225611528Y-50153016D01*
X225854074Y-49733249D01*
X226147435Y-49224621D01*
X226496410Y-48618935D01*
X226731728Y-48210319D01*
X227509913Y-46858887D01*
X228778214Y-49067569D01*
X229055225Y-49549642D01*
X229312287Y-49996368D01*
X229542592Y-50395962D01*
X229739332Y-50736642D01*
X229895701Y-51006624D01*
X230004890Y-51194127D01*
X230060093Y-51287367D01*
X230065400Y-51295551D01*
X230100014Y-51246684D01*
X230190828Y-51099108D01*
X230331039Y-50864390D01*
X230513846Y-50554093D01*
X230732449Y-50179782D01*
X230980045Y-49753021D01*
X231249833Y-49285376D01*
X231344513Y-49120676D01*
X231621157Y-48640815D01*
X231878908Y-48197183D01*
X232110815Y-47801491D01*
X232309922Y-47465452D01*
X232469276Y-47200775D01*
X232581923Y-47019172D01*
X232640909Y-46932354D01*
X232647391Y-46926500D01*
X232687438Y-46979704D01*
X232783078Y-47131286D01*
X232927165Y-47369202D01*
X233112557Y-47681408D01*
X233332107Y-48055861D01*
X233578671Y-48480517D01*
X233845104Y-48943332D01*
X233881086Y-49006125D01*
X234151871Y-49478402D01*
X234405099Y-49919045D01*
X234633310Y-50315149D01*
X234829042Y-50653808D01*
X234984835Y-50922116D01*
X235093229Y-51107166D01*
X235146763Y-51196054D01*
X235148684Y-51198967D01*
X235174628Y-51216122D01*
X235213916Y-51198780D01*
X235272379Y-51137863D01*
X235355847Y-51024291D01*
X235470151Y-50848984D01*
X235621122Y-50602863D01*
X235814589Y-50276849D01*
X236056385Y-49861862D01*
X236352340Y-49348823D01*
X236484193Y-49119342D01*
X236760646Y-48639611D01*
X237018200Y-48196116D01*
X237249903Y-47800575D01*
X237448802Y-47464703D01*
X237607943Y-47200216D01*
X237720375Y-47018831D01*
X237779144Y-46932264D01*
X237785530Y-46926500D01*
X237825332Y-46979733D01*
X237921010Y-47131618D01*
X238065616Y-47370433D01*
X238252202Y-47684458D01*
X238473819Y-48061974D01*
X238723518Y-48491257D01*
X238994353Y-48960589D01*
X239085547Y-49119409D01*
X239361248Y-49597130D01*
X239618175Y-50036529D01*
X239849417Y-50426219D01*
X240048060Y-50754808D01*
X240207195Y-51010907D01*
X240319908Y-51183126D01*
X240379287Y-51260076D01*
X240386081Y-51262534D01*
X240426167Y-51198043D01*
X240522117Y-51035457D01*
X240666864Y-50786992D01*
X240853338Y-50464862D01*
X241074474Y-50081285D01*
X241323202Y-49648475D01*
X241592456Y-49178650D01*
X241654836Y-49069625D01*
X241927170Y-48595334D01*
X242180606Y-48157454D01*
X242408122Y-47767853D01*
X242602699Y-47438400D01*
X242757315Y-47180963D01*
X242864950Y-47007409D01*
X242918583Y-46929607D01*
X242922622Y-46926500D01*
X242962349Y-46979718D01*
X243058005Y-47131561D01*
X243202640Y-47370313D01*
X243389304Y-47684258D01*
X243611048Y-48061680D01*
X243860919Y-48490864D01*
X244131969Y-48960093D01*
X244223508Y-49119342D01*
X244542168Y-49673103D01*
X244804387Y-50125274D01*
X245016003Y-50484945D01*
X245182857Y-50761208D01*
X245310787Y-50963152D01*
X245405633Y-51099867D01*
X245473235Y-51180444D01*
X245519431Y-51213973D01*
X245550062Y-51209545D01*
X245559410Y-51198967D01*
X245607585Y-51119657D01*
X245711335Y-50943001D01*
X245863194Y-50681902D01*
X246055696Y-50349263D01*
X246281375Y-49957988D01*
X246532765Y-49520979D01*
X246802402Y-49051140D01*
X246828203Y-49006125D01*
X247096829Y-48539255D01*
X247346456Y-48108958D01*
X247569944Y-47727273D01*
X247760153Y-47406240D01*
X247909941Y-47157900D01*
X248012170Y-46994291D01*
X248059699Y-46927454D01*
X248061505Y-46926500D01*
X248101133Y-46979713D01*
X248196718Y-47131542D01*
X248341313Y-47370278D01*
X248527970Y-47684212D01*
X248749742Y-48061632D01*
X248999683Y-48490829D01*
X249270845Y-48960092D01*
X249363188Y-49120676D01*
X249638920Y-49599490D01*
X249894751Y-50041314D01*
X250123880Y-50434584D01*
X250319504Y-50767735D01*
X250474823Y-51029203D01*
X250583035Y-51207423D01*
X250637339Y-51290831D01*
X250642301Y-51295551D01*
X250676994Y-51238097D01*
X250768058Y-51082253D01*
X250908688Y-50839799D01*
X251092076Y-50522515D01*
X251311419Y-50142183D01*
X251559908Y-49710582D01*
X251830739Y-49239493D01*
X251929993Y-49066688D01*
X253198800Y-46857126D01*
X253976717Y-48209438D01*
X254361510Y-48878183D01*
X254687863Y-49444904D01*
X254960539Y-49917734D01*
X255184297Y-50304807D01*
X255363900Y-50614255D01*
X255504110Y-50854213D01*
X255609686Y-51032813D01*
X255685391Y-51158189D01*
X255735987Y-51238474D01*
X255766233Y-51281802D01*
X255780893Y-51296306D01*
X255783511Y-51295800D01*
X255817766Y-51238251D01*
X255908279Y-51082315D01*
X256048235Y-50839836D01*
X256230818Y-50522657D01*
X256449212Y-50142622D01*
X256696602Y-49711574D01*
X256966173Y-49241357D01*
X257055463Y-49085500D01*
X257330602Y-48605351D01*
X257585653Y-48160626D01*
X257813812Y-47763163D01*
X258008273Y-47424802D01*
X258162231Y-47157379D01*
X258268882Y-46972734D01*
X258321420Y-46882703D01*
X258325687Y-46875815D01*
X258359249Y-46925529D01*
X258449959Y-47075358D01*
X258591913Y-47315176D01*
X258779205Y-47634857D01*
X259005931Y-48024275D01*
X259266184Y-48473304D01*
X259554060Y-48971817D01*
X259863654Y-49509690D01*
X259992091Y-49733315D01*
X261643128Y-52609750D01*
X251019516Y-52625810D01*
X249639997Y-52627655D01*
X248152534Y-52629198D01*
X246576184Y-52630442D01*
X244930003Y-52631386D01*
X243233049Y-52632029D01*
X241504376Y-52632373D01*
X239763042Y-52632416D01*
X238028102Y-52632159D01*
G36*
X55011698Y-44243441D02*
G01*
X56721186Y-44243998D01*
X58386167Y-44244856D01*
X59987584Y-44246013D01*
X61506381Y-44247471D01*
X62923501Y-44249229D01*
X63309561Y-44249790D01*
X73975227Y-44265850D01*
X72324190Y-47142285D01*
X72007571Y-47693050D01*
X71710310Y-48208503D01*
X71438313Y-48678516D01*
X71197485Y-49092964D01*
X70993730Y-49441721D01*
X70832954Y-49714660D01*
X70721063Y-49901655D01*
X70663962Y-49992580D01*
X70657786Y-49999785D01*
X70623913Y-49942377D01*
X70533760Y-49786583D01*
X70394132Y-49544242D01*
X70211833Y-49227192D01*
X69993669Y-48847270D01*
X69746445Y-48416314D01*
X69476966Y-47946163D01*
X69387562Y-47790100D01*
X69112364Y-47309906D01*
X68857180Y-46865115D01*
X68628823Y-46467570D01*
X68434111Y-46129113D01*
X68279857Y-45861590D01*
X68172879Y-45676842D01*
X68119990Y-45586715D01*
X68115610Y-45579800D01*
X68106697Y-45583774D01*
X68085386Y-45611031D01*
X68046877Y-45669770D01*
X67986366Y-45768188D01*
X67899053Y-45914480D01*
X67780134Y-46116846D01*
X67624808Y-46383481D01*
X67428272Y-46722584D01*
X67185726Y-47142351D01*
X66892365Y-47650979D01*
X66543390Y-48256665D01*
X66308072Y-48665281D01*
X65529887Y-50016713D01*
X64261586Y-47808031D01*
X63984575Y-47325958D01*
X63727513Y-46879232D01*
X63497208Y-46479638D01*
X63300468Y-46138958D01*
X63144099Y-45868976D01*
X63034910Y-45681473D01*
X62979707Y-45588233D01*
X62974400Y-45580049D01*
X62939786Y-45628916D01*
X62848972Y-45776492D01*
X62708761Y-46011210D01*
X62525954Y-46321507D01*
X62307351Y-46695818D01*
X62059755Y-47122579D01*
X61789967Y-47590224D01*
X61695287Y-47754924D01*
X61418643Y-48234785D01*
X61160892Y-48678417D01*
X60928985Y-49074109D01*
X60729878Y-49410148D01*
X60570524Y-49674825D01*
X60457877Y-49856428D01*
X60398891Y-49943246D01*
X60392409Y-49949100D01*
X60352362Y-49895896D01*
X60256722Y-49744314D01*
X60112635Y-49506398D01*
X59927243Y-49194192D01*
X59707693Y-48819739D01*
X59461129Y-48395083D01*
X59194696Y-47932268D01*
X59158714Y-47869475D01*
X58887929Y-47397198D01*
X58634701Y-46956555D01*
X58406490Y-46560451D01*
X58210758Y-46221792D01*
X58054965Y-45953484D01*
X57946571Y-45768434D01*
X57893037Y-45679546D01*
X57891116Y-45676633D01*
X57865172Y-45659478D01*
X57825884Y-45676820D01*
X57767421Y-45737737D01*
X57683953Y-45851309D01*
X57569649Y-46026616D01*
X57418678Y-46272737D01*
X57225211Y-46598751D01*
X56983415Y-47013738D01*
X56687460Y-47526777D01*
X56555607Y-47756258D01*
X56279154Y-48235989D01*
X56021600Y-48679484D01*
X55789897Y-49075025D01*
X55590998Y-49410897D01*
X55431857Y-49675384D01*
X55319425Y-49856769D01*
X55260656Y-49943336D01*
X55254270Y-49949100D01*
X55214468Y-49895867D01*
X55118790Y-49743982D01*
X54974184Y-49505167D01*
X54787598Y-49191142D01*
X54565981Y-48813626D01*
X54316282Y-48384343D01*
X54045447Y-47915011D01*
X53954253Y-47756191D01*
X53678552Y-47278470D01*
X53421625Y-46839071D01*
X53190383Y-46449381D01*
X52991740Y-46120792D01*
X52832605Y-45864693D01*
X52719892Y-45692474D01*
X52660513Y-45615524D01*
X52653719Y-45613066D01*
X52613633Y-45677557D01*
X52517683Y-45840143D01*
X52372936Y-46088608D01*
X52186462Y-46410738D01*
X51965326Y-46794315D01*
X51716598Y-47227125D01*
X51447344Y-47696950D01*
X51384964Y-47805975D01*
X51112630Y-48280266D01*
X50859194Y-48718146D01*
X50631678Y-49107747D01*
X50437101Y-49437200D01*
X50282485Y-49694637D01*
X50174850Y-49868191D01*
X50121217Y-49945993D01*
X50117178Y-49949100D01*
X50077451Y-49895882D01*
X49981795Y-49744039D01*
X49837160Y-49505287D01*
X49650496Y-49191342D01*
X49428752Y-48813920D01*
X49178881Y-48384736D01*
X48907831Y-47915507D01*
X48816292Y-47756258D01*
X48497632Y-47202497D01*
X48235413Y-46750326D01*
X48023797Y-46390655D01*
X47856943Y-46114392D01*
X47729013Y-45912448D01*
X47634167Y-45775733D01*
X47566565Y-45695156D01*
X47520369Y-45661627D01*
X47489738Y-45666055D01*
X47480390Y-45676633D01*
X47432215Y-45755943D01*
X47328465Y-45932599D01*
X47176606Y-46193698D01*
X46984104Y-46526337D01*
X46758425Y-46917612D01*
X46507035Y-47354621D01*
X46237398Y-47824460D01*
X46211597Y-47869475D01*
X45942971Y-48336345D01*
X45693344Y-48766642D01*
X45469856Y-49148327D01*
X45279647Y-49469360D01*
X45129859Y-49717700D01*
X45027630Y-49881309D01*
X44980101Y-49948146D01*
X44978295Y-49949100D01*
X44938667Y-49895887D01*
X44843082Y-49744058D01*
X44698487Y-49505322D01*
X44511830Y-49191388D01*
X44290058Y-48813968D01*
X44040117Y-48384771D01*
X43768955Y-47915508D01*
X43676612Y-47754924D01*
X43400880Y-47276110D01*
X43145049Y-46834286D01*
X42915920Y-46441016D01*
X42720296Y-46107865D01*
X42564977Y-45846397D01*
X42456765Y-45668177D01*
X42402461Y-45584769D01*
X42397499Y-45580049D01*
X42362806Y-45637503D01*
X42271742Y-45793347D01*
X42131112Y-46035801D01*
X41947724Y-46353085D01*
X41728381Y-46733417D01*
X41479892Y-47165018D01*
X41209061Y-47636107D01*
X41109807Y-47808912D01*
X39841000Y-50018474D01*
X39063083Y-48666162D01*
X38678290Y-47997417D01*
X38351937Y-47430696D01*
X38079261Y-46957866D01*
X37855503Y-46570793D01*
X37675900Y-46261345D01*
X37535690Y-46021387D01*
X37430114Y-45842787D01*
X37354409Y-45717411D01*
X37303813Y-45637126D01*
X37273567Y-45593798D01*
X37258907Y-45579294D01*
X37256289Y-45579800D01*
X37222034Y-45637349D01*
X37131521Y-45793285D01*
X36991565Y-46035764D01*
X36808982Y-46352943D01*
X36590588Y-46732978D01*
X36343198Y-47164026D01*
X36073627Y-47634243D01*
X35984337Y-47790100D01*
X35709198Y-48270249D01*
X35454147Y-48714974D01*
X35225988Y-49112437D01*
X35031527Y-49450798D01*
X34877569Y-49718221D01*
X34770918Y-49902866D01*
X34718380Y-49992897D01*
X34714113Y-49999785D01*
X34680551Y-49950071D01*
X34589841Y-49800242D01*
X34447887Y-49560424D01*
X34260595Y-49240743D01*
X34033869Y-48851325D01*
X33773616Y-48402296D01*
X33485740Y-47903783D01*
X33176146Y-47365910D01*
X33047709Y-47142285D01*
X31396672Y-44265850D01*
X42020284Y-44249790D01*
X43399803Y-44247945D01*
X44887266Y-44246402D01*
X46463616Y-44245158D01*
X48109797Y-44244214D01*
X49806751Y-44243571D01*
X51535424Y-44243227D01*
X53276758Y-44243184D01*
X55011698Y-44243441D01*
X55011698Y-44243441D01*
G37*
X55011698Y-44243441D02*
X56721186Y-44243998D01*
X58386167Y-44244856D01*
X59987584Y-44246013D01*
X61506381Y-44247471D01*
X62923501Y-44249229D01*
X63309561Y-44249790D01*
X73975227Y-44265850D01*
X72324190Y-47142285D01*
X72007571Y-47693050D01*
X71710310Y-48208503D01*
X71438313Y-48678516D01*
X71197485Y-49092964D01*
X70993730Y-49441721D01*
X70832954Y-49714660D01*
X70721063Y-49901655D01*
X70663962Y-49992580D01*
X70657786Y-49999785D01*
X70623913Y-49942377D01*
X70533760Y-49786583D01*
X70394132Y-49544242D01*
X70211833Y-49227192D01*
X69993669Y-48847270D01*
X69746445Y-48416314D01*
X69476966Y-47946163D01*
X69387562Y-47790100D01*
X69112364Y-47309906D01*
X68857180Y-46865115D01*
X68628823Y-46467570D01*
X68434111Y-46129113D01*
X68279857Y-45861590D01*
X68172879Y-45676842D01*
X68119990Y-45586715D01*
X68115610Y-45579800D01*
X68106697Y-45583774D01*
X68085386Y-45611031D01*
X68046877Y-45669770D01*
X67986366Y-45768188D01*
X67899053Y-45914480D01*
X67780134Y-46116846D01*
X67624808Y-46383481D01*
X67428272Y-46722584D01*
X67185726Y-47142351D01*
X66892365Y-47650979D01*
X66543390Y-48256665D01*
X66308072Y-48665281D01*
X65529887Y-50016713D01*
X64261586Y-47808031D01*
X63984575Y-47325958D01*
X63727513Y-46879232D01*
X63497208Y-46479638D01*
X63300468Y-46138958D01*
X63144099Y-45868976D01*
X63034910Y-45681473D01*
X62979707Y-45588233D01*
X62974400Y-45580049D01*
X62939786Y-45628916D01*
X62848972Y-45776492D01*
X62708761Y-46011210D01*
X62525954Y-46321507D01*
X62307351Y-46695818D01*
X62059755Y-47122579D01*
X61789967Y-47590224D01*
X61695287Y-47754924D01*
X61418643Y-48234785D01*
X61160892Y-48678417D01*
X60928985Y-49074109D01*
X60729878Y-49410148D01*
X60570524Y-49674825D01*
X60457877Y-49856428D01*
X60398891Y-49943246D01*
X60392409Y-49949100D01*
X60352362Y-49895896D01*
X60256722Y-49744314D01*
X60112635Y-49506398D01*
X59927243Y-49194192D01*
X59707693Y-48819739D01*
X59461129Y-48395083D01*
X59194696Y-47932268D01*
X59158714Y-47869475D01*
X58887929Y-47397198D01*
X58634701Y-46956555D01*
X58406490Y-46560451D01*
X58210758Y-46221792D01*
X58054965Y-45953484D01*
X57946571Y-45768434D01*
X57893037Y-45679546D01*
X57891116Y-45676633D01*
X57865172Y-45659478D01*
X57825884Y-45676820D01*
X57767421Y-45737737D01*
X57683953Y-45851309D01*
X57569649Y-46026616D01*
X57418678Y-46272737D01*
X57225211Y-46598751D01*
X56983415Y-47013738D01*
X56687460Y-47526777D01*
X56555607Y-47756258D01*
X56279154Y-48235989D01*
X56021600Y-48679484D01*
X55789897Y-49075025D01*
X55590998Y-49410897D01*
X55431857Y-49675384D01*
X55319425Y-49856769D01*
X55260656Y-49943336D01*
X55254270Y-49949100D01*
X55214468Y-49895867D01*
X55118790Y-49743982D01*
X54974184Y-49505167D01*
X54787598Y-49191142D01*
X54565981Y-48813626D01*
X54316282Y-48384343D01*
X54045447Y-47915011D01*
X53954253Y-47756191D01*
X53678552Y-47278470D01*
X53421625Y-46839071D01*
X53190383Y-46449381D01*
X52991740Y-46120792D01*
X52832605Y-45864693D01*
X52719892Y-45692474D01*
X52660513Y-45615524D01*
X52653719Y-45613066D01*
X52613633Y-45677557D01*
X52517683Y-45840143D01*
X52372936Y-46088608D01*
X52186462Y-46410738D01*
X51965326Y-46794315D01*
X51716598Y-47227125D01*
X51447344Y-47696950D01*
X51384964Y-47805975D01*
X51112630Y-48280266D01*
X50859194Y-48718146D01*
X50631678Y-49107747D01*
X50437101Y-49437200D01*
X50282485Y-49694637D01*
X50174850Y-49868191D01*
X50121217Y-49945993D01*
X50117178Y-49949100D01*
X50077451Y-49895882D01*
X49981795Y-49744039D01*
X49837160Y-49505287D01*
X49650496Y-49191342D01*
X49428752Y-48813920D01*
X49178881Y-48384736D01*
X48907831Y-47915507D01*
X48816292Y-47756258D01*
X48497632Y-47202497D01*
X48235413Y-46750326D01*
X48023797Y-46390655D01*
X47856943Y-46114392D01*
X47729013Y-45912448D01*
X47634167Y-45775733D01*
X47566565Y-45695156D01*
X47520369Y-45661627D01*
X47489738Y-45666055D01*
X47480390Y-45676633D01*
X47432215Y-45755943D01*
X47328465Y-45932599D01*
X47176606Y-46193698D01*
X46984104Y-46526337D01*
X46758425Y-46917612D01*
X46507035Y-47354621D01*
X46237398Y-47824460D01*
X46211597Y-47869475D01*
X45942971Y-48336345D01*
X45693344Y-48766642D01*
X45469856Y-49148327D01*
X45279647Y-49469360D01*
X45129859Y-49717700D01*
X45027630Y-49881309D01*
X44980101Y-49948146D01*
X44978295Y-49949100D01*
X44938667Y-49895887D01*
X44843082Y-49744058D01*
X44698487Y-49505322D01*
X44511830Y-49191388D01*
X44290058Y-48813968D01*
X44040117Y-48384771D01*
X43768955Y-47915508D01*
X43676612Y-47754924D01*
X43400880Y-47276110D01*
X43145049Y-46834286D01*
X42915920Y-46441016D01*
X42720296Y-46107865D01*
X42564977Y-45846397D01*
X42456765Y-45668177D01*
X42402461Y-45584769D01*
X42397499Y-45580049D01*
X42362806Y-45637503D01*
X42271742Y-45793347D01*
X42131112Y-46035801D01*
X41947724Y-46353085D01*
X41728381Y-46733417D01*
X41479892Y-47165018D01*
X41209061Y-47636107D01*
X41109807Y-47808912D01*
X39841000Y-50018474D01*
X39063083Y-48666162D01*
X38678290Y-47997417D01*
X38351937Y-47430696D01*
X38079261Y-46957866D01*
X37855503Y-46570793D01*
X37675900Y-46261345D01*
X37535690Y-46021387D01*
X37430114Y-45842787D01*
X37354409Y-45717411D01*
X37303813Y-45637126D01*
X37273567Y-45593798D01*
X37258907Y-45579294D01*
X37256289Y-45579800D01*
X37222034Y-45637349D01*
X37131521Y-45793285D01*
X36991565Y-46035764D01*
X36808982Y-46352943D01*
X36590588Y-46732978D01*
X36343198Y-47164026D01*
X36073627Y-47634243D01*
X35984337Y-47790100D01*
X35709198Y-48270249D01*
X35454147Y-48714974D01*
X35225988Y-49112437D01*
X35031527Y-49450798D01*
X34877569Y-49718221D01*
X34770918Y-49902866D01*
X34718380Y-49992897D01*
X34714113Y-49999785D01*
X34680551Y-49950071D01*
X34589841Y-49800242D01*
X34447887Y-49560424D01*
X34260595Y-49240743D01*
X34033869Y-48851325D01*
X33773616Y-48402296D01*
X33485740Y-47903783D01*
X33176146Y-47365910D01*
X33047709Y-47142285D01*
X31396672Y-44265850D01*
X42020284Y-44249790D01*
X43399803Y-44247945D01*
X44887266Y-44246402D01*
X46463616Y-44245158D01*
X48109797Y-44244214D01*
X49806751Y-44243571D01*
X51535424Y-44243227D01*
X53276758Y-44243184D01*
X55011698Y-44243441D01*
D13*
X69203380Y-56016550D02*
X69203380Y-58986550D01*
X71203380Y-56006550D02*
X71193380Y-58996550D01*
X69203380Y-58996550D02*
X71193380Y-58996550D01*
X70213380Y-59206550D02*
X70213380Y-58086550D01*
X70213380Y-55746550D02*
X70213380Y-57026550D01*
X69203380Y-56006550D02*
X71203380Y-56006550D01*
X70213380Y-57136550D02*
X70753380Y-58086550D01*
X70203380Y-57146550D02*
X69673380Y-58056550D01*
X69673380Y-58086550D02*
X70753380Y-58086550D01*
X69673380Y-57036550D02*
X70753380Y-57036550D01*
X52286715Y-56016550D02*
X52286715Y-58986550D01*
X54286715Y-56006550D02*
X54276715Y-58996550D01*
X52286715Y-58996550D02*
X54276715Y-58996550D01*
X53296715Y-59206550D02*
X53296715Y-58086550D01*
X53296715Y-55746550D02*
X53296715Y-57026550D01*
X52286715Y-56006550D02*
X54286715Y-56006550D01*
X53296715Y-57136550D02*
X53836715Y-58086550D01*
X53286715Y-57146550D02*
X52756715Y-58056550D01*
X52756715Y-58086550D02*
X53836715Y-58086550D01*
X52756715Y-57036550D02*
X53836715Y-57036550D01*
X229587450Y-56016550D02*
X229587450Y-58986550D01*
X231587450Y-56006550D02*
X231577450Y-58996550D01*
X229587450Y-58996550D02*
X231577450Y-58996550D01*
X230597450Y-59206550D02*
X230597450Y-58086550D01*
X230597450Y-55746550D02*
X230597450Y-57026550D01*
X229587450Y-56006550D02*
X231587450Y-56006550D01*
X230597450Y-57136550D02*
X231137450Y-58086550D01*
X230587450Y-57146550D02*
X230057450Y-58056550D01*
X230057450Y-58086550D02*
X231137450Y-58086550D01*
X230057450Y-57036550D02*
X231137450Y-57036550D01*
X93250000Y-46352200D02*
X93250000Y-47852200D01*
X94500000Y-50352200D02*
X99000000Y-50352200D01*
X100250000Y-47852200D02*
X100250000Y-46352200D01*
X99000000Y-43852200D02*
X94500000Y-43852200D01*
X226087450Y-56016550D02*
X226087450Y-58986550D01*
X228087450Y-56006550D02*
X228077450Y-58996550D01*
X226087450Y-58996550D02*
X228077450Y-58996550D01*
X227097450Y-59206550D02*
X227097450Y-58086550D01*
X227097450Y-55746550D02*
X227097450Y-57026550D01*
X226087450Y-56006550D02*
X228087450Y-56006550D01*
X227097450Y-57136550D02*
X227637450Y-58086550D01*
X227087450Y-57146550D02*
X226557450Y-58056550D01*
X226557450Y-58086550D02*
X227637450Y-58086550D01*
X226557450Y-57036550D02*
X227637450Y-57036550D01*
X222587450Y-56016550D02*
X222587450Y-58986550D01*
X224587450Y-56006550D02*
X224577450Y-58996550D01*
X222587450Y-58996550D02*
X224577450Y-58996550D01*
X223597450Y-59206550D02*
X223597450Y-58086550D01*
X223597450Y-55746550D02*
X223597450Y-57026550D01*
X222587450Y-56006550D02*
X224587450Y-56006550D01*
X223597450Y-57136550D02*
X224137450Y-58086550D01*
X223587450Y-57146550D02*
X223057450Y-58056550D01*
X223057450Y-58086550D02*
X224137450Y-58086550D01*
X223057450Y-57036550D02*
X224137450Y-57036550D01*
X106420043Y-56016550D02*
X106420043Y-58986550D01*
X108420043Y-56006550D02*
X108410043Y-58996550D01*
X106420043Y-58996550D02*
X108410043Y-58996550D01*
X107430043Y-59206550D02*
X107430043Y-58086550D01*
X107430043Y-55746550D02*
X107430043Y-57026550D01*
X106420043Y-56006550D02*
X108420043Y-56006550D01*
X107430043Y-57136550D02*
X107970043Y-58086550D01*
X107420043Y-57146550D02*
X106890043Y-58056550D01*
X106890043Y-58086550D02*
X107970043Y-58086550D01*
X106890043Y-57036550D02*
X107970043Y-57036550D01*
X103036710Y-56016550D02*
X103036710Y-58986550D01*
X105036710Y-56006550D02*
X105026710Y-58996550D01*
X103036710Y-58996550D02*
X105026710Y-58996550D01*
X104046710Y-59206550D02*
X104046710Y-58086550D01*
X104046710Y-55746550D02*
X104046710Y-57026550D01*
X103036710Y-56006550D02*
X105036710Y-56006550D01*
X104046710Y-57136550D02*
X104586710Y-58086550D01*
X104036710Y-57146550D02*
X103506710Y-58056550D01*
X103506710Y-58086550D02*
X104586710Y-58086550D01*
X103506710Y-57036550D02*
X104586710Y-57036550D01*
X86120045Y-56016550D02*
X86120045Y-58986550D01*
X88120045Y-56006550D02*
X88110045Y-58996550D01*
X86120045Y-58996550D02*
X88110045Y-58996550D01*
X87130045Y-59206550D02*
X87130045Y-58086550D01*
X87130045Y-55746550D02*
X87130045Y-57026550D01*
X86120045Y-56006550D02*
X88120045Y-56006550D01*
X87130045Y-57136550D02*
X87670045Y-58086550D01*
X87120045Y-57146550D02*
X86590045Y-58056550D01*
X86590045Y-58086550D02*
X87670045Y-58086550D01*
X86590045Y-57036550D02*
X87670045Y-57036550D01*
X62436714Y-56016550D02*
X62436714Y-58986550D01*
X64436714Y-56006550D02*
X64426714Y-58996550D01*
X62436714Y-58996550D02*
X64426714Y-58996550D01*
X63446714Y-59206550D02*
X63446714Y-58086550D01*
X63446714Y-55746550D02*
X63446714Y-57026550D01*
X62436714Y-56006550D02*
X64436714Y-56006550D01*
X63446714Y-57136550D02*
X63986714Y-58086550D01*
X63436714Y-57146550D02*
X62906714Y-58056550D01*
X62906714Y-58086550D02*
X63986714Y-58086550D01*
X62906714Y-57036550D02*
X63986714Y-57036550D01*
X48903382Y-56016550D02*
X48903382Y-58986550D01*
X50903382Y-56006550D02*
X50893382Y-58996550D01*
X48903382Y-58996550D02*
X50893382Y-58996550D01*
X49913382Y-59206550D02*
X49913382Y-58086550D01*
X49913382Y-55746550D02*
X49913382Y-57026550D01*
X48903382Y-56006550D02*
X50903382Y-56006550D01*
X49913382Y-57136550D02*
X50453382Y-58086550D01*
X49903382Y-57146550D02*
X49373382Y-58056550D01*
X49373382Y-58086550D02*
X50453382Y-58086550D01*
X49373382Y-57036550D02*
X50453382Y-57036550D01*
X42136716Y-56016550D02*
X42136716Y-58986550D01*
X44136716Y-56006550D02*
X44126716Y-58996550D01*
X42136716Y-58996550D02*
X44126716Y-58996550D01*
X43146716Y-59206550D02*
X43146716Y-58086550D01*
X43146716Y-55746550D02*
X43146716Y-57026550D01*
X42136716Y-56006550D02*
X44136716Y-56006550D01*
X43146716Y-57136550D02*
X43686716Y-58086550D01*
X43136716Y-57146550D02*
X42606716Y-58056550D01*
X42606716Y-58086550D02*
X43686716Y-58086550D01*
X42606716Y-57036550D02*
X43686716Y-57036550D01*
X240087450Y-56016550D02*
X240087450Y-58986550D01*
X242087450Y-56006550D02*
X242077450Y-58996550D01*
X240087450Y-58996550D02*
X242077450Y-58996550D01*
X241097450Y-59206550D02*
X241097450Y-58086550D01*
X241097450Y-55746550D02*
X241097450Y-57026550D01*
X240087450Y-56006550D02*
X242087450Y-56006550D01*
X241097450Y-57136550D02*
X241637450Y-58086550D01*
X241087450Y-57146550D02*
X240557450Y-58056550D01*
X240557450Y-58086550D02*
X241637450Y-58086550D01*
X240557450Y-57036550D02*
X241637450Y-57036550D01*
X236587450Y-56016550D02*
X236587450Y-58986550D01*
X238587450Y-56006550D02*
X238577450Y-58996550D01*
X236587450Y-58996550D02*
X238577450Y-58996550D01*
X237597450Y-59206550D02*
X237597450Y-58086550D01*
X237597450Y-55746550D02*
X237597450Y-57026550D01*
X236587450Y-56006550D02*
X238587450Y-56006550D01*
X237597450Y-57136550D02*
X238137450Y-58086550D01*
X237587450Y-57146550D02*
X237057450Y-58056550D01*
X237057450Y-58086550D02*
X238137450Y-58086550D01*
X237057450Y-57036550D02*
X238137450Y-57036550D01*
X233087450Y-56016550D02*
X233087450Y-58986550D01*
X235087450Y-56006550D02*
X235077450Y-58996550D01*
X233087450Y-58996550D02*
X235077450Y-58996550D01*
X234097450Y-59206550D02*
X234097450Y-58086550D01*
X234097450Y-55746550D02*
X234097450Y-57026550D01*
X233087450Y-56006550D02*
X235087450Y-56006550D01*
X234097450Y-57136550D02*
X234637450Y-58086550D01*
X234087450Y-57146550D02*
X233557450Y-58056550D01*
X233557450Y-58086550D02*
X234637450Y-58086550D01*
X233557450Y-57036550D02*
X234637450Y-57036550D01*
X116570042Y-56016550D02*
X116570042Y-58986550D01*
X118570042Y-56006550D02*
X118560042Y-58996550D01*
X116570042Y-58996550D02*
X118560042Y-58996550D01*
X117580042Y-59206550D02*
X117580042Y-58086550D01*
X117580042Y-55746550D02*
X117580042Y-57026550D01*
X116570042Y-56006550D02*
X118570042Y-56006550D01*
X117580042Y-57136550D02*
X118120042Y-58086550D01*
X117570042Y-57146550D02*
X117040042Y-58056550D01*
X117040042Y-58086550D02*
X118120042Y-58086550D01*
X117040042Y-57036550D02*
X118120042Y-57036550D01*
X113186709Y-56016550D02*
X113186709Y-58986550D01*
X115186709Y-56006550D02*
X115176709Y-58996550D01*
X113186709Y-58996550D02*
X115176709Y-58996550D01*
X114196709Y-59206550D02*
X114196709Y-58086550D01*
X114196709Y-55746550D02*
X114196709Y-57026550D01*
X113186709Y-56006550D02*
X115186709Y-56006550D01*
X114196709Y-57136550D02*
X114736709Y-58086550D01*
X114186709Y-57146550D02*
X113656709Y-58056550D01*
X113656709Y-58086550D02*
X114736709Y-58086550D01*
X113656709Y-57036550D02*
X114736709Y-57036550D01*
X109803376Y-56016550D02*
X109803376Y-58986550D01*
X111803376Y-56006550D02*
X111793376Y-58996550D01*
X109803376Y-58996550D02*
X111793376Y-58996550D01*
X110813376Y-59206550D02*
X110813376Y-58086550D01*
X110813376Y-55746550D02*
X110813376Y-57026550D01*
X109803376Y-56006550D02*
X111803376Y-56006550D01*
X110813376Y-57136550D02*
X111353376Y-58086550D01*
X110803376Y-57146550D02*
X110273376Y-58056550D01*
X110273376Y-58086550D02*
X111353376Y-58086550D01*
X110273376Y-57036550D02*
X111353376Y-57036550D01*
X92886711Y-56016550D02*
X92886711Y-58986550D01*
X94886711Y-56006550D02*
X94876711Y-58996550D01*
X92886711Y-58996550D02*
X94876711Y-58996550D01*
X93896711Y-59206550D02*
X93896711Y-58086550D01*
X93896711Y-55746550D02*
X93896711Y-57026550D01*
X92886711Y-56006550D02*
X94886711Y-56006550D01*
X93896711Y-57136550D02*
X94436711Y-58086550D01*
X93886711Y-57146550D02*
X93356711Y-58056550D01*
X93356711Y-58086550D02*
X94436711Y-58086550D01*
X93356711Y-57036550D02*
X94436711Y-57036550D01*
X89503378Y-56016550D02*
X89503378Y-58986550D01*
X91503378Y-56006550D02*
X91493378Y-58996550D01*
X89503378Y-58996550D02*
X91493378Y-58996550D01*
X90513378Y-59206550D02*
X90513378Y-58086550D01*
X90513378Y-55746550D02*
X90513378Y-57026550D01*
X89503378Y-56006550D02*
X91503378Y-56006550D01*
X90513378Y-57136550D02*
X91053378Y-58086550D01*
X90503378Y-57146550D02*
X89973378Y-58056550D01*
X89973378Y-58086550D02*
X91053378Y-58086550D01*
X89973378Y-57036550D02*
X91053378Y-57036550D01*
X65820047Y-56016550D02*
X65820047Y-58986550D01*
X67820047Y-56006550D02*
X67810047Y-58996550D01*
X65820047Y-58996550D02*
X67810047Y-58996550D01*
X66830047Y-59206550D02*
X66830047Y-58086550D01*
X66830047Y-55746550D02*
X66830047Y-57026550D01*
X65820047Y-56006550D02*
X67820047Y-56006550D01*
X66830047Y-57136550D02*
X67370047Y-58086550D01*
X66820047Y-57146550D02*
X66290047Y-58056550D01*
X66290047Y-58086550D02*
X67370047Y-58086550D01*
X66290047Y-57036550D02*
X67370047Y-57036550D01*
X45520049Y-56016550D02*
X45520049Y-58986550D01*
X47520049Y-56006550D02*
X47510049Y-58996550D01*
X45520049Y-58996550D02*
X47510049Y-58996550D01*
X46530049Y-59206550D02*
X46530049Y-58086550D01*
X46530049Y-55746550D02*
X46530049Y-57026550D01*
X45520049Y-56006550D02*
X47520049Y-56006550D01*
X46530049Y-57136550D02*
X47070049Y-58086550D01*
X46520049Y-57146550D02*
X45990049Y-58056550D01*
X45990049Y-58086550D02*
X47070049Y-58086550D01*
X45990049Y-57036550D02*
X47070049Y-57036550D01*
X247087450Y-56016550D02*
X247087450Y-58986550D01*
X249087450Y-56006550D02*
X249077450Y-58996550D01*
X247087450Y-58996550D02*
X249077450Y-58996550D01*
X248097450Y-59206550D02*
X248097450Y-58086550D01*
X248097450Y-55746550D02*
X248097450Y-57026550D01*
X247087450Y-56006550D02*
X249087450Y-56006550D01*
X248097450Y-57136550D02*
X248637450Y-58086550D01*
X248087450Y-57146550D02*
X247557450Y-58056550D01*
X247557450Y-58086550D02*
X248637450Y-58086550D01*
X247557450Y-57036550D02*
X248637450Y-57036550D01*
X243587450Y-56016550D02*
X243587450Y-58986550D01*
X245587450Y-56006550D02*
X245577450Y-58996550D01*
X243587450Y-58996550D02*
X245577450Y-58996550D01*
X244597450Y-59206550D02*
X244597450Y-58086550D01*
X244597450Y-55746550D02*
X244597450Y-57026550D01*
X243587450Y-56006550D02*
X245587450Y-56006550D01*
X244597450Y-57136550D02*
X245137450Y-58086550D01*
X244587450Y-57146550D02*
X244057450Y-58056550D01*
X244057450Y-58086550D02*
X245137450Y-58086550D01*
X244057450Y-57036550D02*
X245137450Y-57036550D01*
X130103374Y-56016550D02*
X130103374Y-58986550D01*
X132103374Y-56006550D02*
X132093374Y-58996550D01*
X130103374Y-58996550D02*
X132093374Y-58996550D01*
X131113374Y-59206550D02*
X131113374Y-58086550D01*
X131113374Y-55746550D02*
X131113374Y-57026550D01*
X130103374Y-56006550D02*
X132103374Y-56006550D01*
X131113374Y-57136550D02*
X131653374Y-58086550D01*
X131103374Y-57146550D02*
X130573374Y-58056550D01*
X130573374Y-58086550D02*
X131653374Y-58086550D01*
X130573374Y-57036550D02*
X131653374Y-57036550D01*
X126720041Y-56016550D02*
X126720041Y-58986550D01*
X128720041Y-56006550D02*
X128710041Y-58996550D01*
X126720041Y-58996550D02*
X128710041Y-58996550D01*
X127730041Y-59206550D02*
X127730041Y-58086550D01*
X127730041Y-55746550D02*
X127730041Y-57026550D01*
X126720041Y-56006550D02*
X128720041Y-56006550D01*
X127730041Y-57136550D02*
X128270041Y-58086550D01*
X127720041Y-57146550D02*
X127190041Y-58056550D01*
X127190041Y-58086550D02*
X128270041Y-58086550D01*
X127190041Y-57036550D02*
X128270041Y-57036550D01*
X123336708Y-56016550D02*
X123336708Y-58986550D01*
X125336708Y-56006550D02*
X125326708Y-58996550D01*
X123336708Y-58996550D02*
X125326708Y-58996550D01*
X124346708Y-59206550D02*
X124346708Y-58086550D01*
X124346708Y-55746550D02*
X124346708Y-57026550D01*
X123336708Y-56006550D02*
X125336708Y-56006550D01*
X124346708Y-57136550D02*
X124886708Y-58086550D01*
X124336708Y-57146550D02*
X123806708Y-58056550D01*
X123806708Y-58086550D02*
X124886708Y-58086550D01*
X123806708Y-57036550D02*
X124886708Y-57036550D01*
X119953375Y-56016550D02*
X119953375Y-58986550D01*
X121953375Y-56006550D02*
X121943375Y-58996550D01*
X119953375Y-58996550D02*
X121943375Y-58996550D01*
X120963375Y-59206550D02*
X120963375Y-58086550D01*
X120963375Y-55746550D02*
X120963375Y-57026550D01*
X119953375Y-56006550D02*
X121953375Y-56006550D01*
X120963375Y-57136550D02*
X121503375Y-58086550D01*
X120953375Y-57146550D02*
X120423375Y-58056550D01*
X120423375Y-58086550D02*
X121503375Y-58086550D01*
X120423375Y-57036550D02*
X121503375Y-57036550D01*
X96270044Y-56016550D02*
X96270044Y-58986550D01*
X98270044Y-56006550D02*
X98260044Y-58996550D01*
X96270044Y-58996550D02*
X98260044Y-58996550D01*
X97280044Y-59206550D02*
X97280044Y-58086550D01*
X97280044Y-55746550D02*
X97280044Y-57026550D01*
X96270044Y-56006550D02*
X98270044Y-56006550D01*
X97280044Y-57136550D02*
X97820044Y-58086550D01*
X97270044Y-57146550D02*
X96740044Y-58056550D01*
X96740044Y-58086550D02*
X97820044Y-58086550D01*
X96740044Y-57036550D02*
X97820044Y-57036550D01*
X82736712Y-56016550D02*
X82736712Y-58986550D01*
X84736712Y-56006550D02*
X84726712Y-58996550D01*
X82736712Y-58996550D02*
X84726712Y-58996550D01*
X83746712Y-59206550D02*
X83746712Y-58086550D01*
X83746712Y-55746550D02*
X83746712Y-57026550D01*
X82736712Y-56006550D02*
X84736712Y-56006550D01*
X83746712Y-57136550D02*
X84286712Y-58086550D01*
X83736712Y-57146550D02*
X83206712Y-58056550D01*
X83206712Y-58086550D02*
X84286712Y-58086550D01*
X83206712Y-57036550D02*
X84286712Y-57036550D01*
X72586713Y-56016550D02*
X72586713Y-58986550D01*
X74586713Y-56006550D02*
X74576713Y-58996550D01*
X72586713Y-58996550D02*
X74576713Y-58996550D01*
X73596713Y-59206550D02*
X73596713Y-58086550D01*
X73596713Y-55746550D02*
X73596713Y-57026550D01*
X72586713Y-56006550D02*
X74586713Y-56006550D01*
X73596713Y-57136550D02*
X74136713Y-58086550D01*
X73586713Y-57146550D02*
X73056713Y-58056550D01*
X73056713Y-58086550D02*
X74136713Y-58086550D01*
X73056713Y-57036550D02*
X74136713Y-57036550D01*
X59053381Y-56016550D02*
X59053381Y-58986550D01*
X61053381Y-56006550D02*
X61043381Y-58996550D01*
X59053381Y-58996550D02*
X61043381Y-58996550D01*
X60063381Y-59206550D02*
X60063381Y-58086550D01*
X60063381Y-55746550D02*
X60063381Y-57026550D01*
X59053381Y-56006550D02*
X61053381Y-56006550D01*
X60063381Y-57136550D02*
X60603381Y-58086550D01*
X60053381Y-57146550D02*
X59523381Y-58056550D01*
X59523381Y-58086550D02*
X60603381Y-58086550D01*
X59523381Y-57036550D02*
X60603381Y-57036550D01*
X38753383Y-56016550D02*
X38753383Y-58986550D01*
X40753383Y-56006550D02*
X40743383Y-58996550D01*
X38753383Y-58996550D02*
X40743383Y-58996550D01*
X39763383Y-59206550D02*
X39763383Y-58086550D01*
X39763383Y-55746550D02*
X39763383Y-57026550D01*
X38753383Y-56006550D02*
X40753383Y-56006550D01*
X39763383Y-57136550D02*
X40303383Y-58086550D01*
X39753383Y-57146550D02*
X39223383Y-58056550D01*
X39223383Y-58086550D02*
X40303383Y-58086550D01*
X39223383Y-57036550D02*
X40303383Y-57036550D01*
X257587450Y-56016550D02*
X257587450Y-58986550D01*
X259587450Y-56006550D02*
X259577450Y-58996550D01*
X257587450Y-58996550D02*
X259577450Y-58996550D01*
X258597450Y-59206550D02*
X258597450Y-58086550D01*
X258597450Y-55746550D02*
X258597450Y-57026550D01*
X257587450Y-56006550D02*
X259587450Y-56006550D01*
X258597450Y-57136550D02*
X259137450Y-58086550D01*
X258587450Y-57146550D02*
X258057450Y-58056550D01*
X258057450Y-58086550D02*
X259137450Y-58086550D01*
X258057450Y-57036550D02*
X259137450Y-57036550D01*
X254087450Y-56016550D02*
X254087450Y-58986550D01*
X256087450Y-56006550D02*
X256077450Y-58996550D01*
X254087450Y-58996550D02*
X256077450Y-58996550D01*
X255097450Y-59206550D02*
X255097450Y-58086550D01*
X255097450Y-55746550D02*
X255097450Y-57026550D01*
X254087450Y-56006550D02*
X256087450Y-56006550D01*
X255097450Y-57136550D02*
X255637450Y-58086550D01*
X255087450Y-57146550D02*
X254557450Y-58056550D01*
X254557450Y-58086550D02*
X255637450Y-58086550D01*
X254557450Y-57036550D02*
X255637450Y-57036550D01*
X250587450Y-56016550D02*
X250587450Y-58986550D01*
X252587450Y-56006550D02*
X252577450Y-58996550D01*
X250587450Y-58996550D02*
X252577450Y-58996550D01*
X251597450Y-59206550D02*
X251597450Y-58086550D01*
X251597450Y-55746550D02*
X251597450Y-57026550D01*
X250587450Y-56006550D02*
X252587450Y-56006550D01*
X251597450Y-57136550D02*
X252137450Y-58086550D01*
X251587450Y-57146550D02*
X251057450Y-58056550D01*
X251057450Y-58086550D02*
X252137450Y-58086550D01*
X251057450Y-57036550D02*
X252137450Y-57036550D01*
X219087450Y-56016550D02*
X219087450Y-58986550D01*
X221087450Y-56006550D02*
X221077450Y-58996550D01*
X219087450Y-58996550D02*
X221077450Y-58996550D01*
X220097450Y-59206550D02*
X220097450Y-58086550D01*
X220097450Y-55746550D02*
X220097450Y-57026550D01*
X219087450Y-56006550D02*
X221087450Y-56006550D01*
X220097450Y-57136550D02*
X220637450Y-58086550D01*
X220087450Y-57146550D02*
X219557450Y-58056550D01*
X219557450Y-58086550D02*
X220637450Y-58086550D01*
X219557450Y-57036550D02*
X220637450Y-57036550D01*
X140253383Y-56016550D02*
X140253383Y-58986550D01*
X142253383Y-56006550D02*
X142243383Y-58996550D01*
X140253383Y-58996550D02*
X142243383Y-58996550D01*
X141263383Y-59206550D02*
X141263383Y-58086550D01*
X141263383Y-55746550D02*
X141263383Y-57026550D01*
X140253383Y-56006550D02*
X142253383Y-56006550D01*
X141263383Y-57136550D02*
X141803383Y-58086550D01*
X141253383Y-57146550D02*
X140723383Y-58056550D01*
X140723383Y-58086550D02*
X141803383Y-58086550D01*
X140723383Y-57036550D02*
X141803383Y-57036550D01*
X136870040Y-56016550D02*
X136870040Y-58986550D01*
X138870040Y-56006550D02*
X138860040Y-58996550D01*
X136870040Y-58996550D02*
X138860040Y-58996550D01*
X137880040Y-59206550D02*
X137880040Y-58086550D01*
X137880040Y-55746550D02*
X137880040Y-57026550D01*
X136870040Y-56006550D02*
X138870040Y-56006550D01*
X137880040Y-57136550D02*
X138420040Y-58086550D01*
X137870040Y-57146550D02*
X137340040Y-58056550D01*
X137340040Y-58086550D02*
X138420040Y-58086550D01*
X137340040Y-57036550D02*
X138420040Y-57036550D01*
X133486707Y-56016550D02*
X133486707Y-58986550D01*
X135486707Y-56006550D02*
X135476707Y-58996550D01*
X133486707Y-58996550D02*
X135476707Y-58996550D01*
X134496707Y-59206550D02*
X134496707Y-58086550D01*
X134496707Y-55746550D02*
X134496707Y-57026550D01*
X133486707Y-56006550D02*
X135486707Y-56006550D01*
X134496707Y-57136550D02*
X135036707Y-58086550D01*
X134486707Y-57146550D02*
X133956707Y-58056550D01*
X133956707Y-58086550D02*
X135036707Y-58086550D01*
X133956707Y-57036550D02*
X135036707Y-57036550D01*
X99653377Y-56016550D02*
X99653377Y-58986550D01*
X101653377Y-56006550D02*
X101643377Y-58996550D01*
X99653377Y-58996550D02*
X101643377Y-58996550D01*
X100663377Y-59206550D02*
X100663377Y-58086550D01*
X100663377Y-55746550D02*
X100663377Y-57026550D01*
X99653377Y-56006550D02*
X101653377Y-56006550D01*
X100663377Y-57136550D02*
X101203377Y-58086550D01*
X100653377Y-57146550D02*
X100123377Y-58056550D01*
X100123377Y-58086550D02*
X101203377Y-58086550D01*
X100123377Y-57036550D02*
X101203377Y-57036550D01*
X79353379Y-56016550D02*
X79353379Y-58986550D01*
X81353379Y-56006550D02*
X81343379Y-58996550D01*
X79353379Y-58996550D02*
X81343379Y-58996550D01*
X80363379Y-59206550D02*
X80363379Y-58086550D01*
X80363379Y-55746550D02*
X80363379Y-57026550D01*
X79353379Y-56006550D02*
X81353379Y-56006550D01*
X80363379Y-57136550D02*
X80903379Y-58086550D01*
X80353379Y-57146550D02*
X79823379Y-58056550D01*
X79823379Y-58086550D02*
X80903379Y-58086550D01*
X79823379Y-57036550D02*
X80903379Y-57036550D01*
X75970046Y-56016550D02*
X75970046Y-58986550D01*
X77970046Y-56006550D02*
X77960046Y-58996550D01*
X75970046Y-58996550D02*
X77960046Y-58996550D01*
X76980046Y-59206550D02*
X76980046Y-58086550D01*
X76980046Y-55746550D02*
X76980046Y-57026550D01*
X75970046Y-56006550D02*
X77970046Y-56006550D01*
X76980046Y-57136550D02*
X77520046Y-58086550D01*
X76970046Y-57146550D02*
X76440046Y-58056550D01*
X76440046Y-58086550D02*
X77520046Y-58086550D01*
X76440046Y-57036550D02*
X77520046Y-57036550D01*
X55670048Y-56016550D02*
X55670048Y-58986550D01*
X57670048Y-56006550D02*
X57660048Y-58996550D01*
X55670048Y-58996550D02*
X57660048Y-58996550D01*
X56680048Y-59206550D02*
X56680048Y-58086550D01*
X56680048Y-55746550D02*
X56680048Y-57026550D01*
X55670048Y-56006550D02*
X57670048Y-56006550D01*
X56680048Y-57136550D02*
X57220048Y-58086550D01*
X56670048Y-57146550D02*
X56140048Y-58056550D01*
X56140048Y-58086550D02*
X57220048Y-58086550D01*
X56140048Y-57036550D02*
X57220048Y-57036550D01*
X35370050Y-56016550D02*
X35370050Y-58986550D01*
X37370050Y-56006550D02*
X37360050Y-58996550D01*
X35370050Y-58996550D02*
X37360050Y-58996550D01*
X36380050Y-59206550D02*
X36380050Y-58086550D01*
X36380050Y-55746550D02*
X36380050Y-57026550D01*
X35370050Y-56006550D02*
X37370050Y-56006550D01*
X36380050Y-57136550D02*
X36920050Y-58086550D01*
X36370050Y-57146550D02*
X35840050Y-58056550D01*
X35840050Y-58086550D02*
X36920050Y-58086550D01*
X35840050Y-57036550D02*
X36920050Y-57036550D01*
D14*
X151998580Y-58189095D02*
X151998580Y-57617666D01*
X152998580Y-57903380D02*
X151998580Y-57903380D01*
X151998580Y-57379571D02*
X152998580Y-56712904D01*
X151998580Y-56712904D02*
X152998580Y-57379571D01*
X151998580Y-56141476D02*
X151998580Y-56046238D01*
X152046200Y-55951000D01*
X152093819Y-55903380D01*
X152189057Y-55855761D01*
X152379533Y-55808142D01*
X152617628Y-55808142D01*
X152808104Y-55855761D01*
X152903342Y-55903380D01*
X152950961Y-55951000D01*
X152998580Y-56046238D01*
X152998580Y-56141476D01*
X152950961Y-56236714D01*
X152903342Y-56284333D01*
X152808104Y-56331952D01*
X152617628Y-56379571D01*
X152379533Y-56379571D01*
X152189057Y-56331952D01*
X152093819Y-56284333D01*
X152046200Y-56236714D01*
X151998580Y-56141476D01*
X152998580Y-48541476D02*
X152522390Y-48874809D01*
X152998580Y-49112904D02*
X151998580Y-49112904D01*
X151998580Y-48731952D01*
X152046200Y-48636714D01*
X152093819Y-48589095D01*
X152189057Y-48541476D01*
X152331914Y-48541476D01*
X152427152Y-48589095D01*
X152474771Y-48636714D01*
X152522390Y-48731952D01*
X152522390Y-49112904D01*
X152712866Y-48160523D02*
X152712866Y-47684333D01*
X152998580Y-48255761D02*
X151998580Y-47922428D01*
X152998580Y-47589095D01*
X151998580Y-47351000D02*
X152998580Y-47112904D01*
X152284295Y-46922428D01*
X152998580Y-46731952D01*
X151998580Y-46493857D01*
X70565284Y-63417978D02*
X69765284Y-63417978D01*
X69765284Y-63227502D01*
X69803380Y-63113216D01*
X69879570Y-63037026D01*
X69955760Y-62998930D01*
X70108141Y-62960835D01*
X70222427Y-62960835D01*
X70374808Y-62998930D01*
X70450999Y-63037026D01*
X70527189Y-63113216D01*
X70565284Y-63227502D01*
X70565284Y-63417978D01*
X69841475Y-62656073D02*
X69803380Y-62617978D01*
X69765284Y-62541788D01*
X69765284Y-62351311D01*
X69803380Y-62275121D01*
X69841475Y-62237026D01*
X69917665Y-62198930D01*
X69993856Y-62198930D01*
X70108141Y-62237026D01*
X70565284Y-62694169D01*
X70565284Y-62198930D01*
X69765284Y-61475121D02*
X69765284Y-61856073D01*
X70146237Y-61894169D01*
X70108141Y-61856073D01*
X70070046Y-61779883D01*
X70070046Y-61589407D01*
X70108141Y-61513216D01*
X70146237Y-61475121D01*
X70222427Y-61437026D01*
X70412903Y-61437026D01*
X70489094Y-61475121D01*
X70527189Y-61513216D01*
X70565284Y-61589407D01*
X70565284Y-61779883D01*
X70527189Y-61856073D01*
X70489094Y-61894169D01*
X53648619Y-63417978D02*
X52848619Y-63417978D01*
X52848619Y-63227502D01*
X52886715Y-63113216D01*
X52962905Y-63037026D01*
X53039095Y-62998930D01*
X53191476Y-62960835D01*
X53305762Y-62960835D01*
X53458143Y-62998930D01*
X53534334Y-63037026D01*
X53610524Y-63113216D01*
X53648619Y-63227502D01*
X53648619Y-63417978D01*
X53115286Y-62275121D02*
X53648619Y-62275121D01*
X52810524Y-62465597D02*
X53381953Y-62656073D01*
X53381953Y-62160835D01*
X52848619Y-61932264D02*
X52848619Y-61398930D01*
X53648619Y-61741788D01*
X230949354Y-63417978D02*
X230149354Y-63417978D01*
X230149354Y-63227502D01*
X230187450Y-63113216D01*
X230263640Y-63037026D01*
X230339830Y-62998930D01*
X230492211Y-62960835D01*
X230606497Y-62960835D01*
X230758878Y-62998930D01*
X230835069Y-63037026D01*
X230911259Y-63113216D01*
X230949354Y-63227502D01*
X230949354Y-63417978D01*
X230416021Y-62275121D02*
X230949354Y-62275121D01*
X230111259Y-62465597D02*
X230682688Y-62656073D01*
X230682688Y-62160835D01*
X230416021Y-61513216D02*
X230949354Y-61513216D01*
X230111259Y-61703692D02*
X230682688Y-61894169D01*
X230682688Y-61398930D01*
D10*
X144481740Y-135392124D02*
X144291264Y-135392124D01*
X144196026Y-135439744D01*
X144148407Y-135487363D01*
X144053169Y-135630220D01*
X144005550Y-135820696D01*
X144005550Y-136201648D01*
X144053169Y-136296886D01*
X144100788Y-136344505D01*
X144196026Y-136392124D01*
X144386502Y-136392124D01*
X144481740Y-136344505D01*
X144529359Y-136296886D01*
X144576978Y-136201648D01*
X144576978Y-135963553D01*
X144529359Y-135868315D01*
X144481740Y-135820696D01*
X144386502Y-135773077D01*
X144196026Y-135773077D01*
X144100788Y-135820696D01*
X144053169Y-135868315D01*
X144005550Y-135963553D01*
X145005550Y-136296886D02*
X145053169Y-136344505D01*
X145005550Y-136392124D01*
X144957930Y-136344505D01*
X145005550Y-136296886D01*
X145005550Y-136392124D01*
X145434121Y-135487363D02*
X145481740Y-135439744D01*
X145576978Y-135392124D01*
X145815073Y-135392124D01*
X145910311Y-135439744D01*
X145957930Y-135487363D01*
X146005550Y-135582601D01*
X146005550Y-135677839D01*
X145957930Y-135820696D01*
X145386502Y-136392124D01*
X146005550Y-136392124D01*
X146910311Y-135392124D02*
X146434121Y-135392124D01*
X146386502Y-135868315D01*
X146434121Y-135820696D01*
X146529359Y-135773077D01*
X146767454Y-135773077D01*
X146862692Y-135820696D01*
X146910311Y-135868315D01*
X146957930Y-135963553D01*
X146957930Y-136201648D01*
X146910311Y-136296886D01*
X146862692Y-136344505D01*
X146767454Y-136392124D01*
X146529359Y-136392124D01*
X146434121Y-136344505D01*
X146386502Y-136296886D01*
X147386502Y-135392124D02*
X147386502Y-136201648D01*
X147434121Y-136296886D01*
X147481740Y-136344505D01*
X147576978Y-136392124D01*
X147767454Y-136392124D01*
X147862692Y-136344505D01*
X147910311Y-136296886D01*
X147957930Y-136201648D01*
X147957930Y-135392124D01*
D14*
X95381421Y-43276780D02*
X95048087Y-42800590D01*
X94809992Y-43276780D02*
X94809992Y-42276780D01*
X95190944Y-42276780D01*
X95286182Y-42324400D01*
X95333802Y-42372019D01*
X95381421Y-42467257D01*
X95381421Y-42610114D01*
X95333802Y-42705352D01*
X95286182Y-42752971D01*
X95190944Y-42800590D01*
X94809992Y-42800590D01*
X95809992Y-42752971D02*
X96143325Y-42752971D01*
X96286182Y-43276780D02*
X95809992Y-43276780D01*
X95809992Y-42276780D01*
X96286182Y-42276780D01*
X96667135Y-43229161D02*
X96809992Y-43276780D01*
X97048087Y-43276780D01*
X97143325Y-43229161D01*
X97190944Y-43181542D01*
X97238563Y-43086304D01*
X97238563Y-42991066D01*
X97190944Y-42895828D01*
X97143325Y-42848209D01*
X97048087Y-42800590D01*
X96857611Y-42752971D01*
X96762373Y-42705352D01*
X96714754Y-42657733D01*
X96667135Y-42562495D01*
X96667135Y-42467257D01*
X96714754Y-42372019D01*
X96762373Y-42324400D01*
X96857611Y-42276780D01*
X97095706Y-42276780D01*
X97238563Y-42324400D01*
X97667135Y-42752971D02*
X98000468Y-42752971D01*
X98143325Y-43276780D02*
X97667135Y-43276780D01*
X97667135Y-42276780D01*
X98143325Y-42276780D01*
X98429040Y-42276780D02*
X99000468Y-42276780D01*
X98714754Y-43276780D02*
X98714754Y-42276780D01*
X227449354Y-63417978D02*
X226649354Y-63417978D01*
X226649354Y-63227502D01*
X226687450Y-63113216D01*
X226763640Y-63037026D01*
X226839830Y-62998930D01*
X226992211Y-62960835D01*
X227106497Y-62960835D01*
X227258878Y-62998930D01*
X227335069Y-63037026D01*
X227411259Y-63113216D01*
X227449354Y-63227502D01*
X227449354Y-63417978D01*
X226916021Y-62275121D02*
X227449354Y-62275121D01*
X226611259Y-62465597D02*
X227182688Y-62656073D01*
X227182688Y-62160835D01*
X226649354Y-61932264D02*
X226649354Y-61437026D01*
X226954116Y-61703692D01*
X226954116Y-61589407D01*
X226992211Y-61513216D01*
X227030307Y-61475121D01*
X227106497Y-61437026D01*
X227296973Y-61437026D01*
X227373164Y-61475121D01*
X227411259Y-61513216D01*
X227449354Y-61589407D01*
X227449354Y-61817978D01*
X227411259Y-61894169D01*
X227373164Y-61932264D01*
X223949354Y-63417978D02*
X223149354Y-63417978D01*
X223149354Y-63227502D01*
X223187450Y-63113216D01*
X223263640Y-63037026D01*
X223339830Y-62998930D01*
X223492211Y-62960835D01*
X223606497Y-62960835D01*
X223758878Y-62998930D01*
X223835069Y-63037026D01*
X223911259Y-63113216D01*
X223949354Y-63227502D01*
X223949354Y-63417978D01*
X223416021Y-62275121D02*
X223949354Y-62275121D01*
X223111259Y-62465597D02*
X223682688Y-62656073D01*
X223682688Y-62160835D01*
X223225545Y-61894169D02*
X223187450Y-61856073D01*
X223149354Y-61779883D01*
X223149354Y-61589407D01*
X223187450Y-61513216D01*
X223225545Y-61475121D01*
X223301735Y-61437026D01*
X223377926Y-61437026D01*
X223492211Y-61475121D01*
X223949354Y-61932264D01*
X223949354Y-61437026D01*
X107781947Y-63417978D02*
X106981947Y-63417978D01*
X106981947Y-63227502D01*
X107020043Y-63113216D01*
X107096233Y-63037026D01*
X107172423Y-62998930D01*
X107324804Y-62960835D01*
X107439090Y-62960835D01*
X107591471Y-62998930D01*
X107667662Y-63037026D01*
X107743852Y-63113216D01*
X107781947Y-63227502D01*
X107781947Y-63417978D01*
X107248614Y-62275121D02*
X107781947Y-62275121D01*
X106943852Y-62465597D02*
X107515281Y-62656073D01*
X107515281Y-62160835D01*
X107781947Y-61437026D02*
X107781947Y-61894169D01*
X107781947Y-61665597D02*
X106981947Y-61665597D01*
X107096233Y-61741788D01*
X107172423Y-61817978D01*
X107210519Y-61894169D01*
X104398614Y-63417978D02*
X103598614Y-63417978D01*
X103598614Y-63227502D01*
X103636710Y-63113216D01*
X103712900Y-63037026D01*
X103789090Y-62998930D01*
X103941471Y-62960835D01*
X104055757Y-62960835D01*
X104208138Y-62998930D01*
X104284329Y-63037026D01*
X104360519Y-63113216D01*
X104398614Y-63227502D01*
X104398614Y-63417978D01*
X103865281Y-62275121D02*
X104398614Y-62275121D01*
X103560519Y-62465597D02*
X104131948Y-62656073D01*
X104131948Y-62160835D01*
X103598614Y-61703692D02*
X103598614Y-61627502D01*
X103636710Y-61551311D01*
X103674805Y-61513216D01*
X103750995Y-61475121D01*
X103903376Y-61437026D01*
X104093852Y-61437026D01*
X104246233Y-61475121D01*
X104322424Y-61513216D01*
X104360519Y-61551311D01*
X104398614Y-61627502D01*
X104398614Y-61703692D01*
X104360519Y-61779883D01*
X104322424Y-61817978D01*
X104246233Y-61856073D01*
X104093852Y-61894169D01*
X103903376Y-61894169D01*
X103750995Y-61856073D01*
X103674805Y-61817978D01*
X103636710Y-61779883D01*
X103598614Y-61703692D01*
X87481949Y-63417978D02*
X86681949Y-63417978D01*
X86681949Y-63227502D01*
X86720045Y-63113216D01*
X86796235Y-63037026D01*
X86872425Y-62998930D01*
X87024806Y-62960835D01*
X87139092Y-62960835D01*
X87291473Y-62998930D01*
X87367664Y-63037026D01*
X87443854Y-63113216D01*
X87481949Y-63227502D01*
X87481949Y-63417978D01*
X86681949Y-62694169D02*
X86681949Y-62198930D01*
X86986711Y-62465597D01*
X86986711Y-62351311D01*
X87024806Y-62275121D01*
X87062902Y-62237026D01*
X87139092Y-62198930D01*
X87329568Y-62198930D01*
X87405759Y-62237026D01*
X87443854Y-62275121D01*
X87481949Y-62351311D01*
X87481949Y-62579883D01*
X87443854Y-62656073D01*
X87405759Y-62694169D01*
X87024806Y-61741788D02*
X86986711Y-61817978D01*
X86948616Y-61856073D01*
X86872425Y-61894169D01*
X86834330Y-61894169D01*
X86758140Y-61856073D01*
X86720045Y-61817978D01*
X86681949Y-61741788D01*
X86681949Y-61589407D01*
X86720045Y-61513216D01*
X86758140Y-61475121D01*
X86834330Y-61437026D01*
X86872425Y-61437026D01*
X86948616Y-61475121D01*
X86986711Y-61513216D01*
X87024806Y-61589407D01*
X87024806Y-61741788D01*
X87062902Y-61817978D01*
X87100997Y-61856073D01*
X87177187Y-61894169D01*
X87329568Y-61894169D01*
X87405759Y-61856073D01*
X87443854Y-61817978D01*
X87481949Y-61741788D01*
X87481949Y-61589407D01*
X87443854Y-61513216D01*
X87405759Y-61475121D01*
X87329568Y-61437026D01*
X87177187Y-61437026D01*
X87100997Y-61475121D01*
X87062902Y-61513216D01*
X87024806Y-61589407D01*
X63798618Y-63417978D02*
X62998618Y-63417978D01*
X62998618Y-63227502D01*
X63036714Y-63113216D01*
X63112904Y-63037026D01*
X63189094Y-62998930D01*
X63341475Y-62960835D01*
X63455761Y-62960835D01*
X63608142Y-62998930D01*
X63684333Y-63037026D01*
X63760523Y-63113216D01*
X63798618Y-63227502D01*
X63798618Y-63417978D01*
X62998618Y-62694169D02*
X62998618Y-62198930D01*
X63303380Y-62465597D01*
X63303380Y-62351311D01*
X63341475Y-62275121D01*
X63379571Y-62237026D01*
X63455761Y-62198930D01*
X63646237Y-62198930D01*
X63722428Y-62237026D01*
X63760523Y-62275121D01*
X63798618Y-62351311D01*
X63798618Y-62579883D01*
X63760523Y-62656073D01*
X63722428Y-62694169D01*
X62998618Y-61513216D02*
X62998618Y-61665597D01*
X63036714Y-61741788D01*
X63074809Y-61779883D01*
X63189094Y-61856073D01*
X63341475Y-61894169D01*
X63646237Y-61894169D01*
X63722428Y-61856073D01*
X63760523Y-61817978D01*
X63798618Y-61741788D01*
X63798618Y-61589407D01*
X63760523Y-61513216D01*
X63722428Y-61475121D01*
X63646237Y-61437026D01*
X63455761Y-61437026D01*
X63379571Y-61475121D01*
X63341475Y-61513216D01*
X63303380Y-61589407D01*
X63303380Y-61741788D01*
X63341475Y-61817978D01*
X63379571Y-61856073D01*
X63455761Y-61894169D01*
X50265286Y-63417978D02*
X49465286Y-63417978D01*
X49465286Y-63227502D01*
X49503382Y-63113216D01*
X49579572Y-63037026D01*
X49655762Y-62998930D01*
X49808143Y-62960835D01*
X49922429Y-62960835D01*
X50074810Y-62998930D01*
X50151001Y-63037026D01*
X50227191Y-63113216D01*
X50265286Y-63227502D01*
X50265286Y-63417978D01*
X49465286Y-62694169D02*
X49465286Y-62198930D01*
X49770048Y-62465597D01*
X49770048Y-62351311D01*
X49808143Y-62275121D01*
X49846239Y-62237026D01*
X49922429Y-62198930D01*
X50112905Y-62198930D01*
X50189096Y-62237026D01*
X50227191Y-62275121D01*
X50265286Y-62351311D01*
X50265286Y-62579883D01*
X50227191Y-62656073D01*
X50189096Y-62694169D01*
X49465286Y-61475121D02*
X49465286Y-61856073D01*
X49846239Y-61894169D01*
X49808143Y-61856073D01*
X49770048Y-61779883D01*
X49770048Y-61589407D01*
X49808143Y-61513216D01*
X49846239Y-61475121D01*
X49922429Y-61437026D01*
X50112905Y-61437026D01*
X50189096Y-61475121D01*
X50227191Y-61513216D01*
X50265286Y-61589407D01*
X50265286Y-61779883D01*
X50227191Y-61856073D01*
X50189096Y-61894169D01*
X43498620Y-63417978D02*
X42698620Y-63417978D01*
X42698620Y-63227502D01*
X42736716Y-63113216D01*
X42812906Y-63037026D01*
X42889096Y-62998930D01*
X43041477Y-62960835D01*
X43155763Y-62960835D01*
X43308144Y-62998930D01*
X43384335Y-63037026D01*
X43460525Y-63113216D01*
X43498620Y-63227502D01*
X43498620Y-63417978D01*
X42698620Y-62694169D02*
X42698620Y-62198930D01*
X43003382Y-62465597D01*
X43003382Y-62351311D01*
X43041477Y-62275121D01*
X43079573Y-62237026D01*
X43155763Y-62198930D01*
X43346239Y-62198930D01*
X43422430Y-62237026D01*
X43460525Y-62275121D01*
X43498620Y-62351311D01*
X43498620Y-62579883D01*
X43460525Y-62656073D01*
X43422430Y-62694169D01*
X42965287Y-61513216D02*
X43498620Y-61513216D01*
X42660525Y-61703692D02*
X43231954Y-61894169D01*
X43231954Y-61398930D01*
X241449354Y-63417978D02*
X240649354Y-63417978D01*
X240649354Y-63227502D01*
X240687450Y-63113216D01*
X240763640Y-63037026D01*
X240839830Y-62998930D01*
X240992211Y-62960835D01*
X241106497Y-62960835D01*
X241258878Y-62998930D01*
X241335069Y-63037026D01*
X241411259Y-63113216D01*
X241449354Y-63227502D01*
X241449354Y-63417978D01*
X240649354Y-62694169D02*
X240649354Y-62198930D01*
X240954116Y-62465597D01*
X240954116Y-62351311D01*
X240992211Y-62275121D01*
X241030307Y-62237026D01*
X241106497Y-62198930D01*
X241296973Y-62198930D01*
X241373164Y-62237026D01*
X241411259Y-62275121D01*
X241449354Y-62351311D01*
X241449354Y-62579883D01*
X241411259Y-62656073D01*
X241373164Y-62694169D01*
X240649354Y-61932264D02*
X240649354Y-61437026D01*
X240954116Y-61703692D01*
X240954116Y-61589407D01*
X240992211Y-61513216D01*
X241030307Y-61475121D01*
X241106497Y-61437026D01*
X241296973Y-61437026D01*
X241373164Y-61475121D01*
X241411259Y-61513216D01*
X241449354Y-61589407D01*
X241449354Y-61817978D01*
X241411259Y-61894169D01*
X241373164Y-61932264D01*
X237949354Y-63417978D02*
X237149354Y-63417978D01*
X237149354Y-63227502D01*
X237187450Y-63113216D01*
X237263640Y-63037026D01*
X237339830Y-62998930D01*
X237492211Y-62960835D01*
X237606497Y-62960835D01*
X237758878Y-62998930D01*
X237835069Y-63037026D01*
X237911259Y-63113216D01*
X237949354Y-63227502D01*
X237949354Y-63417978D01*
X237149354Y-62694169D02*
X237149354Y-62198930D01*
X237454116Y-62465597D01*
X237454116Y-62351311D01*
X237492211Y-62275121D01*
X237530307Y-62237026D01*
X237606497Y-62198930D01*
X237796973Y-62198930D01*
X237873164Y-62237026D01*
X237911259Y-62275121D01*
X237949354Y-62351311D01*
X237949354Y-62579883D01*
X237911259Y-62656073D01*
X237873164Y-62694169D01*
X237225545Y-61894169D02*
X237187450Y-61856073D01*
X237149354Y-61779883D01*
X237149354Y-61589407D01*
X237187450Y-61513216D01*
X237225545Y-61475121D01*
X237301735Y-61437026D01*
X237377926Y-61437026D01*
X237492211Y-61475121D01*
X237949354Y-61932264D01*
X237949354Y-61437026D01*
X234449354Y-63417978D02*
X233649354Y-63417978D01*
X233649354Y-63227502D01*
X233687450Y-63113216D01*
X233763640Y-63037026D01*
X233839830Y-62998930D01*
X233992211Y-62960835D01*
X234106497Y-62960835D01*
X234258878Y-62998930D01*
X234335069Y-63037026D01*
X234411259Y-63113216D01*
X234449354Y-63227502D01*
X234449354Y-63417978D01*
X233649354Y-62694169D02*
X233649354Y-62198930D01*
X233954116Y-62465597D01*
X233954116Y-62351311D01*
X233992211Y-62275121D01*
X234030307Y-62237026D01*
X234106497Y-62198930D01*
X234296973Y-62198930D01*
X234373164Y-62237026D01*
X234411259Y-62275121D01*
X234449354Y-62351311D01*
X234449354Y-62579883D01*
X234411259Y-62656073D01*
X234373164Y-62694169D01*
X234449354Y-61437026D02*
X234449354Y-61894169D01*
X234449354Y-61665597D02*
X233649354Y-61665597D01*
X233763640Y-61741788D01*
X233839830Y-61817978D01*
X233877926Y-61894169D01*
X117931946Y-63417978D02*
X117131946Y-63417978D01*
X117131946Y-63227502D01*
X117170042Y-63113216D01*
X117246232Y-63037026D01*
X117322422Y-62998930D01*
X117474803Y-62960835D01*
X117589089Y-62960835D01*
X117741470Y-62998930D01*
X117817661Y-63037026D01*
X117893851Y-63113216D01*
X117931946Y-63227502D01*
X117931946Y-63417978D01*
X117131946Y-62694169D02*
X117131946Y-62198930D01*
X117436708Y-62465597D01*
X117436708Y-62351311D01*
X117474803Y-62275121D01*
X117512899Y-62237026D01*
X117589089Y-62198930D01*
X117779565Y-62198930D01*
X117855756Y-62237026D01*
X117893851Y-62275121D01*
X117931946Y-62351311D01*
X117931946Y-62579883D01*
X117893851Y-62656073D01*
X117855756Y-62694169D01*
X117131946Y-61703692D02*
X117131946Y-61627502D01*
X117170042Y-61551311D01*
X117208137Y-61513216D01*
X117284327Y-61475121D01*
X117436708Y-61437026D01*
X117627184Y-61437026D01*
X117779565Y-61475121D01*
X117855756Y-61513216D01*
X117893851Y-61551311D01*
X117931946Y-61627502D01*
X117931946Y-61703692D01*
X117893851Y-61779883D01*
X117855756Y-61817978D01*
X117779565Y-61856073D01*
X117627184Y-61894169D01*
X117436708Y-61894169D01*
X117284327Y-61856073D01*
X117208137Y-61817978D01*
X117170042Y-61779883D01*
X117131946Y-61703692D01*
X114548613Y-63417978D02*
X113748613Y-63417978D01*
X113748613Y-63227502D01*
X113786709Y-63113216D01*
X113862899Y-63037026D01*
X113939089Y-62998930D01*
X114091470Y-62960835D01*
X114205756Y-62960835D01*
X114358137Y-62998930D01*
X114434328Y-63037026D01*
X114510518Y-63113216D01*
X114548613Y-63227502D01*
X114548613Y-63417978D01*
X113824804Y-62656073D02*
X113786709Y-62617978D01*
X113748613Y-62541788D01*
X113748613Y-62351311D01*
X113786709Y-62275121D01*
X113824804Y-62237026D01*
X113900994Y-62198930D01*
X113977185Y-62198930D01*
X114091470Y-62237026D01*
X114548613Y-62694169D01*
X114548613Y-62198930D01*
X114548613Y-61817978D02*
X114548613Y-61665597D01*
X114510518Y-61589407D01*
X114472423Y-61551311D01*
X114358137Y-61475121D01*
X114205756Y-61437026D01*
X113900994Y-61437026D01*
X113824804Y-61475121D01*
X113786709Y-61513216D01*
X113748613Y-61589407D01*
X113748613Y-61741788D01*
X113786709Y-61817978D01*
X113824804Y-61856073D01*
X113900994Y-61894169D01*
X114091470Y-61894169D01*
X114167661Y-61856073D01*
X114205756Y-61817978D01*
X114243851Y-61741788D01*
X114243851Y-61589407D01*
X114205756Y-61513216D01*
X114167661Y-61475121D01*
X114091470Y-61437026D01*
X111165280Y-63417978D02*
X110365280Y-63417978D01*
X110365280Y-63227502D01*
X110403376Y-63113216D01*
X110479566Y-63037026D01*
X110555756Y-62998930D01*
X110708137Y-62960835D01*
X110822423Y-62960835D01*
X110974804Y-62998930D01*
X111050995Y-63037026D01*
X111127185Y-63113216D01*
X111165280Y-63227502D01*
X111165280Y-63417978D01*
X110441471Y-62656073D02*
X110403376Y-62617978D01*
X110365280Y-62541788D01*
X110365280Y-62351311D01*
X110403376Y-62275121D01*
X110441471Y-62237026D01*
X110517661Y-62198930D01*
X110593852Y-62198930D01*
X110708137Y-62237026D01*
X111165280Y-62694169D01*
X111165280Y-62198930D01*
X110708137Y-61741788D02*
X110670042Y-61817978D01*
X110631947Y-61856073D01*
X110555756Y-61894169D01*
X110517661Y-61894169D01*
X110441471Y-61856073D01*
X110403376Y-61817978D01*
X110365280Y-61741788D01*
X110365280Y-61589407D01*
X110403376Y-61513216D01*
X110441471Y-61475121D01*
X110517661Y-61437026D01*
X110555756Y-61437026D01*
X110631947Y-61475121D01*
X110670042Y-61513216D01*
X110708137Y-61589407D01*
X110708137Y-61741788D01*
X110746233Y-61817978D01*
X110784328Y-61856073D01*
X110860518Y-61894169D01*
X111012899Y-61894169D01*
X111089090Y-61856073D01*
X111127185Y-61817978D01*
X111165280Y-61741788D01*
X111165280Y-61589407D01*
X111127185Y-61513216D01*
X111089090Y-61475121D01*
X111012899Y-61437026D01*
X110860518Y-61437026D01*
X110784328Y-61475121D01*
X110746233Y-61513216D01*
X110708137Y-61589407D01*
X94248615Y-63417978D02*
X93448615Y-63417978D01*
X93448615Y-63227502D01*
X93486711Y-63113216D01*
X93562901Y-63037026D01*
X93639091Y-62998930D01*
X93791472Y-62960835D01*
X93905758Y-62960835D01*
X94058139Y-62998930D01*
X94134330Y-63037026D01*
X94210520Y-63113216D01*
X94248615Y-63227502D01*
X94248615Y-63417978D01*
X93524806Y-62656073D02*
X93486711Y-62617978D01*
X93448615Y-62541788D01*
X93448615Y-62351311D01*
X93486711Y-62275121D01*
X93524806Y-62237026D01*
X93600996Y-62198930D01*
X93677187Y-62198930D01*
X93791472Y-62237026D01*
X94248615Y-62694169D01*
X94248615Y-62198930D01*
X93448615Y-61932264D02*
X93448615Y-61398930D01*
X94248615Y-61741788D01*
X90865282Y-63417978D02*
X90065282Y-63417978D01*
X90065282Y-63227502D01*
X90103378Y-63113216D01*
X90179568Y-63037026D01*
X90255758Y-62998930D01*
X90408139Y-62960835D01*
X90522425Y-62960835D01*
X90674806Y-62998930D01*
X90750997Y-63037026D01*
X90827187Y-63113216D01*
X90865282Y-63227502D01*
X90865282Y-63417978D01*
X90141473Y-62656073D02*
X90103378Y-62617978D01*
X90065282Y-62541788D01*
X90065282Y-62351311D01*
X90103378Y-62275121D01*
X90141473Y-62237026D01*
X90217663Y-62198930D01*
X90293854Y-62198930D01*
X90408139Y-62237026D01*
X90865282Y-62694169D01*
X90865282Y-62198930D01*
X90065282Y-61513216D02*
X90065282Y-61665597D01*
X90103378Y-61741788D01*
X90141473Y-61779883D01*
X90255758Y-61856073D01*
X90408139Y-61894169D01*
X90712901Y-61894169D01*
X90789092Y-61856073D01*
X90827187Y-61817978D01*
X90865282Y-61741788D01*
X90865282Y-61589407D01*
X90827187Y-61513216D01*
X90789092Y-61475121D01*
X90712901Y-61437026D01*
X90522425Y-61437026D01*
X90446235Y-61475121D01*
X90408139Y-61513216D01*
X90370044Y-61589407D01*
X90370044Y-61741788D01*
X90408139Y-61817978D01*
X90446235Y-61856073D01*
X90522425Y-61894169D01*
X67181951Y-63417978D02*
X66381951Y-63417978D01*
X66381951Y-63227502D01*
X66420047Y-63113216D01*
X66496237Y-63037026D01*
X66572427Y-62998930D01*
X66724808Y-62960835D01*
X66839094Y-62960835D01*
X66991475Y-62998930D01*
X67067666Y-63037026D01*
X67143856Y-63113216D01*
X67181951Y-63227502D01*
X67181951Y-63417978D01*
X66458142Y-62656073D02*
X66420047Y-62617978D01*
X66381951Y-62541788D01*
X66381951Y-62351311D01*
X66420047Y-62275121D01*
X66458142Y-62237026D01*
X66534332Y-62198930D01*
X66610523Y-62198930D01*
X66724808Y-62237026D01*
X67181951Y-62694169D01*
X67181951Y-62198930D01*
X66648618Y-61513216D02*
X67181951Y-61513216D01*
X66343856Y-61703692D02*
X66915285Y-61894169D01*
X66915285Y-61398930D01*
X46881953Y-63417978D02*
X46081953Y-63417978D01*
X46081953Y-63227502D01*
X46120049Y-63113216D01*
X46196239Y-63037026D01*
X46272429Y-62998930D01*
X46424810Y-62960835D01*
X46539096Y-62960835D01*
X46691477Y-62998930D01*
X46767668Y-63037026D01*
X46843858Y-63113216D01*
X46881953Y-63227502D01*
X46881953Y-63417978D01*
X46158144Y-62656073D02*
X46120049Y-62617978D01*
X46081953Y-62541788D01*
X46081953Y-62351311D01*
X46120049Y-62275121D01*
X46158144Y-62237026D01*
X46234334Y-62198930D01*
X46310525Y-62198930D01*
X46424810Y-62237026D01*
X46881953Y-62694169D01*
X46881953Y-62198930D01*
X46081953Y-61932264D02*
X46081953Y-61437026D01*
X46386715Y-61703692D01*
X46386715Y-61589407D01*
X46424810Y-61513216D01*
X46462906Y-61475121D01*
X46539096Y-61437026D01*
X46729572Y-61437026D01*
X46805763Y-61475121D01*
X46843858Y-61513216D01*
X46881953Y-61589407D01*
X46881953Y-61817978D01*
X46843858Y-61894169D01*
X46805763Y-61932264D01*
X248449354Y-63417978D02*
X247649354Y-63417978D01*
X247649354Y-63227502D01*
X247687450Y-63113216D01*
X247763640Y-63037026D01*
X247839830Y-62998930D01*
X247992211Y-62960835D01*
X248106497Y-62960835D01*
X248258878Y-62998930D01*
X248335069Y-63037026D01*
X248411259Y-63113216D01*
X248449354Y-63227502D01*
X248449354Y-63417978D01*
X247725545Y-62656073D02*
X247687450Y-62617978D01*
X247649354Y-62541788D01*
X247649354Y-62351311D01*
X247687450Y-62275121D01*
X247725545Y-62237026D01*
X247801735Y-62198930D01*
X247877926Y-62198930D01*
X247992211Y-62237026D01*
X248449354Y-62694169D01*
X248449354Y-62198930D01*
X247725545Y-61894169D02*
X247687450Y-61856073D01*
X247649354Y-61779883D01*
X247649354Y-61589407D01*
X247687450Y-61513216D01*
X247725545Y-61475121D01*
X247801735Y-61437026D01*
X247877926Y-61437026D01*
X247992211Y-61475121D01*
X248449354Y-61932264D01*
X248449354Y-61437026D01*
X244949354Y-63417978D02*
X244149354Y-63417978D01*
X244149354Y-63227502D01*
X244187450Y-63113216D01*
X244263640Y-63037026D01*
X244339830Y-62998930D01*
X244492211Y-62960835D01*
X244606497Y-62960835D01*
X244758878Y-62998930D01*
X244835069Y-63037026D01*
X244911259Y-63113216D01*
X244949354Y-63227502D01*
X244949354Y-63417978D01*
X244225545Y-62656073D02*
X244187450Y-62617978D01*
X244149354Y-62541788D01*
X244149354Y-62351311D01*
X244187450Y-62275121D01*
X244225545Y-62237026D01*
X244301735Y-62198930D01*
X244377926Y-62198930D01*
X244492211Y-62237026D01*
X244949354Y-62694169D01*
X244949354Y-62198930D01*
X244949354Y-61437026D02*
X244949354Y-61894169D01*
X244949354Y-61665597D02*
X244149354Y-61665597D01*
X244263640Y-61741788D01*
X244339830Y-61817978D01*
X244377926Y-61894169D01*
X131465278Y-63417978D02*
X130665278Y-63417978D01*
X130665278Y-63227502D01*
X130703374Y-63113216D01*
X130779564Y-63037026D01*
X130855754Y-62998930D01*
X131008135Y-62960835D01*
X131122421Y-62960835D01*
X131274802Y-62998930D01*
X131350993Y-63037026D01*
X131427183Y-63113216D01*
X131465278Y-63227502D01*
X131465278Y-63417978D01*
X130741469Y-62656073D02*
X130703374Y-62617978D01*
X130665278Y-62541788D01*
X130665278Y-62351311D01*
X130703374Y-62275121D01*
X130741469Y-62237026D01*
X130817659Y-62198930D01*
X130893850Y-62198930D01*
X131008135Y-62237026D01*
X131465278Y-62694169D01*
X131465278Y-62198930D01*
X130665278Y-61703692D02*
X130665278Y-61627502D01*
X130703374Y-61551311D01*
X130741469Y-61513216D01*
X130817659Y-61475121D01*
X130970040Y-61437026D01*
X131160516Y-61437026D01*
X131312897Y-61475121D01*
X131389088Y-61513216D01*
X131427183Y-61551311D01*
X131465278Y-61627502D01*
X131465278Y-61703692D01*
X131427183Y-61779883D01*
X131389088Y-61817978D01*
X131312897Y-61856073D01*
X131160516Y-61894169D01*
X130970040Y-61894169D01*
X130817659Y-61856073D01*
X130741469Y-61817978D01*
X130703374Y-61779883D01*
X130665278Y-61703692D01*
X128081945Y-63417978D02*
X127281945Y-63417978D01*
X127281945Y-63227502D01*
X127320041Y-63113216D01*
X127396231Y-63037026D01*
X127472421Y-62998930D01*
X127624802Y-62960835D01*
X127739088Y-62960835D01*
X127891469Y-62998930D01*
X127967660Y-63037026D01*
X128043850Y-63113216D01*
X128081945Y-63227502D01*
X128081945Y-63417978D01*
X128081945Y-62198930D02*
X128081945Y-62656073D01*
X128081945Y-62427502D02*
X127281945Y-62427502D01*
X127396231Y-62503692D01*
X127472421Y-62579883D01*
X127510517Y-62656073D01*
X128081945Y-61817978D02*
X128081945Y-61665597D01*
X128043850Y-61589407D01*
X128005755Y-61551311D01*
X127891469Y-61475121D01*
X127739088Y-61437026D01*
X127434326Y-61437026D01*
X127358136Y-61475121D01*
X127320041Y-61513216D01*
X127281945Y-61589407D01*
X127281945Y-61741788D01*
X127320041Y-61817978D01*
X127358136Y-61856073D01*
X127434326Y-61894169D01*
X127624802Y-61894169D01*
X127700993Y-61856073D01*
X127739088Y-61817978D01*
X127777183Y-61741788D01*
X127777183Y-61589407D01*
X127739088Y-61513216D01*
X127700993Y-61475121D01*
X127624802Y-61437026D01*
X124698612Y-63417978D02*
X123898612Y-63417978D01*
X123898612Y-63227502D01*
X123936708Y-63113216D01*
X124012898Y-63037026D01*
X124089088Y-62998930D01*
X124241469Y-62960835D01*
X124355755Y-62960835D01*
X124508136Y-62998930D01*
X124584327Y-63037026D01*
X124660517Y-63113216D01*
X124698612Y-63227502D01*
X124698612Y-63417978D01*
X124698612Y-62198930D02*
X124698612Y-62656073D01*
X124698612Y-62427502D02*
X123898612Y-62427502D01*
X124012898Y-62503692D01*
X124089088Y-62579883D01*
X124127184Y-62656073D01*
X124241469Y-61741788D02*
X124203374Y-61817978D01*
X124165279Y-61856073D01*
X124089088Y-61894169D01*
X124050993Y-61894169D01*
X123974803Y-61856073D01*
X123936708Y-61817978D01*
X123898612Y-61741788D01*
X123898612Y-61589407D01*
X123936708Y-61513216D01*
X123974803Y-61475121D01*
X124050993Y-61437026D01*
X124089088Y-61437026D01*
X124165279Y-61475121D01*
X124203374Y-61513216D01*
X124241469Y-61589407D01*
X124241469Y-61741788D01*
X124279565Y-61817978D01*
X124317660Y-61856073D01*
X124393850Y-61894169D01*
X124546231Y-61894169D01*
X124622422Y-61856073D01*
X124660517Y-61817978D01*
X124698612Y-61741788D01*
X124698612Y-61589407D01*
X124660517Y-61513216D01*
X124622422Y-61475121D01*
X124546231Y-61437026D01*
X124393850Y-61437026D01*
X124317660Y-61475121D01*
X124279565Y-61513216D01*
X124241469Y-61589407D01*
X121315279Y-63417978D02*
X120515279Y-63417978D01*
X120515279Y-63227502D01*
X120553375Y-63113216D01*
X120629565Y-63037026D01*
X120705755Y-62998930D01*
X120858136Y-62960835D01*
X120972422Y-62960835D01*
X121124803Y-62998930D01*
X121200994Y-63037026D01*
X121277184Y-63113216D01*
X121315279Y-63227502D01*
X121315279Y-63417978D01*
X121315279Y-62198930D02*
X121315279Y-62656073D01*
X121315279Y-62427502D02*
X120515279Y-62427502D01*
X120629565Y-62503692D01*
X120705755Y-62579883D01*
X120743851Y-62656073D01*
X120515279Y-61932264D02*
X120515279Y-61398930D01*
X121315279Y-61741788D01*
X97631948Y-63417978D02*
X96831948Y-63417978D01*
X96831948Y-63227502D01*
X96870044Y-63113216D01*
X96946234Y-63037026D01*
X97022424Y-62998930D01*
X97174805Y-62960835D01*
X97289091Y-62960835D01*
X97441472Y-62998930D01*
X97517663Y-63037026D01*
X97593853Y-63113216D01*
X97631948Y-63227502D01*
X97631948Y-63417978D01*
X97631948Y-62198930D02*
X97631948Y-62656073D01*
X97631948Y-62427502D02*
X96831948Y-62427502D01*
X96946234Y-62503692D01*
X97022424Y-62579883D01*
X97060520Y-62656073D01*
X96831948Y-61513216D02*
X96831948Y-61665597D01*
X96870044Y-61741788D01*
X96908139Y-61779883D01*
X97022424Y-61856073D01*
X97174805Y-61894169D01*
X97479567Y-61894169D01*
X97555758Y-61856073D01*
X97593853Y-61817978D01*
X97631948Y-61741788D01*
X97631948Y-61589407D01*
X97593853Y-61513216D01*
X97555758Y-61475121D01*
X97479567Y-61437026D01*
X97289091Y-61437026D01*
X97212901Y-61475121D01*
X97174805Y-61513216D01*
X97136710Y-61589407D01*
X97136710Y-61741788D01*
X97174805Y-61817978D01*
X97212901Y-61856073D01*
X97289091Y-61894169D01*
X84098616Y-63417978D02*
X83298616Y-63417978D01*
X83298616Y-63227502D01*
X83336712Y-63113216D01*
X83412902Y-63037026D01*
X83489092Y-62998930D01*
X83641473Y-62960835D01*
X83755759Y-62960835D01*
X83908140Y-62998930D01*
X83984331Y-63037026D01*
X84060521Y-63113216D01*
X84098616Y-63227502D01*
X84098616Y-63417978D01*
X84098616Y-62198930D02*
X84098616Y-62656073D01*
X84098616Y-62427502D02*
X83298616Y-62427502D01*
X83412902Y-62503692D01*
X83489092Y-62579883D01*
X83527188Y-62656073D01*
X83298616Y-61475121D02*
X83298616Y-61856073D01*
X83679569Y-61894169D01*
X83641473Y-61856073D01*
X83603378Y-61779883D01*
X83603378Y-61589407D01*
X83641473Y-61513216D01*
X83679569Y-61475121D01*
X83755759Y-61437026D01*
X83946235Y-61437026D01*
X84022426Y-61475121D01*
X84060521Y-61513216D01*
X84098616Y-61589407D01*
X84098616Y-61779883D01*
X84060521Y-61856073D01*
X84022426Y-61894169D01*
X73948617Y-63417978D02*
X73148617Y-63417978D01*
X73148617Y-63227502D01*
X73186713Y-63113216D01*
X73262903Y-63037026D01*
X73339093Y-62998930D01*
X73491474Y-62960835D01*
X73605760Y-62960835D01*
X73758141Y-62998930D01*
X73834332Y-63037026D01*
X73910522Y-63113216D01*
X73948617Y-63227502D01*
X73948617Y-63417978D01*
X73948617Y-62198930D02*
X73948617Y-62656073D01*
X73948617Y-62427502D02*
X73148617Y-62427502D01*
X73262903Y-62503692D01*
X73339093Y-62579883D01*
X73377189Y-62656073D01*
X73415284Y-61513216D02*
X73948617Y-61513216D01*
X73110522Y-61703692D02*
X73681951Y-61894169D01*
X73681951Y-61398930D01*
X60415285Y-63417978D02*
X59615285Y-63417978D01*
X59615285Y-63227502D01*
X59653381Y-63113216D01*
X59729571Y-63037026D01*
X59805761Y-62998930D01*
X59958142Y-62960835D01*
X60072428Y-62960835D01*
X60224809Y-62998930D01*
X60301000Y-63037026D01*
X60377190Y-63113216D01*
X60415285Y-63227502D01*
X60415285Y-63417978D01*
X60415285Y-62198930D02*
X60415285Y-62656073D01*
X60415285Y-62427502D02*
X59615285Y-62427502D01*
X59729571Y-62503692D01*
X59805761Y-62579883D01*
X59843857Y-62656073D01*
X59615285Y-61932264D02*
X59615285Y-61437026D01*
X59920047Y-61703692D01*
X59920047Y-61589407D01*
X59958142Y-61513216D01*
X59996238Y-61475121D01*
X60072428Y-61437026D01*
X60262904Y-61437026D01*
X60339095Y-61475121D01*
X60377190Y-61513216D01*
X60415285Y-61589407D01*
X60415285Y-61817978D01*
X60377190Y-61894169D01*
X60339095Y-61932264D01*
X40115287Y-63417978D02*
X39315287Y-63417978D01*
X39315287Y-63227502D01*
X39353383Y-63113216D01*
X39429573Y-63037026D01*
X39505763Y-62998930D01*
X39658144Y-62960835D01*
X39772430Y-62960835D01*
X39924811Y-62998930D01*
X40001002Y-63037026D01*
X40077192Y-63113216D01*
X40115287Y-63227502D01*
X40115287Y-63417978D01*
X40115287Y-62198930D02*
X40115287Y-62656073D01*
X40115287Y-62427502D02*
X39315287Y-62427502D01*
X39429573Y-62503692D01*
X39505763Y-62579883D01*
X39543859Y-62656073D01*
X39391478Y-61894169D02*
X39353383Y-61856073D01*
X39315287Y-61779883D01*
X39315287Y-61589407D01*
X39353383Y-61513216D01*
X39391478Y-61475121D01*
X39467668Y-61437026D01*
X39543859Y-61437026D01*
X39658144Y-61475121D01*
X40115287Y-61932264D01*
X40115287Y-61437026D01*
X258949354Y-63417978D02*
X258149354Y-63417978D01*
X258149354Y-63227502D01*
X258187450Y-63113216D01*
X258263640Y-63037026D01*
X258339830Y-62998930D01*
X258492211Y-62960835D01*
X258606497Y-62960835D01*
X258758878Y-62998930D01*
X258835069Y-63037026D01*
X258911259Y-63113216D01*
X258949354Y-63227502D01*
X258949354Y-63417978D01*
X258949354Y-62198930D02*
X258949354Y-62656073D01*
X258949354Y-62427502D02*
X258149354Y-62427502D01*
X258263640Y-62503692D01*
X258339830Y-62579883D01*
X258377926Y-62656073D01*
X258949354Y-61437026D02*
X258949354Y-61894169D01*
X258949354Y-61665597D02*
X258149354Y-61665597D01*
X258263640Y-61741788D01*
X258339830Y-61817978D01*
X258377926Y-61894169D01*
X255449354Y-63417978D02*
X254649354Y-63417978D01*
X254649354Y-63227502D01*
X254687450Y-63113216D01*
X254763640Y-63037026D01*
X254839830Y-62998930D01*
X254992211Y-62960835D01*
X255106497Y-62960835D01*
X255258878Y-62998930D01*
X255335069Y-63037026D01*
X255411259Y-63113216D01*
X255449354Y-63227502D01*
X255449354Y-63417978D01*
X255449354Y-62198930D02*
X255449354Y-62656073D01*
X255449354Y-62427502D02*
X254649354Y-62427502D01*
X254763640Y-62503692D01*
X254839830Y-62579883D01*
X254877926Y-62656073D01*
X254649354Y-61703692D02*
X254649354Y-61627502D01*
X254687450Y-61551311D01*
X254725545Y-61513216D01*
X254801735Y-61475121D01*
X254954116Y-61437026D01*
X255144592Y-61437026D01*
X255296973Y-61475121D01*
X255373164Y-61513216D01*
X255411259Y-61551311D01*
X255449354Y-61627502D01*
X255449354Y-61703692D01*
X255411259Y-61779883D01*
X255373164Y-61817978D01*
X255296973Y-61856073D01*
X255144592Y-61894169D01*
X254954116Y-61894169D01*
X254801735Y-61856073D01*
X254725545Y-61817978D01*
X254687450Y-61779883D01*
X254649354Y-61703692D01*
X251949354Y-63037026D02*
X251149354Y-63037026D01*
X251149354Y-62846550D01*
X251187450Y-62732264D01*
X251263640Y-62656073D01*
X251339830Y-62617978D01*
X251492211Y-62579883D01*
X251606497Y-62579883D01*
X251758878Y-62617978D01*
X251835069Y-62656073D01*
X251911259Y-62732264D01*
X251949354Y-62846550D01*
X251949354Y-63037026D01*
X251949354Y-62198930D02*
X251949354Y-62046550D01*
X251911259Y-61970359D01*
X251873164Y-61932264D01*
X251758878Y-61856073D01*
X251606497Y-61817978D01*
X251301735Y-61817978D01*
X251225545Y-61856073D01*
X251187450Y-61894169D01*
X251149354Y-61970359D01*
X251149354Y-62122740D01*
X251187450Y-62198930D01*
X251225545Y-62237026D01*
X251301735Y-62275121D01*
X251492211Y-62275121D01*
X251568402Y-62237026D01*
X251606497Y-62198930D01*
X251644592Y-62122740D01*
X251644592Y-61970359D01*
X251606497Y-61894169D01*
X251568402Y-61856073D01*
X251492211Y-61817978D01*
X220449354Y-63037026D02*
X219649354Y-63037026D01*
X219649354Y-62846550D01*
X219687450Y-62732264D01*
X219763640Y-62656073D01*
X219839830Y-62617978D01*
X219992211Y-62579883D01*
X220106497Y-62579883D01*
X220258878Y-62617978D01*
X220335069Y-62656073D01*
X220411259Y-62732264D01*
X220449354Y-62846550D01*
X220449354Y-63037026D01*
X219992211Y-62122740D02*
X219954116Y-62198930D01*
X219916021Y-62237026D01*
X219839830Y-62275121D01*
X219801735Y-62275121D01*
X219725545Y-62237026D01*
X219687450Y-62198930D01*
X219649354Y-62122740D01*
X219649354Y-61970359D01*
X219687450Y-61894169D01*
X219725545Y-61856073D01*
X219801735Y-61817978D01*
X219839830Y-61817978D01*
X219916021Y-61856073D01*
X219954116Y-61894169D01*
X219992211Y-61970359D01*
X219992211Y-62122740D01*
X220030307Y-62198930D01*
X220068402Y-62237026D01*
X220144592Y-62275121D01*
X220296973Y-62275121D01*
X220373164Y-62237026D01*
X220411259Y-62198930D01*
X220449354Y-62122740D01*
X220449354Y-61970359D01*
X220411259Y-61894169D01*
X220373164Y-61856073D01*
X220296973Y-61817978D01*
X220144592Y-61817978D01*
X220068402Y-61856073D01*
X220030307Y-61894169D01*
X219992211Y-61970359D01*
X141615287Y-63037026D02*
X140815287Y-63037026D01*
X140815287Y-62846550D01*
X140853383Y-62732264D01*
X140929573Y-62656073D01*
X141005763Y-62617978D01*
X141158144Y-62579883D01*
X141272430Y-62579883D01*
X141424811Y-62617978D01*
X141501002Y-62656073D01*
X141577192Y-62732264D01*
X141615287Y-62846550D01*
X141615287Y-63037026D01*
X140815287Y-62313216D02*
X140815287Y-61779883D01*
X141615287Y-62122740D01*
X138231944Y-63037026D02*
X137431944Y-63037026D01*
X137431944Y-62846550D01*
X137470040Y-62732264D01*
X137546230Y-62656073D01*
X137622420Y-62617978D01*
X137774801Y-62579883D01*
X137889087Y-62579883D01*
X138041468Y-62617978D01*
X138117659Y-62656073D01*
X138193849Y-62732264D01*
X138231944Y-62846550D01*
X138231944Y-63037026D01*
X137431944Y-61894169D02*
X137431944Y-62046550D01*
X137470040Y-62122740D01*
X137508135Y-62160835D01*
X137622420Y-62237026D01*
X137774801Y-62275121D01*
X138079563Y-62275121D01*
X138155754Y-62237026D01*
X138193849Y-62198930D01*
X138231944Y-62122740D01*
X138231944Y-61970359D01*
X138193849Y-61894169D01*
X138155754Y-61856073D01*
X138079563Y-61817978D01*
X137889087Y-61817978D01*
X137812897Y-61856073D01*
X137774801Y-61894169D01*
X137736706Y-61970359D01*
X137736706Y-62122740D01*
X137774801Y-62198930D01*
X137812897Y-62237026D01*
X137889087Y-62275121D01*
X134848611Y-63037026D02*
X134048611Y-63037026D01*
X134048611Y-62846550D01*
X134086707Y-62732264D01*
X134162897Y-62656073D01*
X134239087Y-62617978D01*
X134391468Y-62579883D01*
X134505754Y-62579883D01*
X134658135Y-62617978D01*
X134734326Y-62656073D01*
X134810516Y-62732264D01*
X134848611Y-62846550D01*
X134848611Y-63037026D01*
X134048611Y-61856073D02*
X134048611Y-62237026D01*
X134429564Y-62275121D01*
X134391468Y-62237026D01*
X134353373Y-62160835D01*
X134353373Y-61970359D01*
X134391468Y-61894169D01*
X134429564Y-61856073D01*
X134505754Y-61817978D01*
X134696230Y-61817978D01*
X134772421Y-61856073D01*
X134810516Y-61894169D01*
X134848611Y-61970359D01*
X134848611Y-62160835D01*
X134810516Y-62237026D01*
X134772421Y-62275121D01*
X101015281Y-63037026D02*
X100215281Y-63037026D01*
X100215281Y-62846550D01*
X100253377Y-62732264D01*
X100329567Y-62656073D01*
X100405757Y-62617978D01*
X100558138Y-62579883D01*
X100672424Y-62579883D01*
X100824805Y-62617978D01*
X100900996Y-62656073D01*
X100977186Y-62732264D01*
X101015281Y-62846550D01*
X101015281Y-63037026D01*
X100481948Y-61894169D02*
X101015281Y-61894169D01*
X100177186Y-62084645D02*
X100748615Y-62275121D01*
X100748615Y-61779883D01*
X80715283Y-63037026D02*
X79915283Y-63037026D01*
X79915283Y-62846550D01*
X79953379Y-62732264D01*
X80029569Y-62656073D01*
X80105759Y-62617978D01*
X80258140Y-62579883D01*
X80372426Y-62579883D01*
X80524807Y-62617978D01*
X80600998Y-62656073D01*
X80677188Y-62732264D01*
X80715283Y-62846550D01*
X80715283Y-63037026D01*
X79915283Y-62313216D02*
X79915283Y-61817978D01*
X80220045Y-62084645D01*
X80220045Y-61970359D01*
X80258140Y-61894169D01*
X80296236Y-61856073D01*
X80372426Y-61817978D01*
X80562902Y-61817978D01*
X80639093Y-61856073D01*
X80677188Y-61894169D01*
X80715283Y-61970359D01*
X80715283Y-62198930D01*
X80677188Y-62275121D01*
X80639093Y-62313216D01*
X77331950Y-63037026D02*
X76531950Y-63037026D01*
X76531950Y-62846550D01*
X76570046Y-62732264D01*
X76646236Y-62656073D01*
X76722426Y-62617978D01*
X76874807Y-62579883D01*
X76989093Y-62579883D01*
X77141474Y-62617978D01*
X77217665Y-62656073D01*
X77293855Y-62732264D01*
X77331950Y-62846550D01*
X77331950Y-63037026D01*
X76608141Y-62275121D02*
X76570046Y-62237026D01*
X76531950Y-62160835D01*
X76531950Y-61970359D01*
X76570046Y-61894169D01*
X76608141Y-61856073D01*
X76684331Y-61817978D01*
X76760522Y-61817978D01*
X76874807Y-61856073D01*
X77331950Y-62313216D01*
X77331950Y-61817978D01*
X57031952Y-63037026D02*
X56231952Y-63037026D01*
X56231952Y-62846550D01*
X56270048Y-62732264D01*
X56346238Y-62656073D01*
X56422428Y-62617978D01*
X56574809Y-62579883D01*
X56689095Y-62579883D01*
X56841476Y-62617978D01*
X56917667Y-62656073D01*
X56993857Y-62732264D01*
X57031952Y-62846550D01*
X57031952Y-63037026D01*
X57031952Y-61817978D02*
X57031952Y-62275121D01*
X57031952Y-62046550D02*
X56231952Y-62046550D01*
X56346238Y-62122740D01*
X56422428Y-62198930D01*
X56460524Y-62275121D01*
X36731954Y-63037026D02*
X35931954Y-63037026D01*
X35931954Y-62846550D01*
X35970050Y-62732264D01*
X36046240Y-62656073D01*
X36122430Y-62617978D01*
X36274811Y-62579883D01*
X36389097Y-62579883D01*
X36541478Y-62617978D01*
X36617669Y-62656073D01*
X36693859Y-62732264D01*
X36731954Y-62846550D01*
X36731954Y-63037026D01*
X35931954Y-62084645D02*
X35931954Y-62008454D01*
X35970050Y-61932264D01*
X36008145Y-61894169D01*
X36084335Y-61856073D01*
X36236716Y-61817978D01*
X36427192Y-61817978D01*
X36579573Y-61856073D01*
X36655764Y-61894169D01*
X36693859Y-61932264D01*
X36731954Y-62008454D01*
X36731954Y-62084645D01*
X36693859Y-62160835D01*
X36655764Y-62198930D01*
X36579573Y-62237026D01*
X36427192Y-62275121D01*
X36236716Y-62275121D01*
X36084335Y-62237026D01*
X36008145Y-62198930D01*
X35970050Y-62160835D01*
X35931954Y-62084645D01*
M02*
