M48
; DRILL file {KiCad (5.1.4)-1} date 4/30/2020 9:44:37 PM
; FORMAT={-:-/ absolute / inch / decimal}
; #@! TF.CreationDate,2020-04-30T21:44:37-04:00
; #@! TF.GenerationSoftware,Kicad,Pcbnew,(5.1.4)-1
; #@! TF.FileFunction,Plated,1,2,PTH
FMAT,2
INCH
T1C0.0157
T2C0.0315
T3C0.0430
T4C0.0433
T5C0.0591
T6C0.0866
%
G90
G05
T1
X1.593Y-3.537
X8.4223Y-2.7883
X8.4488Y-2.1633
T2
X4.4955Y-2.1633
X4.4955Y-2.3632
X5.0283Y-2.1633
X5.0283Y-2.3632
X10.1806Y-2.1633
X10.1806Y-2.3632
X3.5631Y-2.1633
X3.5631Y-2.3632
X2.0979Y-2.1633
X2.0979Y-2.3632
X5.2948Y-2.1633
X5.2948Y-2.3632
X4.8951Y-2.1633
X4.8951Y-2.3632
X2.2311Y-2.1633
X2.2311Y-2.3632
X3.4299Y-2.1633
X3.4299Y-2.3632
X8.9405Y-2.1633
X8.9405Y-2.3632
X9.3538Y-2.1633
X9.3538Y-2.3632
X5.428Y-2.1633
X5.428Y-2.3632
X3.6963Y-2.1633
X3.6963Y-2.3632
X2.3643Y-2.1633
X2.3643Y-2.3632
X9.4916Y-2.1633
X9.4916Y-2.3632
X8.6649Y-2.1633
X8.6649Y-2.3632
X9.6294Y-2.1633
X9.6294Y-2.3632
X2.8971Y-2.1633
X2.8971Y-2.3632
X10.0428Y-2.1633
X10.0428Y-2.3632
X2.7639Y-2.1633
X2.7639Y-2.3632
X3.9627Y-2.1633
X3.9627Y-2.3632
X4.7619Y-2.1633
X4.7619Y-2.3632
X1.4319Y-2.1633
X1.4319Y-2.3632
X1.9647Y-2.1633
X1.9647Y-2.3632
X3.1635Y-2.1633
X3.1635Y-2.3632
X8.8027Y-2.1633
X8.8027Y-2.3632
X4.3623Y-2.1633
X4.3623Y-2.3632
X1.8315Y-2.1633
X1.8315Y-2.3632
X4.2291Y-2.1633
X4.2291Y-2.3632
X2.4975Y-2.1633
X2.4975Y-2.3632
X9.905Y-2.1633
X9.905Y-2.3632
X3.8295Y-2.1633
X3.8295Y-2.3632
X1.5651Y-2.1633
X1.5651Y-2.3632
X1.6983Y-2.1633
X1.6983Y-2.3632
X9.0782Y-2.1633
X9.0782Y-2.3632
X5.5612Y-2.1633
X5.5612Y-2.3632
X5.1616Y-2.1633
X5.1616Y-2.3632
X3.0303Y-2.1633
X3.0303Y-2.3632
X4.0959Y-2.1633
X4.0959Y-2.3632
X2.6307Y-2.1633
X2.6307Y-2.3632
X9.216Y-2.1633
X9.216Y-2.3632
X3.2967Y-2.1633
X3.2967Y-2.3632
X9.7672Y-2.1633
X9.7672Y-2.3632
X4.6287Y-2.1633
X4.6287Y-2.3632
T3
X7.351Y-1.752
X7.351Y-2.352
X7.451Y-1.752
X7.451Y-2.352
X7.551Y-1.752
X7.551Y-2.352
X7.651Y-1.752
X7.651Y-2.352
X7.751Y-1.752
X7.751Y-2.352
X7.851Y-1.752
X7.851Y-2.352
X7.951Y-1.752
X7.951Y-2.352
X8.051Y-1.752
X8.051Y-2.352
X8.151Y-1.752
X8.151Y-2.352
X8.251Y-1.752
X8.251Y-2.352
X8.351Y-1.752
X8.351Y-2.352
X8.451Y-1.752
X8.451Y-2.352
T4
X3.6811Y-1.7658
X3.6811Y-1.943
X3.937Y-1.7658
X3.937Y-1.943
T5
X2.9375Y-5.1312
X3.1875Y-5.0312
X2.0938Y-4.3812
X2.3438Y-4.2812
X1.25Y-5.1313
X1.5Y-5.0313
X5.0938Y-4.3812
X5.3438Y-4.2812
X4.25Y-5.1312
X4.5Y-5.0312
X7.5312Y-2.8813
X7.7812Y-2.7812
X9.6875Y-3.6313
X9.9375Y-3.5312
X2.4688Y-3.6313
X2.7188Y-3.5312
X7.7188Y-3.6313
X7.9688Y-3.5312
X4.7188Y-3.6313
X4.9688Y-3.5312
X8.0938Y-4.3812
X8.3438Y-4.2812
X3.7812Y-2.8813
X4.0312Y-2.7812
X4.3438Y-4.3812
X4.5938Y-4.2812
X8.8438Y-4.3812
X9.0938Y-4.2812
X8.2812Y-2.8813
X8.5312Y-2.7812
X9.2188Y-5.1312
X9.4688Y-5.0312
X2.8438Y-5.1312
X3.0938Y-5.0312
X9.875Y-4.3812
X10.125Y-4.2812
X6.2188Y-3.6313
X6.4688Y-3.5312
X3.5938Y-4.3812
X3.8438Y-4.2812
X4.5312Y-2.8813
X4.7812Y-2.7812
X8.4688Y-3.6313
X8.7188Y-3.5312
X2.2812Y-2.8813
X2.5312Y-2.7812
X5.2812Y-2.8813
X5.5312Y-2.7812
X6.9688Y-3.6313
X7.2188Y-3.5312
X3.9688Y-3.6313
X4.2188Y-3.5312
X1.25Y-3.6313
X1.5Y-3.5312
X6.5938Y-4.3812
X6.8438Y-4.2812
X6.0312Y-2.8813
X6.2812Y-2.7812
X6.875Y-5.1312
X7.125Y-5.0312
X9.9688Y-2.8813
X10.2188Y-2.7812
X6.7812Y-2.8813
X7.0312Y-2.7812
X5.5625Y-5.1312
X5.8125Y-5.0312
X2.0938Y-5.1312
X2.3438Y-5.0312
X5.8438Y-4.3812
X6.0938Y-4.2812
X1.625Y-4.3812
X1.875Y-4.2812
X9.0312Y-2.8813
X9.2812Y-2.7812
X2.8438Y-4.3812
X3.0938Y-4.2812
X5.4688Y-3.6313
X5.7188Y-3.5312
X1.25Y-4.3812
X1.5Y-4.2812
X3.2188Y-3.6313
X3.4688Y-3.5312
X7.3438Y-4.3812
X7.5938Y-4.2812
X1.4375Y-3.6313
X1.6875Y-3.5312
X5.4688Y-5.1312
X5.7188Y-5.0312
X1.3438Y-2.8813
X1.5938Y-2.7812
X10.0625Y-5.1312
X10.3125Y-5.0312
X3.0312Y-2.8813
X3.2812Y-2.7812
X8.375Y-5.1312
X8.625Y-5.0312
T6
X1.0887Y-1.8582
X1.0887Y-2.4094
X9.6132Y-3.3562
X1.9992Y-3.3562
X5.8048Y-3.3562
X10.5238Y-1.8474
X2.5842Y-4.8563
X10.5238Y-2.4094
X9.0282Y-4.8563
T0
M30
