G04 #@! TF.GenerationSoftware,KiCad,Pcbnew,(5.1.4)-1*
G04 #@! TF.CreationDate,2020-05-01T16:36:11-04:00*
G04 #@! TF.ProjectId,juliet-pcb,6a756c69-6574-42d7-9063-622e6b696361,rev?*
G04 #@! TF.SameCoordinates,Original*
G04 #@! TF.FileFunction,Legend,Bot*
G04 #@! TF.FilePolarity,Positive*
%FSLAX46Y46*%
G04 Gerber Fmt 4.6, Leading zero omitted, Abs format (unit mm)*
G04 Created by KiCad (PCBNEW (5.1.4)-1) date 2020-05-01 16:36:11*
%MOMM*%
%LPD*%
G04 APERTURE LIST*
%ADD10C,0.300000*%
%ADD11C,0.010000*%
G04 APERTURE END LIST*
D10*
X268540800Y-126350200D02*
X268469371Y-126207342D01*
X268469371Y-125993057D01*
X268540800Y-125778771D01*
X268683657Y-125635914D01*
X268826514Y-125564485D01*
X269112228Y-125493057D01*
X269326514Y-125493057D01*
X269612228Y-125564485D01*
X269755085Y-125635914D01*
X269897942Y-125778771D01*
X269969371Y-125993057D01*
X269969371Y-126135914D01*
X269897942Y-126350200D01*
X269826514Y-126421628D01*
X269326514Y-126421628D01*
X269326514Y-126135914D01*
X269969371Y-127064485D02*
X268469371Y-127064485D01*
X268469371Y-127635914D01*
X268540800Y-127778771D01*
X268612228Y-127850200D01*
X268755085Y-127921628D01*
X268969371Y-127921628D01*
X269112228Y-127850200D01*
X269183657Y-127778771D01*
X269255085Y-127635914D01*
X269255085Y-127064485D01*
X269969371Y-129278771D02*
X269969371Y-128564485D01*
X268469371Y-128564485D01*
X268969371Y-129635914D02*
X269969371Y-129993057D01*
X268969371Y-130350200D01*
X268469371Y-130778771D02*
X268469371Y-131707342D01*
X269040800Y-131207342D01*
X269040800Y-131421628D01*
X269112228Y-131564485D01*
X269183657Y-131635914D01*
X269326514Y-131707342D01*
X269683657Y-131707342D01*
X269826514Y-131635914D01*
X269897942Y-131564485D01*
X269969371Y-131421628D01*
X269969371Y-130993057D01*
X269897942Y-130850200D01*
X269826514Y-130778771D01*
D11*
G36*
X174523400Y-62319822D02*
G01*
X174181068Y-62512652D01*
X174088290Y-62754933D01*
X174111003Y-63039519D01*
X174352643Y-63132517D01*
X174469290Y-63135933D01*
X174796726Y-63071035D01*
X174901189Y-62808443D01*
X174904400Y-62700822D01*
X174849121Y-62383669D01*
X174625966Y-62309157D01*
X174523400Y-62319822D01*
X174523400Y-62319822D01*
G37*
X174523400Y-62319822D02*
X174181068Y-62512652D01*
X174088290Y-62754933D01*
X174111003Y-63039519D01*
X174352643Y-63132517D01*
X174469290Y-63135933D01*
X174796726Y-63071035D01*
X174901189Y-62808443D01*
X174904400Y-62700822D01*
X174849121Y-62383669D01*
X174625966Y-62309157D01*
X174523400Y-62319822D01*
G36*
X199389490Y-62359205D02*
G01*
X199290188Y-62634586D01*
X199288400Y-62712600D01*
X199358339Y-63034843D01*
X199633720Y-63134145D01*
X199711734Y-63135933D01*
X200033977Y-63065994D01*
X200133279Y-62790613D01*
X200135067Y-62712600D01*
X200065128Y-62390356D01*
X199789748Y-62291054D01*
X199711734Y-62289266D01*
X199389490Y-62359205D01*
X199389490Y-62359205D01*
G37*
X199389490Y-62359205D02*
X199290188Y-62634586D01*
X199288400Y-62712600D01*
X199358339Y-63034843D01*
X199633720Y-63134145D01*
X199711734Y-63135933D01*
X200033977Y-63065994D01*
X200133279Y-62790613D01*
X200135067Y-62712600D01*
X200065128Y-62390356D01*
X199789748Y-62291054D01*
X199711734Y-62289266D01*
X199389490Y-62359205D01*
G36*
X133679177Y-63149238D02*
G01*
X133285958Y-63197320D01*
X133108166Y-63292428D01*
X133079067Y-63389933D01*
X132981239Y-63615175D01*
X132897639Y-63643933D01*
X132584111Y-63749132D01*
X132376798Y-64087203D01*
X132263661Y-64691857D01*
X132232400Y-65506600D01*
X132269972Y-66384477D01*
X132390711Y-66964953D01*
X132606659Y-67281736D01*
X132897639Y-67369266D01*
X133058526Y-67506226D01*
X133079067Y-67623266D01*
X133145594Y-67757244D01*
X133386005Y-67835888D01*
X133861544Y-67871446D01*
X134349067Y-67877266D01*
X135044578Y-67854148D01*
X135481145Y-67788675D01*
X135619067Y-67695838D01*
X135747332Y-67408579D01*
X136028856Y-67135762D01*
X136284305Y-67030600D01*
X136379158Y-66866335D01*
X136440555Y-66391099D01*
X136465359Y-65631225D01*
X136465734Y-65506600D01*
X135619067Y-65506600D01*
X135599560Y-66096545D01*
X135530410Y-66413283D01*
X135395671Y-66520596D01*
X135365067Y-66522600D01*
X135140570Y-66658145D01*
X135111067Y-66776600D01*
X134969335Y-66963899D01*
X134616950Y-67045372D01*
X134163125Y-67026453D01*
X133717077Y-66912577D01*
X133388019Y-66709177D01*
X133370700Y-66689997D01*
X133146105Y-66192190D01*
X133079067Y-65506600D01*
X133156916Y-64758512D01*
X133411198Y-64280074D01*
X133873015Y-64035036D01*
X134386700Y-63982600D01*
X134875186Y-64019299D01*
X135089069Y-64142823D01*
X135111067Y-64236600D01*
X135246613Y-64461096D01*
X135365067Y-64490600D01*
X135512553Y-64568627D01*
X135591738Y-64845228D01*
X135618566Y-65384183D01*
X135619067Y-65506600D01*
X136465734Y-65506600D01*
X136446179Y-64709834D01*
X136389603Y-64194105D01*
X136299142Y-63985744D01*
X136284305Y-63982599D01*
X135997047Y-63854335D01*
X135724230Y-63572810D01*
X135619067Y-63317361D01*
X135457242Y-63218003D01*
X134998926Y-63155636D01*
X134349067Y-63135933D01*
X133679177Y-63149238D01*
X133679177Y-63149238D01*
G37*
X133679177Y-63149238D02*
X133285958Y-63197320D01*
X133108166Y-63292428D01*
X133079067Y-63389933D01*
X132981239Y-63615175D01*
X132897639Y-63643933D01*
X132584111Y-63749132D01*
X132376798Y-64087203D01*
X132263661Y-64691857D01*
X132232400Y-65506600D01*
X132269972Y-66384477D01*
X132390711Y-66964953D01*
X132606659Y-67281736D01*
X132897639Y-67369266D01*
X133058526Y-67506226D01*
X133079067Y-67623266D01*
X133145594Y-67757244D01*
X133386005Y-67835888D01*
X133861544Y-67871446D01*
X134349067Y-67877266D01*
X135044578Y-67854148D01*
X135481145Y-67788675D01*
X135619067Y-67695838D01*
X135747332Y-67408579D01*
X136028856Y-67135762D01*
X136284305Y-67030600D01*
X136379158Y-66866335D01*
X136440555Y-66391099D01*
X136465359Y-65631225D01*
X136465734Y-65506600D01*
X135619067Y-65506600D01*
X135599560Y-66096545D01*
X135530410Y-66413283D01*
X135395671Y-66520596D01*
X135365067Y-66522600D01*
X135140570Y-66658145D01*
X135111067Y-66776600D01*
X134969335Y-66963899D01*
X134616950Y-67045372D01*
X134163125Y-67026453D01*
X133717077Y-66912577D01*
X133388019Y-66709177D01*
X133370700Y-66689997D01*
X133146105Y-66192190D01*
X133079067Y-65506600D01*
X133156916Y-64758512D01*
X133411198Y-64280074D01*
X133873015Y-64035036D01*
X134386700Y-63982600D01*
X134875186Y-64019299D01*
X135089069Y-64142823D01*
X135111067Y-64236600D01*
X135246613Y-64461096D01*
X135365067Y-64490600D01*
X135512553Y-64568627D01*
X135591738Y-64845228D01*
X135618566Y-65384183D01*
X135619067Y-65506600D01*
X136465734Y-65506600D01*
X136446179Y-64709834D01*
X136389603Y-64194105D01*
X136299142Y-63985744D01*
X136284305Y-63982599D01*
X135997047Y-63854335D01*
X135724230Y-63572810D01*
X135619067Y-63317361D01*
X135457242Y-63218003D01*
X134998926Y-63155636D01*
X134349067Y-63135933D01*
X133679177Y-63149238D01*
G36*
X138758860Y-63156069D02*
G01*
X138359158Y-63244519D01*
X138039031Y-63443343D01*
X137826239Y-63638226D01*
X137418801Y-64183150D01*
X137312400Y-64666321D01*
X137363478Y-65117127D01*
X137552396Y-65414084D01*
X137932686Y-65586396D01*
X138557878Y-65663269D01*
X139162972Y-65675933D01*
X139838466Y-65680347D01*
X140244092Y-65707795D01*
X140448645Y-65779585D01*
X140520920Y-65917026D01*
X140529734Y-66099266D01*
X140471769Y-66417496D01*
X140360400Y-66522600D01*
X140210171Y-66659752D01*
X140191067Y-66776600D01*
X140100428Y-66936331D01*
X139786613Y-67014346D01*
X139344400Y-67030600D01*
X138811963Y-67003408D01*
X138551912Y-66909263D01*
X138497734Y-66776600D01*
X138369215Y-66588737D01*
X137959045Y-66523059D01*
X137905067Y-66522600D01*
X137478733Y-66568467D01*
X137342283Y-66724186D01*
X137493206Y-67016932D01*
X137826239Y-67374973D01*
X138153792Y-67658010D01*
X138477931Y-67808155D01*
X138923987Y-67865064D01*
X139392572Y-67870558D01*
X139996617Y-67850269D01*
X140389303Y-67768461D01*
X140697575Y-67579345D01*
X140995400Y-67292400D01*
X141284207Y-66967700D01*
X141449168Y-66671262D01*
X141524690Y-66291295D01*
X141545175Y-65716005D01*
X141545734Y-65504175D01*
X141535391Y-64857689D01*
X141509519Y-64659933D01*
X140529734Y-64659933D01*
X140373114Y-64746797D01*
X139953343Y-64806819D01*
X139345551Y-64829266D01*
X139344400Y-64829266D01*
X138760121Y-64818445D01*
X138336762Y-64789970D01*
X138159995Y-64749818D01*
X138159067Y-64746535D01*
X138256870Y-64570627D01*
X138450700Y-64323202D01*
X138766247Y-64113147D01*
X139207179Y-63992198D01*
X139664280Y-63965789D01*
X140028336Y-64039354D01*
X140190131Y-64218328D01*
X140191067Y-64236600D01*
X140282502Y-64461943D01*
X140360400Y-64490600D01*
X140524813Y-64619458D01*
X140529734Y-64659933D01*
X141509519Y-64659933D01*
X141480562Y-64438609D01*
X141345547Y-64135787D01*
X141094649Y-63838077D01*
X140970000Y-63711666D01*
X140612542Y-63386085D01*
X140287564Y-63213453D01*
X139862310Y-63146084D01*
X139367172Y-63135933D01*
X138758860Y-63156069D01*
X138758860Y-63156069D01*
G37*
X138758860Y-63156069D02*
X138359158Y-63244519D01*
X138039031Y-63443343D01*
X137826239Y-63638226D01*
X137418801Y-64183150D01*
X137312400Y-64666321D01*
X137363478Y-65117127D01*
X137552396Y-65414084D01*
X137932686Y-65586396D01*
X138557878Y-65663269D01*
X139162972Y-65675933D01*
X139838466Y-65680347D01*
X140244092Y-65707795D01*
X140448645Y-65779585D01*
X140520920Y-65917026D01*
X140529734Y-66099266D01*
X140471769Y-66417496D01*
X140360400Y-66522600D01*
X140210171Y-66659752D01*
X140191067Y-66776600D01*
X140100428Y-66936331D01*
X139786613Y-67014346D01*
X139344400Y-67030600D01*
X138811963Y-67003408D01*
X138551912Y-66909263D01*
X138497734Y-66776600D01*
X138369215Y-66588737D01*
X137959045Y-66523059D01*
X137905067Y-66522600D01*
X137478733Y-66568467D01*
X137342283Y-66724186D01*
X137493206Y-67016932D01*
X137826239Y-67374973D01*
X138153792Y-67658010D01*
X138477931Y-67808155D01*
X138923987Y-67865064D01*
X139392572Y-67870558D01*
X139996617Y-67850269D01*
X140389303Y-67768461D01*
X140697575Y-67579345D01*
X140995400Y-67292400D01*
X141284207Y-66967700D01*
X141449168Y-66671262D01*
X141524690Y-66291295D01*
X141545175Y-65716005D01*
X141545734Y-65504175D01*
X141535391Y-64857689D01*
X141509519Y-64659933D01*
X140529734Y-64659933D01*
X140373114Y-64746797D01*
X139953343Y-64806819D01*
X139345551Y-64829266D01*
X139344400Y-64829266D01*
X138760121Y-64818445D01*
X138336762Y-64789970D01*
X138159995Y-64749818D01*
X138159067Y-64746535D01*
X138256870Y-64570627D01*
X138450700Y-64323202D01*
X138766247Y-64113147D01*
X139207179Y-63992198D01*
X139664280Y-63965789D01*
X140028336Y-64039354D01*
X140190131Y-64218328D01*
X140191067Y-64236600D01*
X140282502Y-64461943D01*
X140360400Y-64490600D01*
X140524813Y-64619458D01*
X140529734Y-64659933D01*
X141509519Y-64659933D01*
X141480562Y-64438609D01*
X141345547Y-64135787D01*
X141094649Y-63838077D01*
X140970000Y-63711666D01*
X140612542Y-63386085D01*
X140287564Y-63213453D01*
X139862310Y-63146084D01*
X139367172Y-63135933D01*
X138758860Y-63156069D01*
G36*
X145692590Y-63224254D02*
G01*
X145609734Y-63389933D01*
X145521564Y-63618023D01*
X145337841Y-63585880D01*
X145209832Y-63389933D01*
X145012894Y-63221039D01*
X144557439Y-63144051D01*
X144243448Y-63135933D01*
X143677416Y-63166838D01*
X143284692Y-63303127D01*
X142902294Y-63610163D01*
X142792756Y-63717710D01*
X142210979Y-64299488D01*
X142259356Y-66046044D01*
X142285186Y-66830923D01*
X142320355Y-67339848D01*
X142379807Y-67635485D01*
X142478485Y-67780498D01*
X142631332Y-67837554D01*
X142688734Y-67846710D01*
X142861147Y-67857461D01*
X142971682Y-67790941D01*
X143034086Y-67587584D01*
X143062104Y-67187824D01*
X143069482Y-66532096D01*
X143069734Y-66195710D01*
X143078038Y-65402943D01*
X143108468Y-64893001D01*
X143169299Y-64610328D01*
X143268808Y-64499365D01*
X143323734Y-64490600D01*
X143548231Y-64355054D01*
X143577734Y-64236600D01*
X143669169Y-64011256D01*
X143747067Y-63982600D01*
X143822413Y-64144920D01*
X143877861Y-64604618D01*
X143909855Y-65320799D01*
X143916400Y-65929933D01*
X143916400Y-67877266D01*
X144763067Y-67877266D01*
X144763067Y-66024593D01*
X144775043Y-65267327D01*
X144807486Y-64643041D01*
X144855170Y-64224564D01*
X144902195Y-64085934D01*
X145101738Y-64133455D01*
X145325528Y-64331876D01*
X145467815Y-64577664D01*
X145555646Y-64958238D01*
X145599413Y-65544484D01*
X145609734Y-66270535D01*
X145612683Y-67015235D01*
X145632678Y-67484744D01*
X145686445Y-67742536D01*
X145790708Y-67852087D01*
X145962189Y-67876871D01*
X146033067Y-67877266D01*
X146456400Y-67877266D01*
X146456400Y-63135933D01*
X146033067Y-63135933D01*
X145692590Y-63224254D01*
X145692590Y-63224254D01*
G37*
X145692590Y-63224254D02*
X145609734Y-63389933D01*
X145521564Y-63618023D01*
X145337841Y-63585880D01*
X145209832Y-63389933D01*
X145012894Y-63221039D01*
X144557439Y-63144051D01*
X144243448Y-63135933D01*
X143677416Y-63166838D01*
X143284692Y-63303127D01*
X142902294Y-63610163D01*
X142792756Y-63717710D01*
X142210979Y-64299488D01*
X142259356Y-66046044D01*
X142285186Y-66830923D01*
X142320355Y-67339848D01*
X142379807Y-67635485D01*
X142478485Y-67780498D01*
X142631332Y-67837554D01*
X142688734Y-67846710D01*
X142861147Y-67857461D01*
X142971682Y-67790941D01*
X143034086Y-67587584D01*
X143062104Y-67187824D01*
X143069482Y-66532096D01*
X143069734Y-66195710D01*
X143078038Y-65402943D01*
X143108468Y-64893001D01*
X143169299Y-64610328D01*
X143268808Y-64499365D01*
X143323734Y-64490600D01*
X143548231Y-64355054D01*
X143577734Y-64236600D01*
X143669169Y-64011256D01*
X143747067Y-63982600D01*
X143822413Y-64144920D01*
X143877861Y-64604618D01*
X143909855Y-65320799D01*
X143916400Y-65929933D01*
X143916400Y-67877266D01*
X144763067Y-67877266D01*
X144763067Y-66024593D01*
X144775043Y-65267327D01*
X144807486Y-64643041D01*
X144855170Y-64224564D01*
X144902195Y-64085934D01*
X145101738Y-64133455D01*
X145325528Y-64331876D01*
X145467815Y-64577664D01*
X145555646Y-64958238D01*
X145599413Y-65544484D01*
X145609734Y-66270535D01*
X145612683Y-67015235D01*
X145632678Y-67484744D01*
X145686445Y-67742536D01*
X145790708Y-67852087D01*
X145962189Y-67876871D01*
X146033067Y-67877266D01*
X146456400Y-67877266D01*
X146456400Y-63135933D01*
X146033067Y-63135933D01*
X145692590Y-63224254D01*
G36*
X148749843Y-63149238D02*
G01*
X148356624Y-63197320D01*
X148178832Y-63292428D01*
X148149734Y-63389933D01*
X148051906Y-63615175D01*
X147968305Y-63643933D01*
X147654777Y-63749132D01*
X147447465Y-64087203D01*
X147334328Y-64691857D01*
X147303067Y-65506600D01*
X147340638Y-66384477D01*
X147461378Y-66964953D01*
X147677326Y-67281736D01*
X147968305Y-67369266D01*
X148129193Y-67506226D01*
X148149734Y-67623266D01*
X148216261Y-67757244D01*
X148456671Y-67835888D01*
X148932211Y-67871446D01*
X149419734Y-67877266D01*
X150115245Y-67854148D01*
X150551812Y-67788675D01*
X150689734Y-67695838D01*
X150817998Y-67408579D01*
X151099523Y-67135762D01*
X151354972Y-67030600D01*
X151449825Y-66866335D01*
X151511221Y-66391099D01*
X151536026Y-65631225D01*
X151536400Y-65506600D01*
X150689734Y-65506600D01*
X150670227Y-66096545D01*
X150601077Y-66413283D01*
X150466338Y-66520596D01*
X150435734Y-66522600D01*
X150211237Y-66658145D01*
X150181734Y-66776600D01*
X150040713Y-66964612D01*
X149689927Y-67042047D01*
X149237795Y-67014325D01*
X148792734Y-66886868D01*
X148488400Y-66691933D01*
X148253567Y-66324166D01*
X148156697Y-65777821D01*
X148149734Y-65506600D01*
X148241409Y-64757052D01*
X148531270Y-64271851D01*
X149041573Y-64025960D01*
X149504400Y-63982600D01*
X149975371Y-64024542D01*
X150169441Y-64163576D01*
X150181734Y-64236600D01*
X150317280Y-64461096D01*
X150435734Y-64490600D01*
X150583220Y-64568627D01*
X150662405Y-64845228D01*
X150689233Y-65384183D01*
X150689734Y-65506600D01*
X151536400Y-65506600D01*
X151516845Y-64709834D01*
X151460269Y-64194105D01*
X151369808Y-63985744D01*
X151354972Y-63982599D01*
X151067714Y-63854335D01*
X150794896Y-63572810D01*
X150689734Y-63317361D01*
X150527909Y-63218003D01*
X150069592Y-63155636D01*
X149419734Y-63135933D01*
X148749843Y-63149238D01*
X148749843Y-63149238D01*
G37*
X148749843Y-63149238D02*
X148356624Y-63197320D01*
X148178832Y-63292428D01*
X148149734Y-63389933D01*
X148051906Y-63615175D01*
X147968305Y-63643933D01*
X147654777Y-63749132D01*
X147447465Y-64087203D01*
X147334328Y-64691857D01*
X147303067Y-65506600D01*
X147340638Y-66384477D01*
X147461378Y-66964953D01*
X147677326Y-67281736D01*
X147968305Y-67369266D01*
X148129193Y-67506226D01*
X148149734Y-67623266D01*
X148216261Y-67757244D01*
X148456671Y-67835888D01*
X148932211Y-67871446D01*
X149419734Y-67877266D01*
X150115245Y-67854148D01*
X150551812Y-67788675D01*
X150689734Y-67695838D01*
X150817998Y-67408579D01*
X151099523Y-67135762D01*
X151354972Y-67030600D01*
X151449825Y-66866335D01*
X151511221Y-66391099D01*
X151536026Y-65631225D01*
X151536400Y-65506600D01*
X150689734Y-65506600D01*
X150670227Y-66096545D01*
X150601077Y-66413283D01*
X150466338Y-66520596D01*
X150435734Y-66522600D01*
X150211237Y-66658145D01*
X150181734Y-66776600D01*
X150040713Y-66964612D01*
X149689927Y-67042047D01*
X149237795Y-67014325D01*
X148792734Y-66886868D01*
X148488400Y-66691933D01*
X148253567Y-66324166D01*
X148156697Y-65777821D01*
X148149734Y-65506600D01*
X148241409Y-64757052D01*
X148531270Y-64271851D01*
X149041573Y-64025960D01*
X149504400Y-63982600D01*
X149975371Y-64024542D01*
X150169441Y-64163576D01*
X150181734Y-64236600D01*
X150317280Y-64461096D01*
X150435734Y-64490600D01*
X150583220Y-64568627D01*
X150662405Y-64845228D01*
X150689233Y-65384183D01*
X150689734Y-65506600D01*
X151536400Y-65506600D01*
X151516845Y-64709834D01*
X151460269Y-64194105D01*
X151369808Y-63985744D01*
X151354972Y-63982599D01*
X151067714Y-63854335D01*
X150794896Y-63572810D01*
X150689734Y-63317361D01*
X150527909Y-63218003D01*
X150069592Y-63155636D01*
X149419734Y-63135933D01*
X148749843Y-63149238D01*
G36*
X153474417Y-63171286D02*
G01*
X153254942Y-63290751D01*
X153229734Y-63389933D01*
X153131906Y-63615175D01*
X153048305Y-63643933D01*
X152729585Y-63788411D01*
X152471863Y-64129626D01*
X152383067Y-64478504D01*
X152499339Y-64756764D01*
X152784822Y-64829515D01*
X153144516Y-64703114D01*
X153467262Y-64405933D01*
X153785283Y-64112340D01*
X154112971Y-63990356D01*
X154352360Y-64057483D01*
X154415067Y-64236600D01*
X154512895Y-64461842D01*
X154596496Y-64490600D01*
X154883754Y-64618864D01*
X155156571Y-64900389D01*
X155261734Y-65155838D01*
X155378320Y-65329985D01*
X155423649Y-65337266D01*
X155508522Y-65492557D01*
X155582678Y-65902306D01*
X155631602Y-66482323D01*
X155635315Y-66564933D01*
X155670016Y-67202719D01*
X155726613Y-67577138D01*
X155830447Y-67763474D01*
X156006862Y-67837008D01*
X156066824Y-67846809D01*
X156400927Y-67800339D01*
X156537967Y-67668083D01*
X156568599Y-67416261D01*
X156586773Y-66899976D01*
X156591172Y-66193250D01*
X156580483Y-65370103D01*
X156579543Y-65327873D01*
X156531734Y-63220600D01*
X156108400Y-63220600D01*
X155759438Y-63313773D01*
X155630957Y-63601600D01*
X155537626Y-63915803D01*
X155367527Y-63930216D01*
X155088082Y-63642564D01*
X155024206Y-63559266D01*
X154728052Y-63273142D01*
X154328234Y-63152383D01*
X153968015Y-63135933D01*
X153474417Y-63171286D01*
X153474417Y-63171286D01*
G37*
X153474417Y-63171286D02*
X153254942Y-63290751D01*
X153229734Y-63389933D01*
X153131906Y-63615175D01*
X153048305Y-63643933D01*
X152729585Y-63788411D01*
X152471863Y-64129626D01*
X152383067Y-64478504D01*
X152499339Y-64756764D01*
X152784822Y-64829515D01*
X153144516Y-64703114D01*
X153467262Y-64405933D01*
X153785283Y-64112340D01*
X154112971Y-63990356D01*
X154352360Y-64057483D01*
X154415067Y-64236600D01*
X154512895Y-64461842D01*
X154596496Y-64490600D01*
X154883754Y-64618864D01*
X155156571Y-64900389D01*
X155261734Y-65155838D01*
X155378320Y-65329985D01*
X155423649Y-65337266D01*
X155508522Y-65492557D01*
X155582678Y-65902306D01*
X155631602Y-66482323D01*
X155635315Y-66564933D01*
X155670016Y-67202719D01*
X155726613Y-67577138D01*
X155830447Y-67763474D01*
X156006862Y-67837008D01*
X156066824Y-67846809D01*
X156400927Y-67800339D01*
X156537967Y-67668083D01*
X156568599Y-67416261D01*
X156586773Y-66899976D01*
X156591172Y-66193250D01*
X156580483Y-65370103D01*
X156579543Y-65327873D01*
X156531734Y-63220600D01*
X156108400Y-63220600D01*
X155759438Y-63313773D01*
X155630957Y-63601600D01*
X155537626Y-63915803D01*
X155367527Y-63930216D01*
X155088082Y-63642564D01*
X155024206Y-63559266D01*
X154728052Y-63273142D01*
X154328234Y-63152383D01*
X153968015Y-63135933D01*
X153474417Y-63171286D01*
G36*
X162545823Y-61978050D02*
G01*
X162420483Y-62118141D01*
X162377744Y-62457479D01*
X162373734Y-62797266D01*
X162406886Y-63303216D01*
X162494256Y-63600184D01*
X162555162Y-63643933D01*
X162842421Y-63772197D01*
X163115238Y-64053722D01*
X163220400Y-64309171D01*
X163350495Y-64483158D01*
X163401829Y-64490600D01*
X163656819Y-64601607D01*
X163930290Y-64842211D01*
X164066638Y-65073785D01*
X164067067Y-65083266D01*
X164191667Y-65310439D01*
X164461733Y-65554077D01*
X164721663Y-65675551D01*
X164732305Y-65675933D01*
X164906293Y-65806027D01*
X164913734Y-65857361D01*
X165041998Y-66144620D01*
X165323523Y-66417437D01*
X165578972Y-66522600D01*
X165692572Y-66672792D01*
X165755768Y-67048000D01*
X165760400Y-67199933D01*
X165783507Y-67636327D01*
X165892494Y-67830289D01*
X166146867Y-67877024D01*
X166183734Y-67877266D01*
X166443346Y-67846385D01*
X166567409Y-67693684D01*
X166605131Y-67329082D01*
X166607067Y-67102306D01*
X166597841Y-66786999D01*
X166545358Y-66522185D01*
X166412415Y-66253841D01*
X166161809Y-65927944D01*
X165756335Y-65490470D01*
X165158789Y-64887399D01*
X164913734Y-64643459D01*
X164215743Y-63937152D01*
X163732784Y-63413240D01*
X163429523Y-63026058D01*
X163270624Y-62729941D01*
X163220752Y-62479224D01*
X163220400Y-62455085D01*
X163174082Y-62093654D01*
X162977715Y-61962176D01*
X162797067Y-61950600D01*
X162545823Y-61978050D01*
X162545823Y-61978050D01*
G37*
X162545823Y-61978050D02*
X162420483Y-62118141D01*
X162377744Y-62457479D01*
X162373734Y-62797266D01*
X162406886Y-63303216D01*
X162494256Y-63600184D01*
X162555162Y-63643933D01*
X162842421Y-63772197D01*
X163115238Y-64053722D01*
X163220400Y-64309171D01*
X163350495Y-64483158D01*
X163401829Y-64490600D01*
X163656819Y-64601607D01*
X163930290Y-64842211D01*
X164066638Y-65073785D01*
X164067067Y-65083266D01*
X164191667Y-65310439D01*
X164461733Y-65554077D01*
X164721663Y-65675551D01*
X164732305Y-65675933D01*
X164906293Y-65806027D01*
X164913734Y-65857361D01*
X165041998Y-66144620D01*
X165323523Y-66417437D01*
X165578972Y-66522600D01*
X165692572Y-66672792D01*
X165755768Y-67048000D01*
X165760400Y-67199933D01*
X165783507Y-67636327D01*
X165892494Y-67830289D01*
X166146867Y-67877024D01*
X166183734Y-67877266D01*
X166443346Y-67846385D01*
X166567409Y-67693684D01*
X166605131Y-67329082D01*
X166607067Y-67102306D01*
X166597841Y-66786999D01*
X166545358Y-66522185D01*
X166412415Y-66253841D01*
X166161809Y-65927944D01*
X165756335Y-65490470D01*
X165158789Y-64887399D01*
X164913734Y-64643459D01*
X164215743Y-63937152D01*
X163732784Y-63413240D01*
X163429523Y-63026058D01*
X163270624Y-62729941D01*
X163220752Y-62479224D01*
X163220400Y-62455085D01*
X163174082Y-62093654D01*
X162977715Y-61962176D01*
X162797067Y-61950600D01*
X162545823Y-61978050D01*
G36*
X174946734Y-64015655D02*
G01*
X174142400Y-64067266D01*
X174092649Y-65294933D01*
X174048022Y-65890737D01*
X173976298Y-66327099D01*
X173891990Y-66519829D01*
X173880982Y-66522600D01*
X173737297Y-66659865D01*
X173719067Y-66776600D01*
X173582606Y-66998293D01*
X173453290Y-67030600D01*
X173252237Y-67157093D01*
X173241623Y-67411600D01*
X173405731Y-67746336D01*
X173723761Y-67823428D01*
X174132044Y-67644750D01*
X174430094Y-67376622D01*
X174718420Y-66982163D01*
X174872483Y-66523043D01*
X174938094Y-65893965D01*
X174981946Y-65334954D01*
X175062663Y-65030348D01*
X175215440Y-64895891D01*
X175370067Y-64859822D01*
X175672878Y-64712508D01*
X175751067Y-64384878D01*
X175725246Y-64132712D01*
X175588774Y-64017674D01*
X175253136Y-63999133D01*
X174946734Y-64015655D01*
X174946734Y-64015655D01*
G37*
X174946734Y-64015655D02*
X174142400Y-64067266D01*
X174092649Y-65294933D01*
X174048022Y-65890737D01*
X173976298Y-66327099D01*
X173891990Y-66519829D01*
X173880982Y-66522600D01*
X173737297Y-66659865D01*
X173719067Y-66776600D01*
X173582606Y-66998293D01*
X173453290Y-67030600D01*
X173252237Y-67157093D01*
X173241623Y-67411600D01*
X173405731Y-67746336D01*
X173723761Y-67823428D01*
X174132044Y-67644750D01*
X174430094Y-67376622D01*
X174718420Y-66982163D01*
X174872483Y-66523043D01*
X174938094Y-65893965D01*
X174981946Y-65334954D01*
X175062663Y-65030348D01*
X175215440Y-64895891D01*
X175370067Y-64859822D01*
X175672878Y-64712508D01*
X175751067Y-64384878D01*
X175725246Y-64132712D01*
X175588774Y-64017674D01*
X175253136Y-63999133D01*
X174946734Y-64015655D01*
G36*
X179274784Y-61994880D02*
G01*
X179157585Y-62194142D01*
X179137734Y-62543266D01*
X179106105Y-62944062D01*
X178963775Y-63108141D01*
X178714400Y-63135933D01*
X178392157Y-63205872D01*
X178292855Y-63481252D01*
X178291067Y-63559266D01*
X178361006Y-63881510D01*
X178636387Y-63980812D01*
X178714400Y-63982600D01*
X178933936Y-63999572D01*
X179060434Y-64099229D01*
X179119509Y-64354678D01*
X179136775Y-64839025D01*
X179137734Y-65190849D01*
X179124162Y-65847440D01*
X179065633Y-66266884D01*
X178935427Y-66550206D01*
X178714400Y-66791430D01*
X178421241Y-67160303D01*
X178291423Y-67515923D01*
X178291067Y-67530514D01*
X178386327Y-67801269D01*
X178714400Y-67877266D01*
X179054878Y-67788945D01*
X179137734Y-67623266D01*
X179235562Y-67398024D01*
X179319162Y-67369266D01*
X179625486Y-67271496D01*
X179830032Y-66953735D01*
X179945409Y-66379308D01*
X179984224Y-65511539D01*
X179984400Y-65434028D01*
X179988208Y-64733503D01*
X180012613Y-64304870D01*
X180077091Y-64081357D01*
X180201117Y-63996191D01*
X180404168Y-63982600D01*
X180407734Y-63982600D01*
X180729977Y-63912661D01*
X180829279Y-63637280D01*
X180831067Y-63559266D01*
X180761128Y-63237023D01*
X180485748Y-63137721D01*
X180407734Y-63135933D01*
X180121451Y-63091653D01*
X180004252Y-62892390D01*
X179984400Y-62543266D01*
X179952772Y-62142470D01*
X179810441Y-61978391D01*
X179561067Y-61950600D01*
X179274784Y-61994880D01*
X179274784Y-61994880D01*
G37*
X179274784Y-61994880D02*
X179157585Y-62194142D01*
X179137734Y-62543266D01*
X179106105Y-62944062D01*
X178963775Y-63108141D01*
X178714400Y-63135933D01*
X178392157Y-63205872D01*
X178292855Y-63481252D01*
X178291067Y-63559266D01*
X178361006Y-63881510D01*
X178636387Y-63980812D01*
X178714400Y-63982600D01*
X178933936Y-63999572D01*
X179060434Y-64099229D01*
X179119509Y-64354678D01*
X179136775Y-64839025D01*
X179137734Y-65190849D01*
X179124162Y-65847440D01*
X179065633Y-66266884D01*
X178935427Y-66550206D01*
X178714400Y-66791430D01*
X178421241Y-67160303D01*
X178291423Y-67515923D01*
X178291067Y-67530514D01*
X178386327Y-67801269D01*
X178714400Y-67877266D01*
X179054878Y-67788945D01*
X179137734Y-67623266D01*
X179235562Y-67398024D01*
X179319162Y-67369266D01*
X179625486Y-67271496D01*
X179830032Y-66953735D01*
X179945409Y-66379308D01*
X179984224Y-65511539D01*
X179984400Y-65434028D01*
X179988208Y-64733503D01*
X180012613Y-64304870D01*
X180077091Y-64081357D01*
X180201117Y-63996191D01*
X180404168Y-63982600D01*
X180407734Y-63982600D01*
X180729977Y-63912661D01*
X180829279Y-63637280D01*
X180831067Y-63559266D01*
X180761128Y-63237023D01*
X180485748Y-63137721D01*
X180407734Y-63135933D01*
X180121451Y-63091653D01*
X180004252Y-62892390D01*
X179984400Y-62543266D01*
X179952772Y-62142470D01*
X179810441Y-61978391D01*
X179561067Y-61950600D01*
X179274784Y-61994880D01*
G36*
X184354784Y-61994880D02*
G01*
X184237585Y-62194142D01*
X184217734Y-62543266D01*
X184186105Y-62944062D01*
X184043775Y-63108141D01*
X183794400Y-63135933D01*
X183468336Y-63254323D01*
X183339610Y-63523916D01*
X183414418Y-63816347D01*
X183698954Y-64003247D01*
X183752067Y-64013156D01*
X183950793Y-64070000D01*
X184070613Y-64220661D01*
X184136821Y-64540401D01*
X184174709Y-65104483D01*
X184182819Y-65294933D01*
X184197265Y-65943011D01*
X184167763Y-66319585D01*
X184083004Y-66490243D01*
X183971152Y-66522600D01*
X183741923Y-66654867D01*
X183709734Y-66776600D01*
X183618299Y-67001943D01*
X183540400Y-67030600D01*
X183413109Y-67175512D01*
X183371067Y-67453933D01*
X183441006Y-67776176D01*
X183716387Y-67875478D01*
X183794400Y-67877266D01*
X184112563Y-67815194D01*
X184217734Y-67695838D01*
X184345998Y-67408579D01*
X184627523Y-67135762D01*
X184882972Y-67030600D01*
X184977825Y-66866335D01*
X185039221Y-66391099D01*
X185064026Y-65631225D01*
X185064400Y-65506600D01*
X185067771Y-64785165D01*
X185089952Y-64337226D01*
X185149047Y-64097612D01*
X185263158Y-64001151D01*
X185450387Y-63982674D01*
X185487734Y-63982600D01*
X185809977Y-63912661D01*
X185909279Y-63637280D01*
X185911067Y-63559266D01*
X185841128Y-63237023D01*
X185565748Y-63137721D01*
X185487734Y-63135933D01*
X185201451Y-63091653D01*
X185084252Y-62892390D01*
X185064400Y-62543266D01*
X185032772Y-62142470D01*
X184890441Y-61978391D01*
X184641067Y-61950600D01*
X184354784Y-61994880D01*
X184354784Y-61994880D01*
G37*
X184354784Y-61994880D02*
X184237585Y-62194142D01*
X184217734Y-62543266D01*
X184186105Y-62944062D01*
X184043775Y-63108141D01*
X183794400Y-63135933D01*
X183468336Y-63254323D01*
X183339610Y-63523916D01*
X183414418Y-63816347D01*
X183698954Y-64003247D01*
X183752067Y-64013156D01*
X183950793Y-64070000D01*
X184070613Y-64220661D01*
X184136821Y-64540401D01*
X184174709Y-65104483D01*
X184182819Y-65294933D01*
X184197265Y-65943011D01*
X184167763Y-66319585D01*
X184083004Y-66490243D01*
X183971152Y-66522600D01*
X183741923Y-66654867D01*
X183709734Y-66776600D01*
X183618299Y-67001943D01*
X183540400Y-67030600D01*
X183413109Y-67175512D01*
X183371067Y-67453933D01*
X183441006Y-67776176D01*
X183716387Y-67875478D01*
X183794400Y-67877266D01*
X184112563Y-67815194D01*
X184217734Y-67695838D01*
X184345998Y-67408579D01*
X184627523Y-67135762D01*
X184882972Y-67030600D01*
X184977825Y-66866335D01*
X185039221Y-66391099D01*
X185064026Y-65631225D01*
X185064400Y-65506600D01*
X185067771Y-64785165D01*
X185089952Y-64337226D01*
X185149047Y-64097612D01*
X185263158Y-64001151D01*
X185450387Y-63982674D01*
X185487734Y-63982600D01*
X185809977Y-63912661D01*
X185909279Y-63637280D01*
X185911067Y-63559266D01*
X185841128Y-63237023D01*
X185565748Y-63137721D01*
X185487734Y-63135933D01*
X185201451Y-63091653D01*
X185084252Y-62892390D01*
X185064400Y-62543266D01*
X185032772Y-62142470D01*
X184890441Y-61978391D01*
X184641067Y-61950600D01*
X184354784Y-61994880D01*
G36*
X191287400Y-63166489D02*
G01*
X191111716Y-63211478D01*
X190997497Y-63329299D01*
X190928491Y-63584484D01*
X190888442Y-64041569D01*
X190861097Y-64765088D01*
X190857935Y-64871600D01*
X190821669Y-65576930D01*
X190763445Y-66130585D01*
X190692424Y-66461093D01*
X190646269Y-66522600D01*
X190501448Y-66659845D01*
X190483067Y-66776600D01*
X190392428Y-66936331D01*
X190078613Y-67014346D01*
X189636400Y-67030600D01*
X189103963Y-67003408D01*
X188843912Y-66909263D01*
X188789734Y-66776600D01*
X188701550Y-66551207D01*
X188626532Y-66522600D01*
X188552189Y-66365181D01*
X188484996Y-65940575D01*
X188434116Y-65320254D01*
X188414866Y-64871600D01*
X188387949Y-64112199D01*
X188350257Y-63626886D01*
X188285535Y-63351128D01*
X188177528Y-63220388D01*
X188009983Y-63170134D01*
X187985400Y-63166489D01*
X187819698Y-63155249D01*
X187710715Y-63215735D01*
X187646572Y-63404879D01*
X187615390Y-63779619D01*
X187605289Y-64396887D01*
X187604400Y-64992529D01*
X187607318Y-65813600D01*
X187626781Y-66370512D01*
X187678862Y-66737771D01*
X187779628Y-66989884D01*
X187945149Y-67201358D01*
X188118239Y-67374973D01*
X188442942Y-67656813D01*
X188760808Y-67805329D01*
X189196569Y-67859195D01*
X189684572Y-67860607D01*
X190300634Y-67831402D01*
X190700173Y-67741251D01*
X191004688Y-67550035D01*
X191202734Y-67359306D01*
X191406070Y-67132042D01*
X191539528Y-66906662D01*
X191617795Y-66608547D01*
X191655560Y-66163076D01*
X191667510Y-65495629D01*
X191668400Y-64993521D01*
X191665912Y-64175915D01*
X191650533Y-63640052D01*
X191610394Y-63329013D01*
X191533625Y-63185877D01*
X191408355Y-63153722D01*
X191287400Y-63166489D01*
X191287400Y-63166489D01*
G37*
X191287400Y-63166489D02*
X191111716Y-63211478D01*
X190997497Y-63329299D01*
X190928491Y-63584484D01*
X190888442Y-64041569D01*
X190861097Y-64765088D01*
X190857935Y-64871600D01*
X190821669Y-65576930D01*
X190763445Y-66130585D01*
X190692424Y-66461093D01*
X190646269Y-66522600D01*
X190501448Y-66659845D01*
X190483067Y-66776600D01*
X190392428Y-66936331D01*
X190078613Y-67014346D01*
X189636400Y-67030600D01*
X189103963Y-67003408D01*
X188843912Y-66909263D01*
X188789734Y-66776600D01*
X188701550Y-66551207D01*
X188626532Y-66522600D01*
X188552189Y-66365181D01*
X188484996Y-65940575D01*
X188434116Y-65320254D01*
X188414866Y-64871600D01*
X188387949Y-64112199D01*
X188350257Y-63626886D01*
X188285535Y-63351128D01*
X188177528Y-63220388D01*
X188009983Y-63170134D01*
X187985400Y-63166489D01*
X187819698Y-63155249D01*
X187710715Y-63215735D01*
X187646572Y-63404879D01*
X187615390Y-63779619D01*
X187605289Y-64396887D01*
X187604400Y-64992529D01*
X187607318Y-65813600D01*
X187626781Y-66370512D01*
X187678862Y-66737771D01*
X187779628Y-66989884D01*
X187945149Y-67201358D01*
X188118239Y-67374973D01*
X188442942Y-67656813D01*
X188760808Y-67805329D01*
X189196569Y-67859195D01*
X189684572Y-67860607D01*
X190300634Y-67831402D01*
X190700173Y-67741251D01*
X191004688Y-67550035D01*
X191202734Y-67359306D01*
X191406070Y-67132042D01*
X191539528Y-66906662D01*
X191617795Y-66608547D01*
X191655560Y-66163076D01*
X191667510Y-65495629D01*
X191668400Y-64993521D01*
X191665912Y-64175915D01*
X191650533Y-63640052D01*
X191610394Y-63329013D01*
X191533625Y-63185877D01*
X191408355Y-63153722D01*
X191287400Y-63166489D01*
G36*
X194345451Y-61994880D02*
G01*
X194228252Y-62194142D01*
X194208400Y-62543266D01*
X194176772Y-62944062D01*
X194034441Y-63108141D01*
X193785067Y-63135933D01*
X193462824Y-63205872D01*
X193363522Y-63481252D01*
X193361734Y-63559266D01*
X193431673Y-63881510D01*
X193707053Y-63980812D01*
X193785067Y-63982600D01*
X194004603Y-63999572D01*
X194131101Y-64099229D01*
X194190176Y-64354678D01*
X194207441Y-64839025D01*
X194208400Y-65190849D01*
X194194829Y-65847440D01*
X194136300Y-66266884D01*
X194006094Y-66550206D01*
X193785067Y-66791430D01*
X193491907Y-67160303D01*
X193362090Y-67515923D01*
X193361734Y-67530514D01*
X193456994Y-67801269D01*
X193785067Y-67877266D01*
X194125544Y-67788945D01*
X194208400Y-67623266D01*
X194306229Y-67398024D01*
X194389829Y-67369266D01*
X194691928Y-67263740D01*
X194901304Y-66924343D01*
X195030671Y-66316846D01*
X195090241Y-65483521D01*
X195120970Y-64789628D01*
X195167284Y-64364466D01*
X195249648Y-64138131D01*
X195388528Y-64040722D01*
X195520734Y-64013156D01*
X195833191Y-63849578D01*
X195935109Y-63563662D01*
X195832682Y-63283775D01*
X195532105Y-63138282D01*
X195478400Y-63135933D01*
X195192118Y-63091653D01*
X195074919Y-62892390D01*
X195055067Y-62543266D01*
X195023439Y-62142470D01*
X194881108Y-61978391D01*
X194631734Y-61950600D01*
X194345451Y-61994880D01*
X194345451Y-61994880D01*
G37*
X194345451Y-61994880D02*
X194228252Y-62194142D01*
X194208400Y-62543266D01*
X194176772Y-62944062D01*
X194034441Y-63108141D01*
X193785067Y-63135933D01*
X193462824Y-63205872D01*
X193363522Y-63481252D01*
X193361734Y-63559266D01*
X193431673Y-63881510D01*
X193707053Y-63980812D01*
X193785067Y-63982600D01*
X194004603Y-63999572D01*
X194131101Y-64099229D01*
X194190176Y-64354678D01*
X194207441Y-64839025D01*
X194208400Y-65190849D01*
X194194829Y-65847440D01*
X194136300Y-66266884D01*
X194006094Y-66550206D01*
X193785067Y-66791430D01*
X193491907Y-67160303D01*
X193362090Y-67515923D01*
X193361734Y-67530514D01*
X193456994Y-67801269D01*
X193785067Y-67877266D01*
X194125544Y-67788945D01*
X194208400Y-67623266D01*
X194306229Y-67398024D01*
X194389829Y-67369266D01*
X194691928Y-67263740D01*
X194901304Y-66924343D01*
X195030671Y-66316846D01*
X195090241Y-65483521D01*
X195120970Y-64789628D01*
X195167284Y-64364466D01*
X195249648Y-64138131D01*
X195388528Y-64040722D01*
X195520734Y-64013156D01*
X195833191Y-63849578D01*
X195935109Y-63563662D01*
X195832682Y-63283775D01*
X195532105Y-63138282D01*
X195478400Y-63135933D01*
X195192118Y-63091653D01*
X195074919Y-62892390D01*
X195055067Y-62543266D01*
X195023439Y-62142470D01*
X194881108Y-61978391D01*
X194631734Y-61950600D01*
X194345451Y-61994880D01*
G36*
X199288400Y-65252600D02*
G01*
X199275095Y-65922490D01*
X199227013Y-66315709D01*
X199131905Y-66493501D01*
X199034400Y-66522600D01*
X198809904Y-66658145D01*
X198780400Y-66776600D01*
X198688965Y-67001943D01*
X198611067Y-67030600D01*
X198483775Y-67175512D01*
X198441734Y-67453933D01*
X198511673Y-67776176D01*
X198787053Y-67875478D01*
X198865067Y-67877266D01*
X199183229Y-67815194D01*
X199288400Y-67695838D01*
X199416665Y-67408579D01*
X199698190Y-67135762D01*
X199953639Y-67030600D01*
X200056368Y-66871012D01*
X200119323Y-66428424D01*
X200135067Y-65929933D01*
X200142490Y-65338262D01*
X200184378Y-65008708D01*
X200290159Y-64864759D01*
X200489260Y-64829901D01*
X200558400Y-64829266D01*
X200880644Y-64759327D01*
X200979946Y-64483947D01*
X200981734Y-64405933D01*
X200954283Y-64154689D01*
X200814193Y-64029349D01*
X200474854Y-63986610D01*
X200135067Y-63982600D01*
X199288400Y-63982600D01*
X199288400Y-65252600D01*
X199288400Y-65252600D01*
G37*
X199288400Y-65252600D02*
X199275095Y-65922490D01*
X199227013Y-66315709D01*
X199131905Y-66493501D01*
X199034400Y-66522600D01*
X198809904Y-66658145D01*
X198780400Y-66776600D01*
X198688965Y-67001943D01*
X198611067Y-67030600D01*
X198483775Y-67175512D01*
X198441734Y-67453933D01*
X198511673Y-67776176D01*
X198787053Y-67875478D01*
X198865067Y-67877266D01*
X199183229Y-67815194D01*
X199288400Y-67695838D01*
X199416665Y-67408579D01*
X199698190Y-67135762D01*
X199953639Y-67030600D01*
X200056368Y-66871012D01*
X200119323Y-66428424D01*
X200135067Y-65929933D01*
X200142490Y-65338262D01*
X200184378Y-65008708D01*
X200290159Y-64864759D01*
X200489260Y-64829901D01*
X200558400Y-64829266D01*
X200880644Y-64759327D01*
X200979946Y-64483947D01*
X200981734Y-64405933D01*
X200954283Y-64154689D01*
X200814193Y-64029349D01*
X200474854Y-63986610D01*
X200135067Y-63982600D01*
X199288400Y-63982600D01*
X199288400Y-65252600D01*
G36*
X203947789Y-63155440D02*
G01*
X203631050Y-63224590D01*
X203523738Y-63359329D01*
X203521734Y-63389933D01*
X203423906Y-63615175D01*
X203340305Y-63643933D01*
X203066978Y-63711933D01*
X202876005Y-63944936D01*
X202755175Y-64386449D01*
X202692279Y-65079979D01*
X202675067Y-66014282D01*
X202677540Y-66833277D01*
X202692840Y-67370452D01*
X202732784Y-67682653D01*
X202809193Y-67826724D01*
X202933886Y-67859510D01*
X203056067Y-67846710D01*
X203235383Y-67799994D01*
X203350605Y-67677399D01*
X203419234Y-67412718D01*
X203458769Y-66939741D01*
X203485829Y-66220694D01*
X203539230Y-65300479D01*
X203652555Y-64667262D01*
X203856037Y-64270678D01*
X204179911Y-64060363D01*
X204654411Y-63985951D01*
X204829367Y-63982600D01*
X205317853Y-64019299D01*
X205531735Y-64142823D01*
X205553734Y-64236600D01*
X205641918Y-64461992D01*
X205716935Y-64490600D01*
X205791278Y-64648018D01*
X205858471Y-65072624D01*
X205909352Y-65692945D01*
X205928602Y-66141600D01*
X205955497Y-66900958D01*
X205993148Y-67386238D01*
X206057838Y-67661984D01*
X206165853Y-67792740D01*
X206333476Y-67843049D01*
X206358824Y-67846809D01*
X206692927Y-67800339D01*
X206829967Y-67668083D01*
X206860599Y-67416261D01*
X206878773Y-66899976D01*
X206883172Y-66193250D01*
X206872483Y-65370103D01*
X206871543Y-65327873D01*
X206848981Y-64452145D01*
X206820756Y-63858216D01*
X206775576Y-63489264D01*
X206702148Y-63288470D01*
X206589179Y-63199012D01*
X206441977Y-63166390D01*
X206084785Y-63227895D01*
X205958193Y-63378056D01*
X205782040Y-63613959D01*
X205610168Y-63591771D01*
X205553734Y-63389933D01*
X205475707Y-63242447D01*
X205199105Y-63163262D01*
X204660150Y-63136434D01*
X204537734Y-63135933D01*
X203947789Y-63155440D01*
X203947789Y-63155440D01*
G37*
X203947789Y-63155440D02*
X203631050Y-63224590D01*
X203523738Y-63359329D01*
X203521734Y-63389933D01*
X203423906Y-63615175D01*
X203340305Y-63643933D01*
X203066978Y-63711933D01*
X202876005Y-63944936D01*
X202755175Y-64386449D01*
X202692279Y-65079979D01*
X202675067Y-66014282D01*
X202677540Y-66833277D01*
X202692840Y-67370452D01*
X202732784Y-67682653D01*
X202809193Y-67826724D01*
X202933886Y-67859510D01*
X203056067Y-67846710D01*
X203235383Y-67799994D01*
X203350605Y-67677399D01*
X203419234Y-67412718D01*
X203458769Y-66939741D01*
X203485829Y-66220694D01*
X203539230Y-65300479D01*
X203652555Y-64667262D01*
X203856037Y-64270678D01*
X204179911Y-64060363D01*
X204654411Y-63985951D01*
X204829367Y-63982600D01*
X205317853Y-64019299D01*
X205531735Y-64142823D01*
X205553734Y-64236600D01*
X205641918Y-64461992D01*
X205716935Y-64490600D01*
X205791278Y-64648018D01*
X205858471Y-65072624D01*
X205909352Y-65692945D01*
X205928602Y-66141600D01*
X205955497Y-66900958D01*
X205993148Y-67386238D01*
X206057838Y-67661984D01*
X206165853Y-67792740D01*
X206333476Y-67843049D01*
X206358824Y-67846809D01*
X206692927Y-67800339D01*
X206829967Y-67668083D01*
X206860599Y-67416261D01*
X206878773Y-66899976D01*
X206883172Y-66193250D01*
X206872483Y-65370103D01*
X206871543Y-65327873D01*
X206848981Y-64452145D01*
X206820756Y-63858216D01*
X206775576Y-63489264D01*
X206702148Y-63288470D01*
X206589179Y-63199012D01*
X206441977Y-63166390D01*
X206084785Y-63227895D01*
X205958193Y-63378056D01*
X205782040Y-63613959D01*
X205610168Y-63591771D01*
X205553734Y-63389933D01*
X205475707Y-63242447D01*
X205199105Y-63163262D01*
X204660150Y-63136434D01*
X204537734Y-63135933D01*
X203947789Y-63155440D01*
G36*
X211055257Y-63224254D02*
G01*
X210972400Y-63389933D01*
X210890589Y-63615415D01*
X210821184Y-63643933D01*
X210636071Y-63509175D01*
X210572498Y-63389933D01*
X210375561Y-63221039D01*
X209920106Y-63144051D01*
X209606115Y-63135933D01*
X209040082Y-63166838D01*
X208647359Y-63303127D01*
X208264961Y-63610163D01*
X208155423Y-63717710D01*
X207573646Y-64299488D01*
X207622023Y-66046044D01*
X207647853Y-66830923D01*
X207683022Y-67339848D01*
X207742474Y-67635485D01*
X207841152Y-67780498D01*
X207993998Y-67837554D01*
X208051400Y-67846710D01*
X208223813Y-67857461D01*
X208334349Y-67790941D01*
X208396753Y-67587584D01*
X208424771Y-67187824D01*
X208432149Y-66532096D01*
X208432400Y-66195710D01*
X208440705Y-65402943D01*
X208471134Y-64893001D01*
X208531966Y-64610328D01*
X208631475Y-64499365D01*
X208686400Y-64490600D01*
X208910897Y-64355054D01*
X208940400Y-64236600D01*
X209045061Y-64065311D01*
X209397331Y-63990313D01*
X209664768Y-63982600D01*
X210196659Y-64025716D01*
X210564701Y-64188154D01*
X210797261Y-64519547D01*
X210922705Y-65069528D01*
X210969402Y-65887731D01*
X210972400Y-66270535D01*
X210975349Y-67015235D01*
X210995345Y-67484744D01*
X211049112Y-67742536D01*
X211153374Y-67852087D01*
X211324856Y-67876871D01*
X211395734Y-67877266D01*
X211819067Y-67877266D01*
X211819067Y-63135933D01*
X211395734Y-63135933D01*
X211055257Y-63224254D01*
X211055257Y-63224254D01*
G37*
X211055257Y-63224254D02*
X210972400Y-63389933D01*
X210890589Y-63615415D01*
X210821184Y-63643933D01*
X210636071Y-63509175D01*
X210572498Y-63389933D01*
X210375561Y-63221039D01*
X209920106Y-63144051D01*
X209606115Y-63135933D01*
X209040082Y-63166838D01*
X208647359Y-63303127D01*
X208264961Y-63610163D01*
X208155423Y-63717710D01*
X207573646Y-64299488D01*
X207622023Y-66046044D01*
X207647853Y-66830923D01*
X207683022Y-67339848D01*
X207742474Y-67635485D01*
X207841152Y-67780498D01*
X207993998Y-67837554D01*
X208051400Y-67846710D01*
X208223813Y-67857461D01*
X208334349Y-67790941D01*
X208396753Y-67587584D01*
X208424771Y-67187824D01*
X208432149Y-66532096D01*
X208432400Y-66195710D01*
X208440705Y-65402943D01*
X208471134Y-64893001D01*
X208531966Y-64610328D01*
X208631475Y-64499365D01*
X208686400Y-64490600D01*
X208910897Y-64355054D01*
X208940400Y-64236600D01*
X209045061Y-64065311D01*
X209397331Y-63990313D01*
X209664768Y-63982600D01*
X210196659Y-64025716D01*
X210564701Y-64188154D01*
X210797261Y-64519547D01*
X210922705Y-65069528D01*
X210969402Y-65887731D01*
X210972400Y-66270535D01*
X210975349Y-67015235D01*
X210995345Y-67484744D01*
X211049112Y-67742536D01*
X211153374Y-67852087D01*
X211324856Y-67876871D01*
X211395734Y-67877266D01*
X211819067Y-67877266D01*
X211819067Y-63135933D01*
X211395734Y-63135933D01*
X211055257Y-63224254D01*
G36*
X214205319Y-62809841D02*
G01*
X213786030Y-62868789D01*
X213487253Y-63005951D01*
X213200067Y-63253164D01*
X213160708Y-63292241D01*
X212952615Y-63510609D01*
X212812952Y-63718677D01*
X212728075Y-63986456D01*
X212684342Y-64383957D01*
X212668110Y-64981193D01*
X212665734Y-65832241D01*
X212665734Y-67877266D01*
X213089067Y-67877266D01*
X213429544Y-67788945D01*
X213512400Y-67623266D01*
X213594212Y-67397784D01*
X213663617Y-67369266D01*
X213848730Y-67504024D01*
X213912303Y-67623266D01*
X214109564Y-67754837D01*
X214513501Y-67843821D01*
X215016922Y-67886584D01*
X215512637Y-67879492D01*
X215893454Y-67818909D01*
X216052184Y-67701201D01*
X216052400Y-67695838D01*
X216180665Y-67408579D01*
X216462190Y-67135762D01*
X216717639Y-67030600D01*
X216828270Y-66878319D01*
X216892033Y-66488142D01*
X216899067Y-66274438D01*
X216882059Y-66099266D01*
X216052400Y-66099266D01*
X215964079Y-66439743D01*
X215798400Y-66522600D01*
X215573904Y-66658145D01*
X215544400Y-66776600D01*
X215403379Y-66964612D01*
X215052594Y-67042047D01*
X214600462Y-67014325D01*
X214155401Y-66886868D01*
X213851067Y-66691933D01*
X213602529Y-66330694D01*
X213520309Y-65974394D01*
X213613137Y-65727801D01*
X213766400Y-65675933D01*
X213991744Y-65584498D01*
X214020400Y-65506600D01*
X214171749Y-65405613D01*
X214554676Y-65345036D01*
X214782400Y-65337266D01*
X215236839Y-65370899D01*
X215509436Y-65455994D01*
X215544400Y-65506600D01*
X215681553Y-65656829D01*
X215798400Y-65675933D01*
X216002687Y-65823135D01*
X216052400Y-66099266D01*
X216882059Y-66099266D01*
X216843211Y-65699172D01*
X216626785Y-65265836D01*
X216396774Y-65004438D01*
X216071946Y-64711265D01*
X215749139Y-64556786D01*
X215300665Y-64497950D01*
X214872774Y-64490600D01*
X214329267Y-64516178D01*
X213960537Y-64583065D01*
X213851067Y-64659933D01*
X213722209Y-64824346D01*
X213681734Y-64829266D01*
X213554442Y-64684354D01*
X213512400Y-64405933D01*
X213600722Y-64065456D01*
X213766400Y-63982600D01*
X213991744Y-63891164D01*
X214020400Y-63813266D01*
X214174639Y-63723070D01*
X214577566Y-63661919D01*
X215036400Y-63643933D01*
X215599481Y-63634969D01*
X215903488Y-63585989D01*
X216027946Y-63463857D01*
X216052378Y-63235438D01*
X216052400Y-63220600D01*
X216035232Y-63000364D01*
X215934793Y-62873829D01*
X215677680Y-62815065D01*
X215190490Y-62798142D01*
X214854042Y-62797266D01*
X214205319Y-62809841D01*
X214205319Y-62809841D01*
G37*
X214205319Y-62809841D02*
X213786030Y-62868789D01*
X213487253Y-63005951D01*
X213200067Y-63253164D01*
X213160708Y-63292241D01*
X212952615Y-63510609D01*
X212812952Y-63718677D01*
X212728075Y-63986456D01*
X212684342Y-64383957D01*
X212668110Y-64981193D01*
X212665734Y-65832241D01*
X212665734Y-67877266D01*
X213089067Y-67877266D01*
X213429544Y-67788945D01*
X213512400Y-67623266D01*
X213594212Y-67397784D01*
X213663617Y-67369266D01*
X213848730Y-67504024D01*
X213912303Y-67623266D01*
X214109564Y-67754837D01*
X214513501Y-67843821D01*
X215016922Y-67886584D01*
X215512637Y-67879492D01*
X215893454Y-67818909D01*
X216052184Y-67701201D01*
X216052400Y-67695838D01*
X216180665Y-67408579D01*
X216462190Y-67135762D01*
X216717639Y-67030600D01*
X216828270Y-66878319D01*
X216892033Y-66488142D01*
X216899067Y-66274438D01*
X216882059Y-66099266D01*
X216052400Y-66099266D01*
X215964079Y-66439743D01*
X215798400Y-66522600D01*
X215573904Y-66658145D01*
X215544400Y-66776600D01*
X215403379Y-66964612D01*
X215052594Y-67042047D01*
X214600462Y-67014325D01*
X214155401Y-66886868D01*
X213851067Y-66691933D01*
X213602529Y-66330694D01*
X213520309Y-65974394D01*
X213613137Y-65727801D01*
X213766400Y-65675933D01*
X213991744Y-65584498D01*
X214020400Y-65506600D01*
X214171749Y-65405613D01*
X214554676Y-65345036D01*
X214782400Y-65337266D01*
X215236839Y-65370899D01*
X215509436Y-65455994D01*
X215544400Y-65506600D01*
X215681553Y-65656829D01*
X215798400Y-65675933D01*
X216002687Y-65823135D01*
X216052400Y-66099266D01*
X216882059Y-66099266D01*
X216843211Y-65699172D01*
X216626785Y-65265836D01*
X216396774Y-65004438D01*
X216071946Y-64711265D01*
X215749139Y-64556786D01*
X215300665Y-64497950D01*
X214872774Y-64490600D01*
X214329267Y-64516178D01*
X213960537Y-64583065D01*
X213851067Y-64659933D01*
X213722209Y-64824346D01*
X213681734Y-64829266D01*
X213554442Y-64684354D01*
X213512400Y-64405933D01*
X213600722Y-64065456D01*
X213766400Y-63982600D01*
X213991744Y-63891164D01*
X214020400Y-63813266D01*
X214174639Y-63723070D01*
X214577566Y-63661919D01*
X215036400Y-63643933D01*
X215599481Y-63634969D01*
X215903488Y-63585989D01*
X216027946Y-63463857D01*
X216052378Y-63235438D01*
X216052400Y-63220600D01*
X216035232Y-63000364D01*
X215934793Y-62873829D01*
X215677680Y-62815065D01*
X215190490Y-62798142D01*
X214854042Y-62797266D01*
X214205319Y-62809841D01*
G36*
X218375006Y-61968250D02*
G01*
X218152871Y-62054932D01*
X218087221Y-62261241D01*
X218084400Y-62373933D01*
X218121370Y-62646679D01*
X218295751Y-62767905D01*
X218702747Y-62797115D01*
X218761734Y-62797266D01*
X219185882Y-62834822D01*
X219421795Y-62928642D01*
X219439067Y-62966600D01*
X219288843Y-63072636D01*
X218913564Y-63131615D01*
X218761734Y-63135933D01*
X218324888Y-63159514D01*
X218130759Y-63268804D01*
X218084547Y-63521622D01*
X218084400Y-63549044D01*
X218133349Y-63827754D01*
X218343983Y-63961984D01*
X218719400Y-64014711D01*
X219354400Y-64067266D01*
X219402280Y-65972266D01*
X219428300Y-66803056D01*
X219463583Y-67352035D01*
X219518658Y-67676057D01*
X219604052Y-67831975D01*
X219730295Y-67876644D01*
X219755057Y-67877266D01*
X220074794Y-67821010D01*
X220172845Y-67764377D01*
X220218817Y-67558458D01*
X220255767Y-67088537D01*
X220279370Y-66429244D01*
X220285734Y-65817044D01*
X220285734Y-63982600D01*
X220878400Y-63982600D01*
X221279197Y-63950971D01*
X221443275Y-63808640D01*
X221471067Y-63559266D01*
X221426787Y-63272983D01*
X221227524Y-63155784D01*
X220878400Y-63135933D01*
X220461887Y-63092921D01*
X220298027Y-62937441D01*
X220285734Y-62834899D01*
X220130914Y-62420485D01*
X219709801Y-62116163D01*
X219087409Y-61961823D01*
X218844465Y-61950600D01*
X218375006Y-61968250D01*
X218375006Y-61968250D01*
G37*
X218375006Y-61968250D02*
X218152871Y-62054932D01*
X218087221Y-62261241D01*
X218084400Y-62373933D01*
X218121370Y-62646679D01*
X218295751Y-62767905D01*
X218702747Y-62797115D01*
X218761734Y-62797266D01*
X219185882Y-62834822D01*
X219421795Y-62928642D01*
X219439067Y-62966600D01*
X219288843Y-63072636D01*
X218913564Y-63131615D01*
X218761734Y-63135933D01*
X218324888Y-63159514D01*
X218130759Y-63268804D01*
X218084547Y-63521622D01*
X218084400Y-63549044D01*
X218133349Y-63827754D01*
X218343983Y-63961984D01*
X218719400Y-64014711D01*
X219354400Y-64067266D01*
X219402280Y-65972266D01*
X219428300Y-66803056D01*
X219463583Y-67352035D01*
X219518658Y-67676057D01*
X219604052Y-67831975D01*
X219730295Y-67876644D01*
X219755057Y-67877266D01*
X220074794Y-67821010D01*
X220172845Y-67764377D01*
X220218817Y-67558458D01*
X220255767Y-67088537D01*
X220279370Y-66429244D01*
X220285734Y-65817044D01*
X220285734Y-63982600D01*
X220878400Y-63982600D01*
X221279197Y-63950971D01*
X221443275Y-63808640D01*
X221471067Y-63559266D01*
X221426787Y-63272983D01*
X221227524Y-63155784D01*
X220878400Y-63135933D01*
X220461887Y-63092921D01*
X220298027Y-62937441D01*
X220285734Y-62834899D01*
X220130914Y-62420485D01*
X219709801Y-62116163D01*
X219087409Y-61961823D01*
X218844465Y-61950600D01*
X218375006Y-61968250D01*
G36*
X222656400Y-66725800D02*
G01*
X223232134Y-67301533D01*
X223571396Y-67614376D01*
X223876732Y-67787142D01*
X224269309Y-67861027D01*
X224870294Y-67877228D01*
X224925467Y-67877266D01*
X225522734Y-67870106D01*
X225857314Y-67829449D01*
X226005155Y-67726525D01*
X226042203Y-67532569D01*
X226043067Y-67453933D01*
X226021555Y-67219316D01*
X225904002Y-67092646D01*
X225610884Y-67040789D01*
X225062679Y-67030609D01*
X225027067Y-67030600D01*
X224437122Y-67011093D01*
X224120383Y-66941942D01*
X224013071Y-66807204D01*
X224011067Y-66776600D01*
X223919632Y-66551256D01*
X223841734Y-66522600D01*
X223729810Y-66373742D01*
X223673863Y-66007712D01*
X223672400Y-65929933D01*
X223696734Y-65537985D01*
X223756560Y-65342307D01*
X223769162Y-65337266D01*
X223986756Y-65461370D01*
X224225311Y-65729839D01*
X224348886Y-65986909D01*
X224349734Y-66002504D01*
X224502014Y-66113135D01*
X224892191Y-66176898D01*
X225105896Y-66183933D01*
X225681162Y-66128076D01*
X226114497Y-65911650D01*
X226375896Y-65681640D01*
X226648510Y-65387107D01*
X226802830Y-65100762D01*
X226872092Y-64713078D01*
X226889532Y-64114527D01*
X226889734Y-63988307D01*
X226883580Y-63367207D01*
X226847672Y-63011132D01*
X226755842Y-62846458D01*
X226581922Y-62799562D01*
X226466400Y-62797266D01*
X226231784Y-62818779D01*
X226105114Y-62936332D01*
X226053257Y-63229449D01*
X226043077Y-63777655D01*
X226043067Y-63813266D01*
X226017361Y-64354446D01*
X225950206Y-64721347D01*
X225873734Y-64829266D01*
X225723505Y-64966419D01*
X225704400Y-65083266D01*
X225557199Y-65287552D01*
X225281067Y-65337266D01*
X224940590Y-65248945D01*
X224857734Y-65083266D01*
X224759906Y-64858024D01*
X224676305Y-64829266D01*
X224357585Y-64684788D01*
X224099863Y-64343573D01*
X224011067Y-63994695D01*
X223942352Y-63713032D01*
X223841734Y-63643933D01*
X223714442Y-63499021D01*
X223672400Y-63220600D01*
X223617726Y-62918055D01*
X223385310Y-62807376D01*
X223164400Y-62797266D01*
X222656400Y-62797266D01*
X222656400Y-66725800D01*
X222656400Y-66725800D01*
G37*
X222656400Y-66725800D02*
X223232134Y-67301533D01*
X223571396Y-67614376D01*
X223876732Y-67787142D01*
X224269309Y-67861027D01*
X224870294Y-67877228D01*
X224925467Y-67877266D01*
X225522734Y-67870106D01*
X225857314Y-67829449D01*
X226005155Y-67726525D01*
X226042203Y-67532569D01*
X226043067Y-67453933D01*
X226021555Y-67219316D01*
X225904002Y-67092646D01*
X225610884Y-67040789D01*
X225062679Y-67030609D01*
X225027067Y-67030600D01*
X224437122Y-67011093D01*
X224120383Y-66941942D01*
X224013071Y-66807204D01*
X224011067Y-66776600D01*
X223919632Y-66551256D01*
X223841734Y-66522600D01*
X223729810Y-66373742D01*
X223673863Y-66007712D01*
X223672400Y-65929933D01*
X223696734Y-65537985D01*
X223756560Y-65342307D01*
X223769162Y-65337266D01*
X223986756Y-65461370D01*
X224225311Y-65729839D01*
X224348886Y-65986909D01*
X224349734Y-66002504D01*
X224502014Y-66113135D01*
X224892191Y-66176898D01*
X225105896Y-66183933D01*
X225681162Y-66128076D01*
X226114497Y-65911650D01*
X226375896Y-65681640D01*
X226648510Y-65387107D01*
X226802830Y-65100762D01*
X226872092Y-64713078D01*
X226889532Y-64114527D01*
X226889734Y-63988307D01*
X226883580Y-63367207D01*
X226847672Y-63011132D01*
X226755842Y-62846458D01*
X226581922Y-62799562D01*
X226466400Y-62797266D01*
X226231784Y-62818779D01*
X226105114Y-62936332D01*
X226053257Y-63229449D01*
X226043077Y-63777655D01*
X226043067Y-63813266D01*
X226017361Y-64354446D01*
X225950206Y-64721347D01*
X225873734Y-64829266D01*
X225723505Y-64966419D01*
X225704400Y-65083266D01*
X225557199Y-65287552D01*
X225281067Y-65337266D01*
X224940590Y-65248945D01*
X224857734Y-65083266D01*
X224759906Y-64858024D01*
X224676305Y-64829266D01*
X224357585Y-64684788D01*
X224099863Y-64343573D01*
X224011067Y-63994695D01*
X223942352Y-63713032D01*
X223841734Y-63643933D01*
X223714442Y-63499021D01*
X223672400Y-63220600D01*
X223617726Y-62918055D01*
X223385310Y-62807376D01*
X223164400Y-62797266D01*
X222656400Y-62797266D01*
X222656400Y-66725800D01*
G36*
X229157556Y-63159051D02*
G01*
X228720989Y-63224524D01*
X228583067Y-63317361D01*
X228454803Y-63604620D01*
X228173278Y-63877437D01*
X227917829Y-63982600D01*
X227804229Y-64132792D01*
X227741033Y-64508000D01*
X227736400Y-64659933D01*
X227778343Y-65130903D01*
X227917377Y-65324973D01*
X227990400Y-65337266D01*
X228215744Y-65428701D01*
X228244400Y-65506600D01*
X228403584Y-65589064D01*
X228841396Y-65647462D01*
X229498226Y-65674780D01*
X229683734Y-65675933D01*
X230383580Y-65682235D01*
X230811062Y-65711530D01*
X231032399Y-65779398D01*
X231113812Y-65901421D01*
X231123067Y-66014600D01*
X230969306Y-66488961D01*
X230558099Y-66842965D01*
X229964559Y-67020274D01*
X229768400Y-67030600D01*
X229297430Y-66988657D01*
X229103360Y-66849623D01*
X229091067Y-66776600D01*
X228979221Y-66599986D01*
X228608462Y-66527209D01*
X228413734Y-66522600D01*
X227942763Y-66564542D01*
X227748693Y-66703576D01*
X227736400Y-66776600D01*
X227834229Y-67001842D01*
X227917829Y-67030600D01*
X228205087Y-67158864D01*
X228477905Y-67440389D01*
X228583067Y-67695838D01*
X228744892Y-67795196D01*
X229203209Y-67857563D01*
X229853067Y-67877266D01*
X230522958Y-67863961D01*
X230916177Y-67815879D01*
X231093969Y-67720771D01*
X231123067Y-67623266D01*
X231220895Y-67398024D01*
X231304496Y-67369266D01*
X231618024Y-67264067D01*
X231825336Y-66925996D01*
X231938473Y-66321342D01*
X231969734Y-65506600D01*
X231937123Y-64744600D01*
X231123067Y-64744600D01*
X230967547Y-64785073D01*
X230556165Y-64815011D01*
X229971687Y-64828897D01*
X229853067Y-64829266D01*
X229213147Y-64808255D01*
X228767119Y-64751379D01*
X228584256Y-64667874D01*
X228583067Y-64659933D01*
X228720220Y-64509704D01*
X228837067Y-64490600D01*
X229061564Y-64355054D01*
X229091067Y-64236600D01*
X229232088Y-64048587D01*
X229582874Y-63971152D01*
X230035006Y-63998874D01*
X230480067Y-64126331D01*
X230784400Y-64321266D01*
X231030446Y-64593949D01*
X231123067Y-64744600D01*
X231937123Y-64744600D01*
X231932163Y-64628722D01*
X231811423Y-64048246D01*
X231595475Y-63731463D01*
X231304496Y-63643933D01*
X231143608Y-63506973D01*
X231123067Y-63389933D01*
X231056540Y-63255955D01*
X230816130Y-63177311D01*
X230340590Y-63141753D01*
X229853067Y-63135933D01*
X229157556Y-63159051D01*
X229157556Y-63159051D01*
G37*
X229157556Y-63159051D02*
X228720989Y-63224524D01*
X228583067Y-63317361D01*
X228454803Y-63604620D01*
X228173278Y-63877437D01*
X227917829Y-63982600D01*
X227804229Y-64132792D01*
X227741033Y-64508000D01*
X227736400Y-64659933D01*
X227778343Y-65130903D01*
X227917377Y-65324973D01*
X227990400Y-65337266D01*
X228215744Y-65428701D01*
X228244400Y-65506600D01*
X228403584Y-65589064D01*
X228841396Y-65647462D01*
X229498226Y-65674780D01*
X229683734Y-65675933D01*
X230383580Y-65682235D01*
X230811062Y-65711530D01*
X231032399Y-65779398D01*
X231113812Y-65901421D01*
X231123067Y-66014600D01*
X230969306Y-66488961D01*
X230558099Y-66842965D01*
X229964559Y-67020274D01*
X229768400Y-67030600D01*
X229297430Y-66988657D01*
X229103360Y-66849623D01*
X229091067Y-66776600D01*
X228979221Y-66599986D01*
X228608462Y-66527209D01*
X228413734Y-66522600D01*
X227942763Y-66564542D01*
X227748693Y-66703576D01*
X227736400Y-66776600D01*
X227834229Y-67001842D01*
X227917829Y-67030600D01*
X228205087Y-67158864D01*
X228477905Y-67440389D01*
X228583067Y-67695838D01*
X228744892Y-67795196D01*
X229203209Y-67857563D01*
X229853067Y-67877266D01*
X230522958Y-67863961D01*
X230916177Y-67815879D01*
X231093969Y-67720771D01*
X231123067Y-67623266D01*
X231220895Y-67398024D01*
X231304496Y-67369266D01*
X231618024Y-67264067D01*
X231825336Y-66925996D01*
X231938473Y-66321342D01*
X231969734Y-65506600D01*
X231937123Y-64744600D01*
X231123067Y-64744600D01*
X230967547Y-64785073D01*
X230556165Y-64815011D01*
X229971687Y-64828897D01*
X229853067Y-64829266D01*
X229213147Y-64808255D01*
X228767119Y-64751379D01*
X228584256Y-64667874D01*
X228583067Y-64659933D01*
X228720220Y-64509704D01*
X228837067Y-64490600D01*
X229061564Y-64355054D01*
X229091067Y-64236600D01*
X229232088Y-64048587D01*
X229582874Y-63971152D01*
X230035006Y-63998874D01*
X230480067Y-64126331D01*
X230784400Y-64321266D01*
X231030446Y-64593949D01*
X231123067Y-64744600D01*
X231937123Y-64744600D01*
X231932163Y-64628722D01*
X231811423Y-64048246D01*
X231595475Y-63731463D01*
X231304496Y-63643933D01*
X231143608Y-63506973D01*
X231123067Y-63389933D01*
X231056540Y-63255955D01*
X230816130Y-63177311D01*
X230340590Y-63141753D01*
X229853067Y-63135933D01*
X229157556Y-63159051D01*
G36*
X234157898Y-63152449D02*
G01*
X233809595Y-63211546D01*
X233672740Y-63327547D01*
X233663067Y-63389933D01*
X233565239Y-63615175D01*
X233481639Y-63643933D01*
X233162918Y-63788411D01*
X232905196Y-64129626D01*
X232816400Y-64478504D01*
X232932672Y-64756764D01*
X233218155Y-64829515D01*
X233577850Y-64703114D01*
X233900595Y-64405933D01*
X234196749Y-64119809D01*
X234596567Y-63999050D01*
X234956786Y-63982600D01*
X235417691Y-64001489D01*
X235632497Y-64093315D01*
X235693171Y-64310809D01*
X235695067Y-64405933D01*
X235650787Y-64692216D01*
X235451524Y-64809415D01*
X235102400Y-64829266D01*
X234664054Y-64884346D01*
X234510805Y-65060133D01*
X234509734Y-65083266D01*
X234362532Y-65287552D01*
X234086400Y-65337266D01*
X233768171Y-65395231D01*
X233663067Y-65506600D01*
X233525914Y-65656829D01*
X233409067Y-65675933D01*
X233184570Y-65811479D01*
X233155067Y-65929933D01*
X233063632Y-66155276D01*
X232985734Y-66183933D01*
X232849759Y-66326272D01*
X232816400Y-66534695D01*
X232931564Y-66934544D01*
X233203548Y-67257868D01*
X233481639Y-67369266D01*
X233642526Y-67506226D01*
X233663067Y-67623266D01*
X233733335Y-67762823D01*
X233986272Y-67840359D01*
X234485075Y-67869549D01*
X234806067Y-67870558D01*
X235432912Y-67854260D01*
X235837726Y-67787967D01*
X236136990Y-67631911D01*
X236447184Y-67346319D01*
X236499400Y-67292400D01*
X236907789Y-66789466D01*
X237037030Y-66428075D01*
X236885284Y-66224294D01*
X236626400Y-66183933D01*
X236308171Y-66241898D01*
X236203067Y-66353266D01*
X236065914Y-66503495D01*
X235949067Y-66522600D01*
X235726784Y-66658873D01*
X235695067Y-66785877D01*
X235623295Y-66945884D01*
X235358832Y-67008575D01*
X234890734Y-66997544D01*
X234391364Y-66942036D01*
X234138351Y-66828402D01*
X234039590Y-66610224D01*
X234032290Y-66564933D01*
X234057526Y-66276514D01*
X234307534Y-66186030D01*
X234395173Y-66183933D01*
X234751120Y-66091879D01*
X234909636Y-65929933D01*
X235139333Y-65720763D01*
X235351086Y-65675933D01*
X235629120Y-65606003D01*
X235695067Y-65506600D01*
X235839979Y-65379308D01*
X236118400Y-65337266D01*
X236458878Y-65248945D01*
X236541734Y-65083266D01*
X236677280Y-64858769D01*
X236795734Y-64829266D01*
X237020269Y-64725150D01*
X237006008Y-64446160D01*
X236767357Y-64042331D01*
X236474000Y-63711666D01*
X236134738Y-63398823D01*
X235829402Y-63226057D01*
X235436825Y-63152172D01*
X234835840Y-63135971D01*
X234780667Y-63135933D01*
X234157898Y-63152449D01*
X234157898Y-63152449D01*
G37*
X234157898Y-63152449D02*
X233809595Y-63211546D01*
X233672740Y-63327547D01*
X233663067Y-63389933D01*
X233565239Y-63615175D01*
X233481639Y-63643933D01*
X233162918Y-63788411D01*
X232905196Y-64129626D01*
X232816400Y-64478504D01*
X232932672Y-64756764D01*
X233218155Y-64829515D01*
X233577850Y-64703114D01*
X233900595Y-64405933D01*
X234196749Y-64119809D01*
X234596567Y-63999050D01*
X234956786Y-63982600D01*
X235417691Y-64001489D01*
X235632497Y-64093315D01*
X235693171Y-64310809D01*
X235695067Y-64405933D01*
X235650787Y-64692216D01*
X235451524Y-64809415D01*
X235102400Y-64829266D01*
X234664054Y-64884346D01*
X234510805Y-65060133D01*
X234509734Y-65083266D01*
X234362532Y-65287552D01*
X234086400Y-65337266D01*
X233768171Y-65395231D01*
X233663067Y-65506600D01*
X233525914Y-65656829D01*
X233409067Y-65675933D01*
X233184570Y-65811479D01*
X233155067Y-65929933D01*
X233063632Y-66155276D01*
X232985734Y-66183933D01*
X232849759Y-66326272D01*
X232816400Y-66534695D01*
X232931564Y-66934544D01*
X233203548Y-67257868D01*
X233481639Y-67369266D01*
X233642526Y-67506226D01*
X233663067Y-67623266D01*
X233733335Y-67762823D01*
X233986272Y-67840359D01*
X234485075Y-67869549D01*
X234806067Y-67870558D01*
X235432912Y-67854260D01*
X235837726Y-67787967D01*
X236136990Y-67631911D01*
X236447184Y-67346319D01*
X236499400Y-67292400D01*
X236907789Y-66789466D01*
X237037030Y-66428075D01*
X236885284Y-66224294D01*
X236626400Y-66183933D01*
X236308171Y-66241898D01*
X236203067Y-66353266D01*
X236065914Y-66503495D01*
X235949067Y-66522600D01*
X235726784Y-66658873D01*
X235695067Y-66785877D01*
X235623295Y-66945884D01*
X235358832Y-67008575D01*
X234890734Y-66997544D01*
X234391364Y-66942036D01*
X234138351Y-66828402D01*
X234039590Y-66610224D01*
X234032290Y-66564933D01*
X234057526Y-66276514D01*
X234307534Y-66186030D01*
X234395173Y-66183933D01*
X234751120Y-66091879D01*
X234909636Y-65929933D01*
X235139333Y-65720763D01*
X235351086Y-65675933D01*
X235629120Y-65606003D01*
X235695067Y-65506600D01*
X235839979Y-65379308D01*
X236118400Y-65337266D01*
X236458878Y-65248945D01*
X236541734Y-65083266D01*
X236677280Y-64858769D01*
X236795734Y-64829266D01*
X237020269Y-64725150D01*
X237006008Y-64446160D01*
X236767357Y-64042331D01*
X236474000Y-63711666D01*
X236134738Y-63398823D01*
X235829402Y-63226057D01*
X235436825Y-63152172D01*
X234835840Y-63135971D01*
X234780667Y-63135933D01*
X234157898Y-63152449D01*
G36*
X239306931Y-63153802D02*
G01*
X238913562Y-63239198D01*
X238592767Y-63439809D01*
X238302800Y-63711666D01*
X238002069Y-64034160D01*
X237829734Y-64322014D01*
X237750215Y-64686157D01*
X237727931Y-65237517D01*
X237727067Y-65506600D01*
X237737344Y-66153720D01*
X237791894Y-66573215D01*
X237926300Y-66876014D01*
X238176142Y-67173046D01*
X238302800Y-67301533D01*
X238646556Y-67618486D01*
X238952732Y-67789055D01*
X239346527Y-67855633D01*
X239953138Y-67860617D01*
X239953801Y-67860607D01*
X240575016Y-67832745D01*
X240977027Y-67747238D01*
X241278764Y-67565394D01*
X241494734Y-67359306D01*
X241728751Y-67087781D01*
X241867908Y-66811439D01*
X241936524Y-66433569D01*
X241958921Y-65857461D01*
X241959888Y-65628494D01*
X241119830Y-65628494D01*
X241112432Y-66107431D01*
X241042154Y-66436375D01*
X240944400Y-66522600D01*
X240794171Y-66659752D01*
X240775067Y-66776600D01*
X240684428Y-66936331D01*
X240370613Y-67014346D01*
X239928400Y-67030600D01*
X239395963Y-67003408D01*
X239135912Y-66909263D01*
X239081734Y-66776600D01*
X238990299Y-66551256D01*
X238912400Y-66522600D01*
X238822204Y-66368361D01*
X238761054Y-65965434D01*
X238743067Y-65506600D01*
X238768774Y-64965420D01*
X238835928Y-64598519D01*
X238912400Y-64490600D01*
X239062630Y-64353447D01*
X239081734Y-64236600D01*
X239223466Y-64049300D01*
X239575851Y-63967827D01*
X240029676Y-63986746D01*
X240475724Y-64100622D01*
X240804782Y-64304022D01*
X240822101Y-64323202D01*
X240968929Y-64633231D01*
X241070084Y-65102711D01*
X241119830Y-65628494D01*
X241959888Y-65628494D01*
X241960400Y-65507591D01*
X241952395Y-64817811D01*
X241910681Y-64370047D01*
X241808714Y-64067726D01*
X241619947Y-63814273D01*
X241446562Y-63638226D01*
X241111364Y-63350809D01*
X240775804Y-63199588D01*
X240310846Y-63142501D01*
X239905629Y-63135933D01*
X239306931Y-63153802D01*
X239306931Y-63153802D01*
G37*
X239306931Y-63153802D02*
X238913562Y-63239198D01*
X238592767Y-63439809D01*
X238302800Y-63711666D01*
X238002069Y-64034160D01*
X237829734Y-64322014D01*
X237750215Y-64686157D01*
X237727931Y-65237517D01*
X237727067Y-65506600D01*
X237737344Y-66153720D01*
X237791894Y-66573215D01*
X237926300Y-66876014D01*
X238176142Y-67173046D01*
X238302800Y-67301533D01*
X238646556Y-67618486D01*
X238952732Y-67789055D01*
X239346527Y-67855633D01*
X239953138Y-67860617D01*
X239953801Y-67860607D01*
X240575016Y-67832745D01*
X240977027Y-67747238D01*
X241278764Y-67565394D01*
X241494734Y-67359306D01*
X241728751Y-67087781D01*
X241867908Y-66811439D01*
X241936524Y-66433569D01*
X241958921Y-65857461D01*
X241959888Y-65628494D01*
X241119830Y-65628494D01*
X241112432Y-66107431D01*
X241042154Y-66436375D01*
X240944400Y-66522600D01*
X240794171Y-66659752D01*
X240775067Y-66776600D01*
X240684428Y-66936331D01*
X240370613Y-67014346D01*
X239928400Y-67030600D01*
X239395963Y-67003408D01*
X239135912Y-66909263D01*
X239081734Y-66776600D01*
X238990299Y-66551256D01*
X238912400Y-66522600D01*
X238822204Y-66368361D01*
X238761054Y-65965434D01*
X238743067Y-65506600D01*
X238768774Y-64965420D01*
X238835928Y-64598519D01*
X238912400Y-64490600D01*
X239062630Y-64353447D01*
X239081734Y-64236600D01*
X239223466Y-64049300D01*
X239575851Y-63967827D01*
X240029676Y-63986746D01*
X240475724Y-64100622D01*
X240804782Y-64304022D01*
X240822101Y-64323202D01*
X240968929Y-64633231D01*
X241070084Y-65102711D01*
X241119830Y-65628494D01*
X241959888Y-65628494D01*
X241960400Y-65507591D01*
X241952395Y-64817811D01*
X241910681Y-64370047D01*
X241808714Y-64067726D01*
X241619947Y-63814273D01*
X241446562Y-63638226D01*
X241111364Y-63350809D01*
X240775804Y-63199588D01*
X240310846Y-63142501D01*
X239905629Y-63135933D01*
X239306931Y-63153802D01*
G36*
X244228223Y-63159051D02*
G01*
X243791656Y-63224524D01*
X243653734Y-63317361D01*
X243525469Y-63604620D01*
X243243945Y-63877437D01*
X242988496Y-63982600D01*
X242852140Y-64127435D01*
X242807067Y-64405933D01*
X242877006Y-64728176D01*
X243152387Y-64827478D01*
X243230400Y-64829266D01*
X243548630Y-64771301D01*
X243653734Y-64659933D01*
X243790887Y-64509704D01*
X243907734Y-64490600D01*
X244132231Y-64355054D01*
X244161734Y-64236600D01*
X244303466Y-64049300D01*
X244655851Y-63967827D01*
X245109676Y-63986746D01*
X245555724Y-64100622D01*
X245884782Y-64304022D01*
X245902101Y-64323202D01*
X246112874Y-64776178D01*
X246197017Y-65398140D01*
X246154531Y-66043971D01*
X245985416Y-66568555D01*
X245902101Y-66689997D01*
X245586554Y-66900052D01*
X245145622Y-67021001D01*
X244688521Y-67047410D01*
X244324465Y-66973845D01*
X244162670Y-66794871D01*
X244161734Y-66776600D01*
X244026188Y-66552103D01*
X243907734Y-66522600D01*
X243682390Y-66431164D01*
X243653734Y-66353266D01*
X243508822Y-66225974D01*
X243230400Y-66183933D01*
X242908157Y-66253872D01*
X242808855Y-66529252D01*
X242807067Y-66607266D01*
X242869139Y-66925428D01*
X242988496Y-67030600D01*
X243275754Y-67158864D01*
X243548571Y-67440389D01*
X243653734Y-67695838D01*
X243815559Y-67795196D01*
X244273875Y-67857563D01*
X244923734Y-67877266D01*
X245593624Y-67863961D01*
X245986843Y-67815879D01*
X246164635Y-67720771D01*
X246193734Y-67623266D01*
X246291562Y-67398024D01*
X246375162Y-67369266D01*
X246688690Y-67264067D01*
X246896003Y-66925996D01*
X247009140Y-66321342D01*
X247040400Y-65506600D01*
X247002829Y-64628722D01*
X246882090Y-64048246D01*
X246666142Y-63731463D01*
X246375162Y-63643933D01*
X246214275Y-63506973D01*
X246193734Y-63389933D01*
X246127207Y-63255955D01*
X245886796Y-63177311D01*
X245411257Y-63141753D01*
X244923734Y-63135933D01*
X244228223Y-63159051D01*
X244228223Y-63159051D01*
G37*
X244228223Y-63159051D02*
X243791656Y-63224524D01*
X243653734Y-63317361D01*
X243525469Y-63604620D01*
X243243945Y-63877437D01*
X242988496Y-63982600D01*
X242852140Y-64127435D01*
X242807067Y-64405933D01*
X242877006Y-64728176D01*
X243152387Y-64827478D01*
X243230400Y-64829266D01*
X243548630Y-64771301D01*
X243653734Y-64659933D01*
X243790887Y-64509704D01*
X243907734Y-64490600D01*
X244132231Y-64355054D01*
X244161734Y-64236600D01*
X244303466Y-64049300D01*
X244655851Y-63967827D01*
X245109676Y-63986746D01*
X245555724Y-64100622D01*
X245884782Y-64304022D01*
X245902101Y-64323202D01*
X246112874Y-64776178D01*
X246197017Y-65398140D01*
X246154531Y-66043971D01*
X245985416Y-66568555D01*
X245902101Y-66689997D01*
X245586554Y-66900052D01*
X245145622Y-67021001D01*
X244688521Y-67047410D01*
X244324465Y-66973845D01*
X244162670Y-66794871D01*
X244161734Y-66776600D01*
X244026188Y-66552103D01*
X243907734Y-66522600D01*
X243682390Y-66431164D01*
X243653734Y-66353266D01*
X243508822Y-66225974D01*
X243230400Y-66183933D01*
X242908157Y-66253872D01*
X242808855Y-66529252D01*
X242807067Y-66607266D01*
X242869139Y-66925428D01*
X242988496Y-67030600D01*
X243275754Y-67158864D01*
X243548571Y-67440389D01*
X243653734Y-67695838D01*
X243815559Y-67795196D01*
X244273875Y-67857563D01*
X244923734Y-67877266D01*
X245593624Y-67863961D01*
X245986843Y-67815879D01*
X246164635Y-67720771D01*
X246193734Y-67623266D01*
X246291562Y-67398024D01*
X246375162Y-67369266D01*
X246688690Y-67264067D01*
X246896003Y-66925996D01*
X247009140Y-66321342D01*
X247040400Y-65506600D01*
X247002829Y-64628722D01*
X246882090Y-64048246D01*
X246666142Y-63731463D01*
X246375162Y-63643933D01*
X246214275Y-63506973D01*
X246193734Y-63389933D01*
X246127207Y-63255955D01*
X245886796Y-63177311D01*
X245411257Y-63141753D01*
X244923734Y-63135933D01*
X244228223Y-63159051D01*
G36*
X178048814Y-77751868D02*
G01*
X177955817Y-77993508D01*
X177952400Y-78110156D01*
X178017298Y-78437591D01*
X178279891Y-78542054D01*
X178387511Y-78545266D01*
X178704664Y-78489986D01*
X178779176Y-78266832D01*
X178768511Y-78164266D01*
X178575681Y-77821933D01*
X178333400Y-77729156D01*
X178048814Y-77751868D01*
X178048814Y-77751868D01*
G37*
X178048814Y-77751868D02*
X177955817Y-77993508D01*
X177952400Y-78110156D01*
X178017298Y-78437591D01*
X178279891Y-78542054D01*
X178387511Y-78545266D01*
X178704664Y-78489986D01*
X178779176Y-78266832D01*
X178768511Y-78164266D01*
X178575681Y-77821933D01*
X178333400Y-77729156D01*
X178048814Y-77751868D01*
G36*
X163824814Y-78598535D02*
G01*
X163731817Y-78840175D01*
X163728400Y-78956822D01*
X163793298Y-79284258D01*
X164055891Y-79388721D01*
X164163511Y-79391933D01*
X164480664Y-79336653D01*
X164555176Y-79113499D01*
X164544511Y-79010933D01*
X164351681Y-78668600D01*
X164109400Y-78575822D01*
X163824814Y-78598535D01*
X163824814Y-78598535D01*
G37*
X163824814Y-78598535D02*
X163731817Y-78840175D01*
X163728400Y-78956822D01*
X163793298Y-79284258D01*
X164055891Y-79388721D01*
X164163511Y-79391933D01*
X164480664Y-79336653D01*
X164555176Y-79113499D01*
X164544511Y-79010933D01*
X164351681Y-78668600D01*
X164109400Y-78575822D01*
X163824814Y-78598535D01*
G36*
X212665734Y-81593266D02*
G01*
X216052400Y-81593266D01*
X216052400Y-80746600D01*
X212665734Y-80746600D01*
X212665734Y-81593266D01*
X212665734Y-81593266D01*
G37*
X212665734Y-81593266D02*
X216052400Y-81593266D01*
X216052400Y-80746600D01*
X212665734Y-80746600D01*
X212665734Y-81593266D01*
G36*
X236203067Y-80577266D02*
G01*
X233493734Y-80577266D01*
X233493734Y-81931933D01*
X235422950Y-81931933D01*
X236342042Y-81919549D01*
X236958291Y-81879923D01*
X237306704Y-81809342D01*
X237419068Y-81720266D01*
X237435286Y-81497234D01*
X237444704Y-80985427D01*
X237447297Y-80234669D01*
X237443037Y-79294785D01*
X237431898Y-78215598D01*
X237421342Y-77486933D01*
X237356713Y-73465266D01*
X236203067Y-73465266D01*
X236203067Y-80577266D01*
X236203067Y-80577266D01*
G37*
X236203067Y-80577266D02*
X233493734Y-80577266D01*
X233493734Y-81931933D01*
X235422950Y-81931933D01*
X236342042Y-81919549D01*
X236958291Y-81879923D01*
X237306704Y-81809342D01*
X237419068Y-81720266D01*
X237435286Y-81497234D01*
X237444704Y-80985427D01*
X237447297Y-80234669D01*
X237443037Y-79294785D01*
X237431898Y-78215598D01*
X237421342Y-77486933D01*
X237356713Y-73465266D01*
X236203067Y-73465266D01*
X236203067Y-80577266D01*
G36*
X153705451Y-78250880D02*
G01*
X153588252Y-78450142D01*
X153568400Y-78799266D01*
X153536772Y-79200062D01*
X153394441Y-79364141D01*
X153145067Y-79391933D01*
X152822824Y-79461872D01*
X152723522Y-79737252D01*
X152721734Y-79815266D01*
X152791673Y-80137510D01*
X153067053Y-80236812D01*
X153145067Y-80238600D01*
X153364603Y-80255572D01*
X153491101Y-80355229D01*
X153550176Y-80610678D01*
X153567441Y-81095025D01*
X153568400Y-81446849D01*
X153555231Y-82101557D01*
X153497397Y-82519822D01*
X153367413Y-82803429D01*
X153137791Y-83054167D01*
X153133210Y-83058419D01*
X152853772Y-83408836D01*
X152750691Y-83727588D01*
X152753940Y-83755169D01*
X152913541Y-83990639D01*
X153192471Y-84105504D01*
X153455723Y-84077242D01*
X153568400Y-83891043D01*
X153662446Y-83658341D01*
X153749829Y-83625266D01*
X154056152Y-83527496D01*
X154260699Y-83209735D01*
X154376076Y-82635308D01*
X154414891Y-81767539D01*
X154415067Y-81690028D01*
X154418874Y-80989503D01*
X154443279Y-80560870D01*
X154507757Y-80337357D01*
X154631784Y-80252191D01*
X154834834Y-80238600D01*
X154838400Y-80238600D01*
X155160644Y-80168661D01*
X155259946Y-79893280D01*
X155261734Y-79815266D01*
X155191795Y-79493023D01*
X154916414Y-79393721D01*
X154838400Y-79391933D01*
X154552118Y-79347653D01*
X154434919Y-79148390D01*
X154415067Y-78799266D01*
X154383439Y-78398470D01*
X154241108Y-78234391D01*
X153991734Y-78206600D01*
X153705451Y-78250880D01*
X153705451Y-78250880D01*
G37*
X153705451Y-78250880D02*
X153588252Y-78450142D01*
X153568400Y-78799266D01*
X153536772Y-79200062D01*
X153394441Y-79364141D01*
X153145067Y-79391933D01*
X152822824Y-79461872D01*
X152723522Y-79737252D01*
X152721734Y-79815266D01*
X152791673Y-80137510D01*
X153067053Y-80236812D01*
X153145067Y-80238600D01*
X153364603Y-80255572D01*
X153491101Y-80355229D01*
X153550176Y-80610678D01*
X153567441Y-81095025D01*
X153568400Y-81446849D01*
X153555231Y-82101557D01*
X153497397Y-82519822D01*
X153367413Y-82803429D01*
X153137791Y-83054167D01*
X153133210Y-83058419D01*
X152853772Y-83408836D01*
X152750691Y-83727588D01*
X152753940Y-83755169D01*
X152913541Y-83990639D01*
X153192471Y-84105504D01*
X153455723Y-84077242D01*
X153568400Y-83891043D01*
X153662446Y-83658341D01*
X153749829Y-83625266D01*
X154056152Y-83527496D01*
X154260699Y-83209735D01*
X154376076Y-82635308D01*
X154414891Y-81767539D01*
X154415067Y-81690028D01*
X154418874Y-80989503D01*
X154443279Y-80560870D01*
X154507757Y-80337357D01*
X154631784Y-80252191D01*
X154834834Y-80238600D01*
X154838400Y-80238600D01*
X155160644Y-80168661D01*
X155259946Y-79893280D01*
X155261734Y-79815266D01*
X155191795Y-79493023D01*
X154916414Y-79393721D01*
X154838400Y-79391933D01*
X154552118Y-79347653D01*
X154434919Y-79148390D01*
X154415067Y-78799266D01*
X154383439Y-78398470D01*
X154241108Y-78234391D01*
X153991734Y-78206600D01*
X153705451Y-78250880D01*
G36*
X158401843Y-79405238D02*
G01*
X158008624Y-79453320D01*
X157830832Y-79548428D01*
X157801734Y-79645933D01*
X157703906Y-79871175D01*
X157620305Y-79899933D01*
X157287722Y-80051489D01*
X157043194Y-80436146D01*
X156955067Y-80915933D01*
X157001906Y-81360077D01*
X157178021Y-81655687D01*
X157536806Y-81830797D01*
X158131656Y-81913438D01*
X158890305Y-81931933D01*
X159590830Y-81935740D01*
X160019463Y-81960145D01*
X160242976Y-82024623D01*
X160328142Y-82148649D01*
X160341733Y-82351700D01*
X160341734Y-82355266D01*
X160253413Y-82695743D01*
X160087734Y-82778600D01*
X159863237Y-82914145D01*
X159833734Y-83032600D01*
X159734657Y-83199492D01*
X159397332Y-83275899D01*
X159066419Y-83286600D01*
X158496510Y-83234328D01*
X158221249Y-83071960D01*
X158201636Y-83032600D01*
X158004796Y-82874729D01*
X157650603Y-82789331D01*
X157273089Y-82784208D01*
X157006282Y-82867161D01*
X156955067Y-82960028D01*
X157083332Y-83247286D01*
X157364856Y-83520104D01*
X157620305Y-83625266D01*
X157781193Y-83762226D01*
X157801734Y-83879266D01*
X157872433Y-84018472D01*
X158126236Y-84097529D01*
X158625700Y-84130114D01*
X158963348Y-84133266D01*
X159597597Y-84120257D01*
X159991458Y-84062560D01*
X160242800Y-83932173D01*
X160442873Y-83709933D01*
X160730033Y-83411089D01*
X160974384Y-83286600D01*
X160974592Y-83286600D01*
X161084358Y-83181885D01*
X161152374Y-82841102D01*
X161184246Y-82224296D01*
X161188400Y-81762600D01*
X161168845Y-80965834D01*
X161163371Y-80915933D01*
X160341734Y-80915933D01*
X160184150Y-81001256D01*
X159757578Y-81060726D01*
X159131290Y-81085108D01*
X159071734Y-81085266D01*
X158464637Y-81075135D01*
X158015559Y-81048337D01*
X157807268Y-81010262D01*
X157801734Y-81002535D01*
X157899537Y-80826627D01*
X158093367Y-80579202D01*
X158408914Y-80369147D01*
X158849846Y-80248198D01*
X159306947Y-80221789D01*
X159671002Y-80295354D01*
X159832797Y-80474328D01*
X159833734Y-80492600D01*
X159969280Y-80717096D01*
X160087734Y-80746600D01*
X160313077Y-80838035D01*
X160341734Y-80915933D01*
X161163371Y-80915933D01*
X161112269Y-80450105D01*
X161021808Y-80241744D01*
X161006972Y-80238600D01*
X160719714Y-80110335D01*
X160446896Y-79828810D01*
X160341734Y-79573361D01*
X160179909Y-79474003D01*
X159721592Y-79411636D01*
X159071734Y-79391933D01*
X158401843Y-79405238D01*
X158401843Y-79405238D01*
G37*
X158401843Y-79405238D02*
X158008624Y-79453320D01*
X157830832Y-79548428D01*
X157801734Y-79645933D01*
X157703906Y-79871175D01*
X157620305Y-79899933D01*
X157287722Y-80051489D01*
X157043194Y-80436146D01*
X156955067Y-80915933D01*
X157001906Y-81360077D01*
X157178021Y-81655687D01*
X157536806Y-81830797D01*
X158131656Y-81913438D01*
X158890305Y-81931933D01*
X159590830Y-81935740D01*
X160019463Y-81960145D01*
X160242976Y-82024623D01*
X160328142Y-82148649D01*
X160341733Y-82351700D01*
X160341734Y-82355266D01*
X160253413Y-82695743D01*
X160087734Y-82778600D01*
X159863237Y-82914145D01*
X159833734Y-83032600D01*
X159734657Y-83199492D01*
X159397332Y-83275899D01*
X159066419Y-83286600D01*
X158496510Y-83234328D01*
X158221249Y-83071960D01*
X158201636Y-83032600D01*
X158004796Y-82874729D01*
X157650603Y-82789331D01*
X157273089Y-82784208D01*
X157006282Y-82867161D01*
X156955067Y-82960028D01*
X157083332Y-83247286D01*
X157364856Y-83520104D01*
X157620305Y-83625266D01*
X157781193Y-83762226D01*
X157801734Y-83879266D01*
X157872433Y-84018472D01*
X158126236Y-84097529D01*
X158625700Y-84130114D01*
X158963348Y-84133266D01*
X159597597Y-84120257D01*
X159991458Y-84062560D01*
X160242800Y-83932173D01*
X160442873Y-83709933D01*
X160730033Y-83411089D01*
X160974384Y-83286600D01*
X160974592Y-83286600D01*
X161084358Y-83181885D01*
X161152374Y-82841102D01*
X161184246Y-82224296D01*
X161188400Y-81762600D01*
X161168845Y-80965834D01*
X161163371Y-80915933D01*
X160341734Y-80915933D01*
X160184150Y-81001256D01*
X159757578Y-81060726D01*
X159131290Y-81085108D01*
X159071734Y-81085266D01*
X158464637Y-81075135D01*
X158015559Y-81048337D01*
X157807268Y-81010262D01*
X157801734Y-81002535D01*
X157899537Y-80826627D01*
X158093367Y-80579202D01*
X158408914Y-80369147D01*
X158849846Y-80248198D01*
X159306947Y-80221789D01*
X159671002Y-80295354D01*
X159832797Y-80474328D01*
X159833734Y-80492600D01*
X159969280Y-80717096D01*
X160087734Y-80746600D01*
X160313077Y-80838035D01*
X160341734Y-80915933D01*
X161163371Y-80915933D01*
X161112269Y-80450105D01*
X161021808Y-80241744D01*
X161006972Y-80238600D01*
X160719714Y-80110335D01*
X160446896Y-79828810D01*
X160341734Y-79573361D01*
X160179909Y-79474003D01*
X159721592Y-79411636D01*
X159071734Y-79391933D01*
X158401843Y-79405238D01*
G36*
X163728400Y-81499322D02*
G01*
X163715255Y-82172004D01*
X163667727Y-82567877D01*
X163573681Y-82748066D01*
X163474400Y-82778600D01*
X163249904Y-82914145D01*
X163220400Y-83032600D01*
X163128965Y-83257943D01*
X163051067Y-83286600D01*
X162923775Y-83431512D01*
X162881734Y-83709933D01*
X162974433Y-84046552D01*
X163232771Y-84110664D01*
X163627105Y-83906457D01*
X164024734Y-83548400D01*
X164351339Y-83166262D01*
X164515728Y-82805364D01*
X164571314Y-82318438D01*
X164575067Y-82031108D01*
X164585280Y-81492795D01*
X164641188Y-81210661D01*
X164780698Y-81102306D01*
X165010178Y-81085266D01*
X165327331Y-81029986D01*
X165401843Y-80806832D01*
X165391178Y-80704266D01*
X165307817Y-80466108D01*
X165084223Y-80339557D01*
X164628289Y-80278197D01*
X164532734Y-80271655D01*
X163728400Y-80220044D01*
X163728400Y-81499322D01*
X163728400Y-81499322D01*
G37*
X163728400Y-81499322D02*
X163715255Y-82172004D01*
X163667727Y-82567877D01*
X163573681Y-82748066D01*
X163474400Y-82778600D01*
X163249904Y-82914145D01*
X163220400Y-83032600D01*
X163128965Y-83257943D01*
X163051067Y-83286600D01*
X162923775Y-83431512D01*
X162881734Y-83709933D01*
X162974433Y-84046552D01*
X163232771Y-84110664D01*
X163627105Y-83906457D01*
X164024734Y-83548400D01*
X164351339Y-83166262D01*
X164515728Y-82805364D01*
X164571314Y-82318438D01*
X164575067Y-82031108D01*
X164585280Y-81492795D01*
X164641188Y-81210661D01*
X164780698Y-81102306D01*
X165010178Y-81085266D01*
X165327331Y-81029986D01*
X165401843Y-80806832D01*
X165391178Y-80704266D01*
X165307817Y-80466108D01*
X165084223Y-80339557D01*
X164628289Y-80278197D01*
X164532734Y-80271655D01*
X163728400Y-80220044D01*
X163728400Y-81499322D01*
G36*
X168677402Y-81127600D02*
G01*
X168695473Y-82184599D01*
X168715629Y-82950914D01*
X168744756Y-83474492D01*
X168789742Y-83803283D01*
X168857474Y-83985233D01*
X168954839Y-84068291D01*
X169088723Y-84100405D01*
X169104734Y-84102710D01*
X169485734Y-84156821D01*
X169485734Y-78206600D01*
X168631070Y-78206600D01*
X168677402Y-81127600D01*
X168677402Y-81127600D01*
G37*
X168677402Y-81127600D02*
X168695473Y-82184599D01*
X168715629Y-82950914D01*
X168744756Y-83474492D01*
X168789742Y-83803283D01*
X168857474Y-83985233D01*
X168954839Y-84068291D01*
X169088723Y-84100405D01*
X169104734Y-84102710D01*
X169485734Y-84156821D01*
X169485734Y-78206600D01*
X168631070Y-78206600D01*
X168677402Y-81127600D01*
G36*
X175412400Y-81085266D02*
G01*
X175404007Y-81874903D01*
X175373256Y-82381866D01*
X175311792Y-82661859D01*
X175211260Y-82770586D01*
X175158400Y-82778600D01*
X174933904Y-82914145D01*
X174904400Y-83032600D01*
X174804677Y-83200014D01*
X174465595Y-83276272D01*
X174142400Y-83286600D01*
X173640156Y-83253358D01*
X173411384Y-83140331D01*
X173380400Y-83032600D01*
X173244855Y-82808103D01*
X173126400Y-82778600D01*
X173007955Y-82722643D01*
X172931911Y-82517637D01*
X172889912Y-82107879D01*
X172873603Y-81437665D01*
X172872400Y-81085266D01*
X172872400Y-79391933D01*
X172025734Y-79391933D01*
X172025734Y-81266695D01*
X172045076Y-82238328D01*
X172111274Y-82916519D01*
X172236584Y-83344721D01*
X172433260Y-83566387D01*
X172690972Y-83625266D01*
X172851859Y-83762226D01*
X172872400Y-83879266D01*
X172938927Y-84013244D01*
X173179338Y-84091888D01*
X173654877Y-84127446D01*
X174142400Y-84133266D01*
X174837912Y-84110148D01*
X175274478Y-84044675D01*
X175412400Y-83951838D01*
X175540665Y-83664579D01*
X175822190Y-83391762D01*
X176077639Y-83286600D01*
X176166170Y-83119736D01*
X176225872Y-82626741D01*
X176255683Y-81819012D01*
X176259067Y-81339266D01*
X176259067Y-79391933D01*
X175412400Y-79391933D01*
X175412400Y-81085266D01*
X175412400Y-81085266D01*
G37*
X175412400Y-81085266D02*
X175404007Y-81874903D01*
X175373256Y-82381866D01*
X175311792Y-82661859D01*
X175211260Y-82770586D01*
X175158400Y-82778600D01*
X174933904Y-82914145D01*
X174904400Y-83032600D01*
X174804677Y-83200014D01*
X174465595Y-83276272D01*
X174142400Y-83286600D01*
X173640156Y-83253358D01*
X173411384Y-83140331D01*
X173380400Y-83032600D01*
X173244855Y-82808103D01*
X173126400Y-82778600D01*
X173007955Y-82722643D01*
X172931911Y-82517637D01*
X172889912Y-82107879D01*
X172873603Y-81437665D01*
X172872400Y-81085266D01*
X172872400Y-79391933D01*
X172025734Y-79391933D01*
X172025734Y-81266695D01*
X172045076Y-82238328D01*
X172111274Y-82916519D01*
X172236584Y-83344721D01*
X172433260Y-83566387D01*
X172690972Y-83625266D01*
X172851859Y-83762226D01*
X172872400Y-83879266D01*
X172938927Y-84013244D01*
X173179338Y-84091888D01*
X173654877Y-84127446D01*
X174142400Y-84133266D01*
X174837912Y-84110148D01*
X175274478Y-84044675D01*
X175412400Y-83951838D01*
X175540665Y-83664579D01*
X175822190Y-83391762D01*
X176077639Y-83286600D01*
X176166170Y-83119736D01*
X176225872Y-82626741D01*
X176255683Y-81819012D01*
X176259067Y-81339266D01*
X176259067Y-79391933D01*
X175412400Y-79391933D01*
X175412400Y-81085266D01*
G36*
X177952400Y-81257417D02*
G01*
X177971539Y-82230842D01*
X178037101Y-82910827D01*
X178161307Y-83340868D01*
X178356375Y-83564460D01*
X178617639Y-83625266D01*
X178778526Y-83762226D01*
X178799067Y-83879266D01*
X178902431Y-84049555D01*
X179251277Y-84124905D01*
X179532845Y-84133266D01*
X180008020Y-84109249D01*
X180326966Y-84048954D01*
X180379512Y-84020377D01*
X180476490Y-83771369D01*
X180492400Y-83597044D01*
X180406995Y-83374288D01*
X180097786Y-83291038D01*
X179937367Y-83286600D01*
X179417166Y-83201870D01*
X179070753Y-82920799D01*
X178873512Y-82403065D01*
X178800828Y-81608345D01*
X178799067Y-81421997D01*
X178804995Y-80803484D01*
X178840895Y-80449722D01*
X178933940Y-80286805D01*
X179111303Y-80240831D01*
X179234178Y-80238600D01*
X179551331Y-80183320D01*
X179625843Y-79960165D01*
X179615178Y-79857600D01*
X179531817Y-79619441D01*
X179308223Y-79492890D01*
X178852289Y-79431531D01*
X178756734Y-79424988D01*
X177952400Y-79373377D01*
X177952400Y-81257417D01*
X177952400Y-81257417D01*
G37*
X177952400Y-81257417D02*
X177971539Y-82230842D01*
X178037101Y-82910827D01*
X178161307Y-83340868D01*
X178356375Y-83564460D01*
X178617639Y-83625266D01*
X178778526Y-83762226D01*
X178799067Y-83879266D01*
X178902431Y-84049555D01*
X179251277Y-84124905D01*
X179532845Y-84133266D01*
X180008020Y-84109249D01*
X180326966Y-84048954D01*
X180379512Y-84020377D01*
X180476490Y-83771369D01*
X180492400Y-83597044D01*
X180406995Y-83374288D01*
X180097786Y-83291038D01*
X179937367Y-83286600D01*
X179417166Y-83201870D01*
X179070753Y-82920799D01*
X178873512Y-82403065D01*
X178800828Y-81608345D01*
X178799067Y-81421997D01*
X178804995Y-80803484D01*
X178840895Y-80449722D01*
X178933940Y-80286805D01*
X179111303Y-80240831D01*
X179234178Y-80238600D01*
X179551331Y-80183320D01*
X179625843Y-79960165D01*
X179615178Y-79857600D01*
X179531817Y-79619441D01*
X179308223Y-79492890D01*
X178852289Y-79431531D01*
X178756734Y-79424988D01*
X177952400Y-79373377D01*
X177952400Y-81257417D01*
G36*
X187268490Y-78234050D02*
G01*
X187143150Y-78374141D01*
X187100411Y-78713479D01*
X187096400Y-79053266D01*
X187129552Y-79559216D01*
X187216922Y-79856184D01*
X187277829Y-79899933D01*
X187565087Y-80028197D01*
X187837905Y-80309722D01*
X187943067Y-80565171D01*
X188073161Y-80739158D01*
X188124496Y-80746600D01*
X188379486Y-80857607D01*
X188652957Y-81098211D01*
X188789305Y-81329785D01*
X188789734Y-81339266D01*
X188914334Y-81566439D01*
X189184400Y-81810077D01*
X189444329Y-81931551D01*
X189454972Y-81931933D01*
X189628959Y-82062027D01*
X189636400Y-82113361D01*
X189764665Y-82400620D01*
X190046190Y-82673437D01*
X190301639Y-82778600D01*
X190415239Y-82928792D01*
X190478434Y-83304000D01*
X190483067Y-83455933D01*
X190506173Y-83892327D01*
X190615161Y-84086289D01*
X190869534Y-84133024D01*
X190906400Y-84133266D01*
X191167633Y-84101682D01*
X191291400Y-83946436D01*
X191328117Y-83576785D01*
X191329734Y-83371281D01*
X191319682Y-83060574D01*
X191264877Y-82796537D01*
X191128342Y-82525375D01*
X190873103Y-82193292D01*
X190462185Y-81746492D01*
X189858611Y-81131181D01*
X189636400Y-80907652D01*
X188937500Y-80192684D01*
X188453449Y-79661510D01*
X188149525Y-79268992D01*
X187991008Y-78969994D01*
X187943177Y-78719376D01*
X187943067Y-78706305D01*
X187895691Y-78347089D01*
X187695583Y-78217436D01*
X187519734Y-78206600D01*
X187268490Y-78234050D01*
X187268490Y-78234050D01*
G37*
X187268490Y-78234050D02*
X187143150Y-78374141D01*
X187100411Y-78713479D01*
X187096400Y-79053266D01*
X187129552Y-79559216D01*
X187216922Y-79856184D01*
X187277829Y-79899933D01*
X187565087Y-80028197D01*
X187837905Y-80309722D01*
X187943067Y-80565171D01*
X188073161Y-80739158D01*
X188124496Y-80746600D01*
X188379486Y-80857607D01*
X188652957Y-81098211D01*
X188789305Y-81329785D01*
X188789734Y-81339266D01*
X188914334Y-81566439D01*
X189184400Y-81810077D01*
X189444329Y-81931551D01*
X189454972Y-81931933D01*
X189628959Y-82062027D01*
X189636400Y-82113361D01*
X189764665Y-82400620D01*
X190046190Y-82673437D01*
X190301639Y-82778600D01*
X190415239Y-82928792D01*
X190478434Y-83304000D01*
X190483067Y-83455933D01*
X190506173Y-83892327D01*
X190615161Y-84086289D01*
X190869534Y-84133024D01*
X190906400Y-84133266D01*
X191167633Y-84101682D01*
X191291400Y-83946436D01*
X191328117Y-83576785D01*
X191329734Y-83371281D01*
X191319682Y-83060574D01*
X191264877Y-82796537D01*
X191128342Y-82525375D01*
X190873103Y-82193292D01*
X190462185Y-81746492D01*
X189858611Y-81131181D01*
X189636400Y-80907652D01*
X188937500Y-80192684D01*
X188453449Y-79661510D01*
X188149525Y-79268992D01*
X187991008Y-78969994D01*
X187943177Y-78719376D01*
X187943067Y-78706305D01*
X187895691Y-78347089D01*
X187695583Y-78217436D01*
X187519734Y-78206600D01*
X187268490Y-78234050D01*
G36*
X197087067Y-82981800D02*
G01*
X197662800Y-83557533D01*
X198002063Y-83870376D01*
X198307399Y-84043142D01*
X198699976Y-84117027D01*
X199300961Y-84133228D01*
X199356134Y-84133266D01*
X199953401Y-84126106D01*
X200287981Y-84085449D01*
X200435822Y-83982525D01*
X200472870Y-83788569D01*
X200473734Y-83709933D01*
X200452221Y-83475316D01*
X200334668Y-83348646D01*
X200041551Y-83296789D01*
X199493345Y-83286609D01*
X199457734Y-83286600D01*
X198867789Y-83267093D01*
X198551050Y-83197942D01*
X198443738Y-83063204D01*
X198441734Y-83032600D01*
X198350299Y-82807256D01*
X198272400Y-82778600D01*
X198160476Y-82629742D01*
X198104530Y-82263712D01*
X198103067Y-82185933D01*
X198142411Y-81742759D01*
X198274068Y-81621502D01*
X198518475Y-81816155D01*
X198679262Y-82016600D01*
X199134997Y-82371351D01*
X199711684Y-82459750D01*
X200325147Y-82284918D01*
X200806562Y-81937640D01*
X201079177Y-81643107D01*
X201233497Y-81356762D01*
X201302758Y-80969078D01*
X201320198Y-80370527D01*
X201320400Y-80244307D01*
X201314246Y-79623207D01*
X201278338Y-79267132D01*
X201186508Y-79102458D01*
X201012589Y-79055562D01*
X200897067Y-79053266D01*
X200662450Y-79074779D01*
X200535781Y-79192332D01*
X200483923Y-79485449D01*
X200473743Y-80033655D01*
X200473734Y-80069266D01*
X200448027Y-80610446D01*
X200380873Y-80977347D01*
X200304400Y-81085266D01*
X200154171Y-81222419D01*
X200135067Y-81339266D01*
X199987865Y-81543552D01*
X199711734Y-81593266D01*
X199393572Y-81531194D01*
X199288400Y-81411838D01*
X199160136Y-81124579D01*
X198878611Y-80851762D01*
X198623162Y-80746600D01*
X198486807Y-80601764D01*
X198441734Y-80323266D01*
X198383769Y-80005036D01*
X198272400Y-79899933D01*
X198145109Y-79755021D01*
X198103067Y-79476600D01*
X198048392Y-79174055D01*
X197815976Y-79063376D01*
X197595067Y-79053266D01*
X197087067Y-79053266D01*
X197087067Y-82981800D01*
X197087067Y-82981800D01*
G37*
X197087067Y-82981800D02*
X197662800Y-83557533D01*
X198002063Y-83870376D01*
X198307399Y-84043142D01*
X198699976Y-84117027D01*
X199300961Y-84133228D01*
X199356134Y-84133266D01*
X199953401Y-84126106D01*
X200287981Y-84085449D01*
X200435822Y-83982525D01*
X200472870Y-83788569D01*
X200473734Y-83709933D01*
X200452221Y-83475316D01*
X200334668Y-83348646D01*
X200041551Y-83296789D01*
X199493345Y-83286609D01*
X199457734Y-83286600D01*
X198867789Y-83267093D01*
X198551050Y-83197942D01*
X198443738Y-83063204D01*
X198441734Y-83032600D01*
X198350299Y-82807256D01*
X198272400Y-82778600D01*
X198160476Y-82629742D01*
X198104530Y-82263712D01*
X198103067Y-82185933D01*
X198142411Y-81742759D01*
X198274068Y-81621502D01*
X198518475Y-81816155D01*
X198679262Y-82016600D01*
X199134997Y-82371351D01*
X199711684Y-82459750D01*
X200325147Y-82284918D01*
X200806562Y-81937640D01*
X201079177Y-81643107D01*
X201233497Y-81356762D01*
X201302758Y-80969078D01*
X201320198Y-80370527D01*
X201320400Y-80244307D01*
X201314246Y-79623207D01*
X201278338Y-79267132D01*
X201186508Y-79102458D01*
X201012589Y-79055562D01*
X200897067Y-79053266D01*
X200662450Y-79074779D01*
X200535781Y-79192332D01*
X200483923Y-79485449D01*
X200473743Y-80033655D01*
X200473734Y-80069266D01*
X200448027Y-80610446D01*
X200380873Y-80977347D01*
X200304400Y-81085266D01*
X200154171Y-81222419D01*
X200135067Y-81339266D01*
X199987865Y-81543552D01*
X199711734Y-81593266D01*
X199393572Y-81531194D01*
X199288400Y-81411838D01*
X199160136Y-81124579D01*
X198878611Y-80851762D01*
X198623162Y-80746600D01*
X198486807Y-80601764D01*
X198441734Y-80323266D01*
X198383769Y-80005036D01*
X198272400Y-79899933D01*
X198145109Y-79755021D01*
X198103067Y-79476600D01*
X198048392Y-79174055D01*
X197815976Y-79063376D01*
X197595067Y-79053266D01*
X197087067Y-79053266D01*
X197087067Y-82981800D01*
G36*
X203860400Y-84133266D02*
G01*
X204707067Y-84133266D01*
X204707067Y-78206600D01*
X203860400Y-78206600D01*
X203860400Y-84133266D01*
X203860400Y-84133266D01*
G37*
X203860400Y-84133266D02*
X204707067Y-84133266D01*
X204707067Y-78206600D01*
X203860400Y-78206600D01*
X203860400Y-84133266D01*
G36*
X208732235Y-78221717D02*
G01*
X208324141Y-78290624D01*
X208022836Y-78448650D01*
X207742042Y-78701574D01*
X207373561Y-79168813D01*
X207246935Y-79558885D01*
X207365296Y-79819412D01*
X207670400Y-79899933D01*
X207988563Y-79837861D01*
X208093734Y-79718504D01*
X208241727Y-79394735D01*
X208620392Y-79169395D01*
X209131760Y-79059128D01*
X209677862Y-79080574D01*
X210160727Y-79250376D01*
X210293132Y-79344899D01*
X210456712Y-79526937D01*
X210558407Y-79782965D01*
X210612209Y-80189504D01*
X210632110Y-80823073D01*
X210633734Y-81207566D01*
X210624299Y-81964098D01*
X210589824Y-82439591D01*
X210521051Y-82691307D01*
X210408722Y-82776503D01*
X210379734Y-82778600D01*
X210155237Y-82914145D01*
X210125734Y-83032600D01*
X210022975Y-83202418D01*
X209675737Y-83277927D01*
X209387453Y-83286600D01*
X208853459Y-83239991D01*
X208509745Y-83062733D01*
X208331262Y-82863266D01*
X207988811Y-82554301D01*
X207630694Y-82438471D01*
X207351908Y-82522134D01*
X207247067Y-82790695D01*
X207362231Y-83190544D01*
X207634214Y-83513868D01*
X207912305Y-83625266D01*
X208073193Y-83762226D01*
X208093734Y-83879266D01*
X208164002Y-84018823D01*
X208416938Y-84096359D01*
X208915742Y-84125549D01*
X209236734Y-84126558D01*
X209863579Y-84110260D01*
X210268393Y-84043967D01*
X210567657Y-83887911D01*
X210877851Y-83602319D01*
X210930067Y-83548400D01*
X211480400Y-82976950D01*
X211480400Y-81015108D01*
X211473690Y-80156359D01*
X211449021Y-79583530D01*
X211399588Y-79244054D01*
X211318585Y-79085369D01*
X211226400Y-79053266D01*
X211001158Y-78955438D01*
X210972400Y-78871838D01*
X210831226Y-78527111D01*
X210399629Y-78309029D01*
X209665504Y-78212588D01*
X209362803Y-78206600D01*
X208732235Y-78221717D01*
X208732235Y-78221717D01*
G37*
X208732235Y-78221717D02*
X208324141Y-78290624D01*
X208022836Y-78448650D01*
X207742042Y-78701574D01*
X207373561Y-79168813D01*
X207246935Y-79558885D01*
X207365296Y-79819412D01*
X207670400Y-79899933D01*
X207988563Y-79837861D01*
X208093734Y-79718504D01*
X208241727Y-79394735D01*
X208620392Y-79169395D01*
X209131760Y-79059128D01*
X209677862Y-79080574D01*
X210160727Y-79250376D01*
X210293132Y-79344899D01*
X210456712Y-79526937D01*
X210558407Y-79782965D01*
X210612209Y-80189504D01*
X210632110Y-80823073D01*
X210633734Y-81207566D01*
X210624299Y-81964098D01*
X210589824Y-82439591D01*
X210521051Y-82691307D01*
X210408722Y-82776503D01*
X210379734Y-82778600D01*
X210155237Y-82914145D01*
X210125734Y-83032600D01*
X210022975Y-83202418D01*
X209675737Y-83277927D01*
X209387453Y-83286600D01*
X208853459Y-83239991D01*
X208509745Y-83062733D01*
X208331262Y-82863266D01*
X207988811Y-82554301D01*
X207630694Y-82438471D01*
X207351908Y-82522134D01*
X207247067Y-82790695D01*
X207362231Y-83190544D01*
X207634214Y-83513868D01*
X207912305Y-83625266D01*
X208073193Y-83762226D01*
X208093734Y-83879266D01*
X208164002Y-84018823D01*
X208416938Y-84096359D01*
X208915742Y-84125549D01*
X209236734Y-84126558D01*
X209863579Y-84110260D01*
X210268393Y-84043967D01*
X210567657Y-83887911D01*
X210877851Y-83602319D01*
X210930067Y-83548400D01*
X211480400Y-82976950D01*
X211480400Y-81015108D01*
X211473690Y-80156359D01*
X211449021Y-79583530D01*
X211399588Y-79244054D01*
X211318585Y-79085369D01*
X211226400Y-79053266D01*
X211001158Y-78955438D01*
X210972400Y-78871838D01*
X210831226Y-78527111D01*
X210399629Y-78309029D01*
X209665504Y-78212588D01*
X209362803Y-78206600D01*
X208732235Y-78221717D01*
G36*
X218580872Y-79104328D02*
G01*
X218037756Y-79262992D01*
X217776852Y-79537479D01*
X217745734Y-79718504D01*
X217608409Y-79878485D01*
X217486522Y-79899933D01*
X217377432Y-79943780D01*
X217306855Y-80110370D01*
X217269428Y-80452275D01*
X217259786Y-81022068D01*
X217272563Y-81872322D01*
X217274855Y-81974266D01*
X217297548Y-82842040D01*
X217326213Y-83428478D01*
X217372384Y-83790864D01*
X217447594Y-83986486D01*
X217563378Y-84072626D01*
X217703400Y-84102710D01*
X218017370Y-84059062D01*
X218084400Y-83891043D01*
X218214815Y-83659070D01*
X218338400Y-83625266D01*
X218562897Y-83760812D01*
X218592400Y-83879266D01*
X218670428Y-84026752D01*
X218947029Y-84105937D01*
X219485984Y-84132765D01*
X219608400Y-84133266D01*
X220198346Y-84113759D01*
X220515084Y-84044609D01*
X220622397Y-83909870D01*
X220624400Y-83879266D01*
X220722229Y-83654024D01*
X220805829Y-83625266D01*
X221148319Y-83470424D01*
X221380292Y-83044901D01*
X221470808Y-82407200D01*
X221471067Y-82367361D01*
X221466425Y-82303116D01*
X220622292Y-82303116D01*
X220470664Y-82761191D01*
X220332768Y-82945997D01*
X220017220Y-83156052D01*
X219576289Y-83277001D01*
X219119187Y-83303410D01*
X218755132Y-83229845D01*
X218593337Y-83050871D01*
X218592400Y-83032600D01*
X218456855Y-82808103D01*
X218338400Y-82778600D01*
X218134114Y-82631398D01*
X218084400Y-82355266D01*
X218172722Y-82014789D01*
X218338400Y-81931933D01*
X218563744Y-81840498D01*
X218592400Y-81762600D01*
X218743893Y-81662277D01*
X219127810Y-81601552D01*
X219366496Y-81593266D01*
X220045021Y-81683892D01*
X220472015Y-81932263D01*
X220622292Y-82303116D01*
X221466425Y-82303116D01*
X221437928Y-81908746D01*
X221353946Y-81631145D01*
X221301734Y-81593266D01*
X221151505Y-81456113D01*
X221132400Y-81339266D01*
X220996855Y-81114769D01*
X220878400Y-81085266D01*
X220653057Y-80993831D01*
X220624400Y-80915933D01*
X220470162Y-80825736D01*
X220067235Y-80764586D01*
X219608400Y-80746600D01*
X219067221Y-80772306D01*
X218700320Y-80839460D01*
X218592400Y-80915933D01*
X218455248Y-81066162D01*
X218338400Y-81085266D01*
X218125866Y-80968151D01*
X218107939Y-80687639D01*
X218274322Y-80349983D01*
X218425003Y-80191566D01*
X218878713Y-79978333D01*
X219602981Y-79900606D01*
X219695003Y-79899933D01*
X220227705Y-79888890D01*
X220504829Y-79830572D01*
X220609331Y-79687193D01*
X220624400Y-79476600D01*
X220607214Y-79256298D01*
X220506700Y-79129760D01*
X220249429Y-79071025D01*
X219761969Y-79054134D01*
X219426972Y-79053266D01*
X218580872Y-79104328D01*
X218580872Y-79104328D01*
G37*
X218580872Y-79104328D02*
X218037756Y-79262992D01*
X217776852Y-79537479D01*
X217745734Y-79718504D01*
X217608409Y-79878485D01*
X217486522Y-79899933D01*
X217377432Y-79943780D01*
X217306855Y-80110370D01*
X217269428Y-80452275D01*
X217259786Y-81022068D01*
X217272563Y-81872322D01*
X217274855Y-81974266D01*
X217297548Y-82842040D01*
X217326213Y-83428478D01*
X217372384Y-83790864D01*
X217447594Y-83986486D01*
X217563378Y-84072626D01*
X217703400Y-84102710D01*
X218017370Y-84059062D01*
X218084400Y-83891043D01*
X218214815Y-83659070D01*
X218338400Y-83625266D01*
X218562897Y-83760812D01*
X218592400Y-83879266D01*
X218670428Y-84026752D01*
X218947029Y-84105937D01*
X219485984Y-84132765D01*
X219608400Y-84133266D01*
X220198346Y-84113759D01*
X220515084Y-84044609D01*
X220622397Y-83909870D01*
X220624400Y-83879266D01*
X220722229Y-83654024D01*
X220805829Y-83625266D01*
X221148319Y-83470424D01*
X221380292Y-83044901D01*
X221470808Y-82407200D01*
X221471067Y-82367361D01*
X221466425Y-82303116D01*
X220622292Y-82303116D01*
X220470664Y-82761191D01*
X220332768Y-82945997D01*
X220017220Y-83156052D01*
X219576289Y-83277001D01*
X219119187Y-83303410D01*
X218755132Y-83229845D01*
X218593337Y-83050871D01*
X218592400Y-83032600D01*
X218456855Y-82808103D01*
X218338400Y-82778600D01*
X218134114Y-82631398D01*
X218084400Y-82355266D01*
X218172722Y-82014789D01*
X218338400Y-81931933D01*
X218563744Y-81840498D01*
X218592400Y-81762600D01*
X218743893Y-81662277D01*
X219127810Y-81601552D01*
X219366496Y-81593266D01*
X220045021Y-81683892D01*
X220472015Y-81932263D01*
X220622292Y-82303116D01*
X221466425Y-82303116D01*
X221437928Y-81908746D01*
X221353946Y-81631145D01*
X221301734Y-81593266D01*
X221151505Y-81456113D01*
X221132400Y-81339266D01*
X220996855Y-81114769D01*
X220878400Y-81085266D01*
X220653057Y-80993831D01*
X220624400Y-80915933D01*
X220470162Y-80825736D01*
X220067235Y-80764586D01*
X219608400Y-80746600D01*
X219067221Y-80772306D01*
X218700320Y-80839460D01*
X218592400Y-80915933D01*
X218455248Y-81066162D01*
X218338400Y-81085266D01*
X218125866Y-80968151D01*
X218107939Y-80687639D01*
X218274322Y-80349983D01*
X218425003Y-80191566D01*
X218878713Y-79978333D01*
X219602981Y-79900606D01*
X219695003Y-79899933D01*
X220227705Y-79888890D01*
X220504829Y-79830572D01*
X220609331Y-79687193D01*
X220624400Y-79476600D01*
X220607214Y-79256298D01*
X220506700Y-79129760D01*
X220249429Y-79071025D01*
X219761969Y-79054134D01*
X219426972Y-79053266D01*
X218580872Y-79104328D01*
G36*
X225841451Y-78250880D02*
G01*
X225724252Y-78450142D01*
X225704400Y-78799266D01*
X225649321Y-79237612D01*
X225473534Y-79390861D01*
X225450400Y-79391933D01*
X225225158Y-79489761D01*
X225196400Y-79573361D01*
X225068136Y-79860620D01*
X224786611Y-80133437D01*
X224531162Y-80238600D01*
X224357175Y-80368694D01*
X224349734Y-80420028D01*
X224221469Y-80707286D01*
X223939945Y-80980104D01*
X223684496Y-81085266D01*
X223523608Y-81222226D01*
X223503067Y-81339266D01*
X223411632Y-81564610D01*
X223333734Y-81593266D01*
X223255070Y-81432276D01*
X223198197Y-80981832D01*
X223167995Y-80290727D01*
X223164400Y-79899933D01*
X223164400Y-78206600D01*
X222317734Y-78206600D01*
X222317734Y-84133266D01*
X222741067Y-84133266D01*
X223013814Y-84096296D01*
X223135040Y-83921916D01*
X223164249Y-83514919D01*
X223164400Y-83455933D01*
X223204631Y-83031825D01*
X223305133Y-82795895D01*
X223345829Y-82778600D01*
X223600819Y-82667592D01*
X223874290Y-82426988D01*
X224010638Y-82195414D01*
X224011067Y-82185933D01*
X224135667Y-81958760D01*
X224405733Y-81715122D01*
X224665663Y-81593648D01*
X224676305Y-81593266D01*
X224850293Y-81463172D01*
X224857734Y-81411838D01*
X224985998Y-81124579D01*
X225267523Y-80851762D01*
X225522972Y-80746600D01*
X225615137Y-80912073D01*
X225675860Y-81395603D01*
X225703069Y-82177859D01*
X225704400Y-82439933D01*
X225709985Y-83213492D01*
X225734140Y-83709029D01*
X225787968Y-83987107D01*
X225882574Y-84108288D01*
X226014845Y-84133266D01*
X226336820Y-84077983D01*
X226438178Y-84020377D01*
X226475551Y-83821506D01*
X226507700Y-83342189D01*
X226532406Y-82640632D01*
X226547454Y-81775044D01*
X226551067Y-81057044D01*
X226551067Y-78206600D01*
X226127734Y-78206600D01*
X225841451Y-78250880D01*
X225841451Y-78250880D01*
G37*
X225841451Y-78250880D02*
X225724252Y-78450142D01*
X225704400Y-78799266D01*
X225649321Y-79237612D01*
X225473534Y-79390861D01*
X225450400Y-79391933D01*
X225225158Y-79489761D01*
X225196400Y-79573361D01*
X225068136Y-79860620D01*
X224786611Y-80133437D01*
X224531162Y-80238600D01*
X224357175Y-80368694D01*
X224349734Y-80420028D01*
X224221469Y-80707286D01*
X223939945Y-80980104D01*
X223684496Y-81085266D01*
X223523608Y-81222226D01*
X223503067Y-81339266D01*
X223411632Y-81564610D01*
X223333734Y-81593266D01*
X223255070Y-81432276D01*
X223198197Y-80981832D01*
X223167995Y-80290727D01*
X223164400Y-79899933D01*
X223164400Y-78206600D01*
X222317734Y-78206600D01*
X222317734Y-84133266D01*
X222741067Y-84133266D01*
X223013814Y-84096296D01*
X223135040Y-83921916D01*
X223164249Y-83514919D01*
X223164400Y-83455933D01*
X223204631Y-83031825D01*
X223305133Y-82795895D01*
X223345829Y-82778600D01*
X223600819Y-82667592D01*
X223874290Y-82426988D01*
X224010638Y-82195414D01*
X224011067Y-82185933D01*
X224135667Y-81958760D01*
X224405733Y-81715122D01*
X224665663Y-81593648D01*
X224676305Y-81593266D01*
X224850293Y-81463172D01*
X224857734Y-81411838D01*
X224985998Y-81124579D01*
X225267523Y-80851762D01*
X225522972Y-80746600D01*
X225615137Y-80912073D01*
X225675860Y-81395603D01*
X225703069Y-82177859D01*
X225704400Y-82439933D01*
X225709985Y-83213492D01*
X225734140Y-83709029D01*
X225787968Y-83987107D01*
X225882574Y-84108288D01*
X226014845Y-84133266D01*
X226336820Y-84077983D01*
X226438178Y-84020377D01*
X226475551Y-83821506D01*
X226507700Y-83342189D01*
X226532406Y-82640632D01*
X226547454Y-81775044D01*
X226551067Y-81057044D01*
X226551067Y-78206600D01*
X226127734Y-78206600D01*
X225841451Y-78250880D01*
M02*
